<?xml version="1.0" encoding="UTF-8" standalone="no"?>
<!-- Created with Inkscape (http://www.inkscape.org/) -->

<svg
   xmlns:dc="http://purl.org/dc/elements/1.1/"
   xmlns:cc="http://creativecommons.org/ns#"
   xmlns:rdf="http://www.w3.org/1999/02/22-rdf-syntax-ns#"
   xmlns:svg="http://www.w3.org/2000/svg"
   xmlns="http://www.w3.org/2000/svg"
   xmlns:sodipodi="http://sodipodi.sourceforge.net/DTD/sodipodi-0.dtd"
   xmlns:inkscape="http://www.inkscape.org/namespaces/inkscape"
   width="150.38943mm"
   height="103.5444mm"
   viewBox="0 0 532.87595 366.88962"
   id="svg5052"
   version="1.1"
   inkscape:version="0.91 r13725"
   sodipodi:docname="nodes.svg">
  <defs
     id="defs5054">
    <marker
       inkscape:isstock="true"
       style="overflow:visible"
       id="marker6215"
       refX="0"
       refY="0"
       orient="auto"
       inkscape:stockid="Arrow2Mend">
      <path
         transform="scale(-0.6,-0.6)"
         d="M 8.7185878,4.0337352 -2.2072895,0.01601326 8.7185884,-4.0017078 c -1.7454984,2.3720609 -1.7354408,5.6174519 -6e-7,8.035443 z"
         style="fill:#ffffff;fill-opacity:1;fill-rule:evenodd;stroke:#ffffff;stroke-width:0.625;stroke-linejoin:round;stroke-opacity:1"
         id="path6217"
         inkscape:connector-curvature="0" />
    </marker>
    <marker
       inkscape:stockid="Arrow2Mend"
       orient="auto"
       refY="0"
       refX="0"
       id="Arrow2Mend"
       style="overflow:visible"
       inkscape:isstock="true"
       inkscape:collect="always">
      <path
         id="path5746"
         style="fill:#ffffff;fill-opacity:1;fill-rule:evenodd;stroke:#ffffff;stroke-width:0.625;stroke-linejoin:round;stroke-opacity:1"
         d="M 8.7185878,4.0337352 -2.2072895,0.01601326 8.7185884,-4.0017078 c -1.7454984,2.3720609 -1.7354408,5.6174519 -6e-7,8.035443 z"
         transform="scale(-0.6,-0.6)"
         inkscape:connector-curvature="0" />
    </marker>
    <marker
       inkscape:stockid="Arrow1Lend"
       orient="auto"
       refY="0"
       refX="0"
       id="Arrow1Lend"
       style="overflow:visible"
       inkscape:isstock="true">
      <path
         id="path5722"
         d="M 0,0 5,-5 -12.5,0 5,5 0,0 Z"
         style="fill:#ffffff;fill-opacity:1;fill-rule:evenodd;stroke:#ffffff;stroke-width:1pt;stroke-opacity:1"
         transform="matrix(-0.8,0,0,-0.8,-10,0)"
         inkscape:connector-curvature="0" />
    </marker>
    <marker
       inkscape:stockid="Arrow2Mend"
       orient="auto"
       refY="0"
       refX="0"
       id="Arrow2Mend-3"
       style="overflow:visible"
       inkscape:isstock="true"
       inkscape:collect="always">
      <path
         inkscape:connector-curvature="0"
         id="path5746-6"
         style="fill:#ffffff;fill-opacity:1;fill-rule:evenodd;stroke:#ffffff;stroke-width:0.625;stroke-linejoin:round;stroke-opacity:1"
         d="M 8.7185878,4.0337352 -2.2072895,0.01601326 8.7185884,-4.0017078 c -1.7454984,2.3720609 -1.7354408,5.6174519 -6e-7,8.035443 z"
         transform="scale(-0.6,-0.6)" />
    </marker>
    <marker
       inkscape:stockid="Arrow2Mend"
       orient="auto"
       refY="0"
       refX="0"
       id="Arrow2Mend-5"
       style="overflow:visible"
       inkscape:isstock="true"
       inkscape:collect="always">
      <path
         inkscape:connector-curvature="0"
         id="path5746-3"
         style="fill:#ffffff;fill-opacity:1;fill-rule:evenodd;stroke:#ffffff;stroke-width:0.625;stroke-linejoin:round;stroke-opacity:1"
         d="M 8.7185878,4.0337352 -2.2072895,0.01601326 8.7185884,-4.0017078 c -1.7454984,2.3720609 -1.7354408,5.6174519 -6e-7,8.035443 z"
         transform="scale(-0.6,-0.6)" />
    </marker>
    <marker
       inkscape:stockid="Arrow2Mend"
       orient="auto"
       refY="0"
       refX="0"
       id="Arrow2Mend-6"
       style="overflow:visible"
       inkscape:isstock="true"
       inkscape:collect="always">
      <path
         inkscape:connector-curvature="0"
         id="path5746-2"
         style="fill:#ffffff;fill-opacity:1;fill-rule:evenodd;stroke:#ffffff;stroke-width:0.625;stroke-linejoin:round;stroke-opacity:1"
         d="M 8.7185878,4.0337352 -2.2072895,0.01601326 8.7185884,-4.0017078 c -1.7454984,2.3720609 -1.7354408,5.6174519 -6e-7,8.035443 z"
         transform="scale(-0.6,-0.6)" />
    </marker>
    <marker
       inkscape:isstock="true"
       style="overflow:visible"
       id="marker6215-0"
       refX="0"
       refY="0"
       orient="auto"
       inkscape:stockid="Arrow2Mend">
      <path
         transform="scale(-0.6,-0.6)"
         d="M 8.7185878,4.0337352 -2.2072895,0.01601326 8.7185884,-4.0017078 c -1.7454984,2.3720609 -1.7354408,5.6174519 -6e-7,8.035443 z"
         style="fill:#ffffff;fill-opacity:1;fill-rule:evenodd;stroke:#ffffff;stroke-width:0.625;stroke-linejoin:round;stroke-opacity:1"
         id="path6217-6"
         inkscape:connector-curvature="0" />
    </marker>
  </defs>
  <sodipodi:namedview
     id="base"
     pagecolor="#ffffff"
     bordercolor="#666666"
     borderopacity="1.0"
     inkscape:pageopacity="0.0"
     inkscape:pageshadow="2"
     inkscape:zoom="0.26488883"
     inkscape:cx="923.25733"
     inkscape:cy="72.898938"
     inkscape:document-units="px"
     inkscape:current-layer="layer1"
     showgrid="false"
     inkscape:snap-bbox="true"
     inkscape:bbox-paths="true"
     inkscape:bbox-nodes="true"
     inkscape:snap-bbox-edge-midpoints="true"
     inkscape:snap-bbox-midpoints="true"
     inkscape:object-paths="true"
     inkscape:snap-intersection-paths="true"
     inkscape:object-nodes="true"
     inkscape:snap-smooth-nodes="true"
     inkscape:snap-midpoints="true"
     fit-margin-top="0"
     fit-margin-left="0"
     fit-margin-right="0"
     fit-margin-bottom="0"
     inkscape:window-width="1366"
     inkscape:window-height="713"
     inkscape:window-x="0"
     inkscape:window-y="27"
     inkscape:window-maximized="1" />
  <metadata
     id="metadata5057">
    <rdf:RDF>
      <cc:Work
         rdf:about="">
        <dc:format>image/svg+xml</dc:format>
        <dc:type
           rdf:resource="http://purl.org/dc/dcmitype/StillImage" />
        <dc:title></dc:title>
      </cc:Work>
    </rdf:RDF>
  </metadata>
  <g
     inkscape:label="Layer 1"
     inkscape:groupmode="layer"
     id="layer1"
     transform="translate(-139.97119,-96.578303)">
    <g
       id="g8314">
      <path
         inkscape:connector-curvature="0"
         id="rect5600"
         d="m 150.97119,127.3987 120.14598,0 c 5.54,0 10,4.46 10,10 l 0,57.41397 c 0,5.54 -4.46,10 -10,10 l -120.14598,0 c -5.54,0 -10,-4.46 -10,-10 l 0,-57.41397 c 0,-5.54 4.46,-10 10,-10 z"
         style="opacity:1;fill:none;fill-opacity:0.99215686;stroke:#ffffff;stroke-width:2;stroke-linecap:round;stroke-linejoin:round;stroke-miterlimit:4;stroke-dasharray:none;stroke-dashoffset:200;stroke-opacity:1" />
      <g
         id="flowRoot5602"
         style="font-style:normal;font-weight:normal;font-size:40px;line-height:224.00000095%;font-family:sans-serif;letter-spacing:11.77000046px;word-spacing:0px;fill:#ffffff;fill-opacity:1;stroke:none;stroke-width:1px;stroke-linecap:butt;stroke-linejoin:miter;stroke-opacity:1"
         transform="translate(-6.9558214,-42.146326)">
        <path
           inkscape:connector-curvature="0"
           id="path8244"
           style="font-style:normal;font-variant:normal;font-weight:normal;font-stretch:normal;font-family:'Open Sans';-inkscape-font-specification:'Open Sans';text-align:center;letter-spacing:0px;text-anchor:middle;fill:#ffffff;fill-opacity:1"
           d="m 192.67773,223.25201 -3.78906,0 -15.60547,-23.96485 -0.15625,0 q 0.3125,4.21875 0.3125,7.73438 l 0,16.23047 -3.0664,0 0,-28.55469 3.75,0 15.5664,23.86719 0.15625,0 q -0.0391,-0.52735 -0.17578,-3.37891 -0.13672,-2.87109 -0.0976,-4.10156 l 0,-16.38672 3.10546,0 0,28.55469 z" />
        <path
           inkscape:connector-curvature="0"
           id="path8246"
           style="font-style:normal;font-variant:normal;font-weight:normal;font-stretch:normal;font-family:'Open Sans';-inkscape-font-specification:'Open Sans';text-align:center;letter-spacing:0px;text-anchor:middle;fill:#ffffff;fill-opacity:1"
           d="m 218.51758,212.52935 q 0,5.23438 -2.63672,8.1836 -2.63672,2.92968 -7.28516,2.92968 -2.87109,0 -5.09765,-1.34765 -2.22657,-1.34766 -3.4375,-3.86719 -1.21094,-2.51953 -1.21094,-5.89844 0,-5.23437 2.61719,-8.14453 2.61718,-2.92969 7.26562,-2.92969 4.49219,0 7.12891,2.98828 2.65625,2.98829 2.65625,8.08594 z m -16.3086,0 q 0,4.10156 1.64063,6.25 1.64062,2.14844 4.82422,2.14844 3.18359,0 4.82422,-2.12891 1.66015,-2.14843 1.66015,-6.26953 0,-4.08203 -1.66015,-6.1914 -1.64063,-2.12891 -4.86328,-2.12891 -3.1836,0 -4.80469,2.08984 -1.6211,2.08985 -1.6211,6.23047 z" />
        <path
           inkscape:connector-curvature="0"
           id="path8248"
           style="font-style:normal;font-variant:normal;font-weight:normal;font-stretch:normal;font-family:'Open Sans';-inkscape-font-specification:'Open Sans';text-align:center;letter-spacing:0px;text-anchor:middle;fill:#ffffff;fill-opacity:1"
           d="m 238.75195,220.38091 -0.17578,0 q -2.24609,3.26172 -6.71875,3.26172 -4.19922,0 -6.54297,-2.87109 -2.32422,-2.87109 -2.32422,-8.16406 0,-5.29297 2.34375,-8.22266 2.34375,-2.92969 6.52344,-2.92969 4.35547,0 6.67969,3.16407 l 0.25391,0 -0.13672,-1.54297 -0.0781,-1.50391 0,-8.71094 3.24219,0 0,30.39063 -2.63672,0 -0.42969,-2.8711 z m -6.48437,0.54688 q 3.32031,0 4.80469,-1.79688 1.5039,-1.8164 1.5039,-5.83984 l 0,-0.68359 q 0,-4.55078 -1.52344,-6.48438 -1.5039,-1.95312 -4.82421,-1.95312 -2.85157,0 -4.375,2.22656 -1.50391,2.20703 -1.50391,6.25 0,4.10156 1.50391,6.19141 1.5039,2.08984 4.41406,2.08984 z" />
        <path
           inkscape:connector-curvature="0"
           id="path8250"
           style="font-style:normal;font-variant:normal;font-weight:normal;font-stretch:normal;font-family:'Open Sans';-inkscape-font-specification:'Open Sans';text-align:center;letter-spacing:0px;text-anchor:middle;fill:#ffffff;fill-opacity:1"
           d="m 257.75586,223.64263 q -4.74609,0 -7.5,-2.89062 -2.73438,-2.89063 -2.73438,-8.02735 0,-5.17578 2.53907,-8.22265 2.55859,-3.04688 6.85547,-3.04688 4.02343,0 6.36718,2.65625 2.34375,2.63672 2.34375,6.97266 l 0,2.05078 -14.74609,0 q 0.0977,3.76953 1.89453,5.72266 1.81641,1.95312 5.09766,1.95312 3.45703,0 6.83593,-1.44531 l 0,2.89062 q -1.71875,0.74219 -3.26171,1.05469 -1.52344,0.33203 -3.69141,0.33203 z m -0.87891,-19.47265 q -2.57812,0 -4.12109,1.67968 -1.52344,1.67969 -1.79688,4.64844 l 11.19141,0 q 0,-3.0664 -1.36719,-4.6875 -1.36718,-1.64062 -3.90625,-1.64062 z" />
      </g>
      <rect
         style="opacity:1;fill:none;fill-opacity:0.99215686;stroke:#ffffff;stroke-width:2;stroke-linecap:round;stroke-linejoin:round;stroke-miterlimit:4;stroke-dasharray:none;stroke-dashoffset:200;stroke-opacity:1"
         id="rect5621"
         width="140.14598"
         height="77.413971"
         x="334.89825"
         y="255.51846"
         ry="10"
         rx="10" />
      <g
         transform="translate(186.97123,85.973444)"
         style="font-style:normal;font-weight:normal;font-size:40px;line-height:224.00000095%;font-family:sans-serif;letter-spacing:11.77000046px;word-spacing:0px;fill:#ffffff;fill-opacity:1;stroke:none;stroke-width:1px;stroke-linecap:butt;stroke-linejoin:miter;stroke-opacity:1"
         id="flowRoot5623">
        <path
           d="m 192.67773,223.25201 -3.78906,0 -15.60547,-23.96485 -0.15625,0 q 0.3125,4.21875 0.3125,7.73438 l 0,16.23047 -3.0664,0 0,-28.55469 3.75,0 15.5664,23.86719 0.15625,0 q -0.0391,-0.52735 -0.17578,-3.37891 -0.13672,-2.87109 -0.0976,-4.10156 l 0,-16.38672 3.10546,0 0,28.55469 z"
           style="font-style:normal;font-variant:normal;font-weight:normal;font-stretch:normal;font-family:'Open Sans';-inkscape-font-specification:'Open Sans';text-align:center;letter-spacing:0px;text-anchor:middle;fill:#ffffff;fill-opacity:1"
           id="path8413" />
        <path
           d="m 218.51758,212.52935 q 0,5.23438 -2.63672,8.1836 -2.63672,2.92968 -7.28516,2.92968 -2.87109,0 -5.09765,-1.34765 -2.22657,-1.34766 -3.4375,-3.86719 -1.21094,-2.51953 -1.21094,-5.89844 0,-5.23437 2.61719,-8.14453 2.61718,-2.92969 7.26562,-2.92969 4.49219,0 7.12891,2.98828 2.65625,2.98829 2.65625,8.08594 z m -16.3086,0 q 0,4.10156 1.64063,6.25 1.64062,2.14844 4.82422,2.14844 3.18359,0 4.82422,-2.12891 1.66015,-2.14843 1.66015,-6.26953 0,-4.08203 -1.66015,-6.1914 -1.64063,-2.12891 -4.86328,-2.12891 -3.1836,0 -4.80469,2.08984 -1.6211,2.08985 -1.6211,6.23047 z"
           style="font-style:normal;font-variant:normal;font-weight:normal;font-stretch:normal;font-family:'Open Sans';-inkscape-font-specification:'Open Sans';text-align:center;letter-spacing:0px;text-anchor:middle;fill:#ffffff;fill-opacity:1"
           id="path8415" />
        <path
           d="m 238.75195,220.38091 -0.17578,0 q -2.24609,3.26172 -6.71875,3.26172 -4.19922,0 -6.54297,-2.87109 -2.32422,-2.87109 -2.32422,-8.16406 0,-5.29297 2.34375,-8.22266 2.34375,-2.92969 6.52344,-2.92969 4.35547,0 6.67969,3.16407 l 0.25391,0 -0.13672,-1.54297 -0.0781,-1.50391 0,-8.71094 3.24219,0 0,30.39063 -2.63672,0 -0.42969,-2.8711 z m -6.48437,0.54688 q 3.32031,0 4.80469,-1.79688 1.5039,-1.8164 1.5039,-5.83984 l 0,-0.68359 q 0,-4.55078 -1.52344,-6.48438 -1.5039,-1.95312 -4.82421,-1.95312 -2.85157,0 -4.375,2.22656 -1.50391,2.20703 -1.50391,6.25 0,4.10156 1.50391,6.19141 1.5039,2.08984 4.41406,2.08984 z"
           style="font-style:normal;font-variant:normal;font-weight:normal;font-stretch:normal;font-family:'Open Sans';-inkscape-font-specification:'Open Sans';text-align:center;letter-spacing:0px;text-anchor:middle;fill:#ffffff;fill-opacity:1"
           id="path8417" />
        <path
           d="m 257.75586,223.64263 q -4.74609,0 -7.5,-2.89062 -2.73438,-2.89063 -2.73438,-8.02735 0,-5.17578 2.53907,-8.22265 2.55859,-3.04688 6.85547,-3.04688 4.02343,0 6.36718,2.65625 2.34375,2.63672 2.34375,6.97266 l 0,2.05078 -14.74609,0 q 0.0977,3.76953 1.89453,5.72266 1.81641,1.95312 5.09766,1.95312 3.45703,0 6.83593,-1.44531 l 0,2.89062 q -1.71875,0.74219 -3.26171,1.05469 -1.52344,0.33203 -3.69141,0.33203 z m -0.87891,-19.47265 q -2.57812,0 -4.12109,1.67968 -1.52344,1.67969 -1.79688,4.64844 l 11.19141,0 q 0,-3.0664 -1.36719,-4.6875 -1.36718,-1.64062 -3.90625,-1.64062 z"
           style="font-style:normal;font-variant:normal;font-weight:normal;font-stretch:normal;font-family:'Open Sans';-inkscape-font-specification:'Open Sans';text-align:center;letter-spacing:0px;text-anchor:middle;fill:#ffffff;fill-opacity:1"
           id="path8419" />
      </g>
      <path
         inkscape:connector-curvature="0"
         id="rect5633"
         d="m 150.97119,253.63089 120.14598,0 c 5.54,0 10,4.46 10,10 l 0,57.41397 c 0,5.54 -4.46,10 -10,10 l -120.14598,0 c -5.54,0 -10,-4.46 -10,-10 l 0,-57.41397 c 0,-5.54 4.46,-10 10,-10 z"
         style="opacity:1;fill:none;fill-opacity:0.99215686;stroke:#ffffff;stroke-width:2;stroke-linecap:round;stroke-linejoin:round;stroke-miterlimit:4;stroke-dasharray:none;stroke-dashoffset:200;stroke-opacity:1" />
      <g
         id="flowRoot5635"
         style="font-style:normal;font-weight:normal;font-size:40px;line-height:224.00000095%;font-family:sans-serif;letter-spacing:11.77000046px;word-spacing:0px;fill:#ffffff;fill-opacity:1;stroke:none;stroke-width:1px;stroke-linecap:butt;stroke-linejoin:miter;stroke-opacity:1"
         transform="translate(-6.9558214,84.085864)">
        <path
           inkscape:connector-curvature="0"
           id="path8235"
           style="font-style:normal;font-variant:normal;font-weight:normal;font-stretch:normal;font-family:'Open Sans';-inkscape-font-specification:'Open Sans';text-align:center;letter-spacing:0px;text-anchor:middle;fill:#ffffff;fill-opacity:1"
           d="m 192.67773,223.25201 -3.78906,0 -15.60547,-23.96485 -0.15625,0 q 0.3125,4.21875 0.3125,7.73438 l 0,16.23047 -3.0664,0 0,-28.55469 3.75,0 15.5664,23.86719 0.15625,0 q -0.0391,-0.52735 -0.17578,-3.37891 -0.13672,-2.87109 -0.0976,-4.10156 l 0,-16.38672 3.10546,0 0,28.55469 z" />
        <path
           inkscape:connector-curvature="0"
           id="path8237"
           style="font-style:normal;font-variant:normal;font-weight:normal;font-stretch:normal;font-family:'Open Sans';-inkscape-font-specification:'Open Sans';text-align:center;letter-spacing:0px;text-anchor:middle;fill:#ffffff;fill-opacity:1"
           d="m 218.51758,212.52935 q 0,5.23438 -2.63672,8.1836 -2.63672,2.92968 -7.28516,2.92968 -2.87109,0 -5.09765,-1.34765 -2.22657,-1.34766 -3.4375,-3.86719 -1.21094,-2.51953 -1.21094,-5.89844 0,-5.23437 2.61719,-8.14453 2.61718,-2.92969 7.26562,-2.92969 4.49219,0 7.12891,2.98828 2.65625,2.98829 2.65625,8.08594 z m -16.3086,0 q 0,4.10156 1.64063,6.25 1.64062,2.14844 4.82422,2.14844 3.18359,0 4.82422,-2.12891 1.66015,-2.14843 1.66015,-6.26953 0,-4.08203 -1.66015,-6.1914 -1.64063,-2.12891 -4.86328,-2.12891 -3.1836,0 -4.80469,2.08984 -1.6211,2.08985 -1.6211,6.23047 z" />
        <path
           inkscape:connector-curvature="0"
           id="path8239"
           style="font-style:normal;font-variant:normal;font-weight:normal;font-stretch:normal;font-family:'Open Sans';-inkscape-font-specification:'Open Sans';text-align:center;letter-spacing:0px;text-anchor:middle;fill:#ffffff;fill-opacity:1"
           d="m 238.75195,220.38091 -0.17578,0 q -2.24609,3.26172 -6.71875,3.26172 -4.19922,0 -6.54297,-2.87109 -2.32422,-2.87109 -2.32422,-8.16406 0,-5.29297 2.34375,-8.22266 2.34375,-2.92969 6.52344,-2.92969 4.35547,0 6.67969,3.16407 l 0.25391,0 -0.13672,-1.54297 -0.0781,-1.50391 0,-8.71094 3.24219,0 0,30.39063 -2.63672,0 -0.42969,-2.8711 z m -6.48437,0.54688 q 3.32031,0 4.80469,-1.79688 1.5039,-1.8164 1.5039,-5.83984 l 0,-0.68359 q 0,-4.55078 -1.52344,-6.48438 -1.5039,-1.95312 -4.82421,-1.95312 -2.85157,0 -4.375,2.22656 -1.50391,2.20703 -1.50391,6.25 0,4.10156 1.50391,6.19141 1.5039,2.08984 4.41406,2.08984 z" />
        <path
           inkscape:connector-curvature="0"
           id="path8241"
           style="font-style:normal;font-variant:normal;font-weight:normal;font-stretch:normal;font-family:'Open Sans';-inkscape-font-specification:'Open Sans';text-align:center;letter-spacing:0px;text-anchor:middle;fill:#ffffff;fill-opacity:1"
           d="m 257.75586,223.64263 q -4.74609,0 -7.5,-2.89062 -2.73438,-2.89063 -2.73438,-8.02735 0,-5.17578 2.53907,-8.22265 2.55859,-3.04688 6.85547,-3.04688 4.02343,0 6.36718,2.65625 2.34375,2.63672 2.34375,6.97266 l 0,2.05078 -14.74609,0 q 0.0977,3.76953 1.89453,5.72266 1.81641,1.95312 5.09766,1.95312 3.45703,0 6.83593,-1.44531 l 0,2.89062 q -1.71875,0.74219 -3.26171,1.05469 -1.52344,0.33203 -3.69141,0.33203 z m -0.87891,-19.47265 q -2.57812,0 -4.12109,1.67968 -1.52344,1.67969 -1.79688,4.64844 l 11.19141,0 q 0,-3.0664 -1.36719,-4.6875 -1.36718,-1.64062 -3.90625,-1.64062 z" />
      </g>
      <path
         inkscape:connector-curvature="0"
         id="rect5645"
         d="m 150.97119,378.44742 120.14598,0 c 5.54,0 10,4.46 10,10 l 0,57.41397 c 0,5.54 -4.46,10 -10,10 l -120.14598,0 c -5.54,0 -10,-4.46 -10,-10 l 0,-57.41397 c 0,-5.54 4.46,-10 10,-10 z"
         style="opacity:1;fill:none;fill-opacity:0.99215686;stroke:#ffffff;stroke-width:2;stroke-linecap:round;stroke-linejoin:round;stroke-miterlimit:4;stroke-dasharray:none;stroke-dashoffset:200;stroke-opacity:1" />
      <g
         id="flowRoot5647"
         style="font-style:normal;font-weight:normal;font-size:40px;line-height:224.00000095%;font-family:sans-serif;letter-spacing:11.77000046px;word-spacing:0px;fill:#ffffff;fill-opacity:1;stroke:none;stroke-width:1px;stroke-linecap:butt;stroke-linejoin:miter;stroke-opacity:1"
         transform="translate(-6.9558214,208.90239)">
        <path
           inkscape:connector-curvature="0"
           id="path8226"
           style="font-style:normal;font-variant:normal;font-weight:normal;font-stretch:normal;font-family:'Open Sans';-inkscape-font-specification:'Open Sans';text-align:center;letter-spacing:0px;text-anchor:middle;fill:#ffffff;fill-opacity:1"
           d="m 192.67773,223.25201 -3.78906,0 -15.60547,-23.96485 -0.15625,0 q 0.3125,4.21875 0.3125,7.73438 l 0,16.23047 -3.0664,0 0,-28.55469 3.75,0 15.5664,23.86719 0.15625,0 q -0.0391,-0.52735 -0.17578,-3.37891 -0.13672,-2.87109 -0.0976,-4.10156 l 0,-16.38672 3.10546,0 0,28.55469 z" />
        <path
           inkscape:connector-curvature="0"
           id="path8228"
           style="font-style:normal;font-variant:normal;font-weight:normal;font-stretch:normal;font-family:'Open Sans';-inkscape-font-specification:'Open Sans';text-align:center;letter-spacing:0px;text-anchor:middle;fill:#ffffff;fill-opacity:1"
           d="m 218.51758,212.52935 q 0,5.23438 -2.63672,8.1836 -2.63672,2.92968 -7.28516,2.92968 -2.87109,0 -5.09765,-1.34765 -2.22657,-1.34766 -3.4375,-3.86719 -1.21094,-2.51953 -1.21094,-5.89844 0,-5.23437 2.61719,-8.14453 2.61718,-2.92969 7.26562,-2.92969 4.49219,0 7.12891,2.98828 2.65625,2.98829 2.65625,8.08594 z m -16.3086,0 q 0,4.10156 1.64063,6.25 1.64062,2.14844 4.82422,2.14844 3.18359,0 4.82422,-2.12891 1.66015,-2.14843 1.66015,-6.26953 0,-4.08203 -1.66015,-6.1914 -1.64063,-2.12891 -4.86328,-2.12891 -3.1836,0 -4.80469,2.08984 -1.6211,2.08985 -1.6211,6.23047 z" />
        <path
           inkscape:connector-curvature="0"
           id="path8230"
           style="font-style:normal;font-variant:normal;font-weight:normal;font-stretch:normal;font-family:'Open Sans';-inkscape-font-specification:'Open Sans';text-align:center;letter-spacing:0px;text-anchor:middle;fill:#ffffff;fill-opacity:1"
           d="m 238.75195,220.38091 -0.17578,0 q -2.24609,3.26172 -6.71875,3.26172 -4.19922,0 -6.54297,-2.87109 -2.32422,-2.87109 -2.32422,-8.16406 0,-5.29297 2.34375,-8.22266 2.34375,-2.92969 6.52344,-2.92969 4.35547,0 6.67969,3.16407 l 0.25391,0 -0.13672,-1.54297 -0.0781,-1.50391 0,-8.71094 3.24219,0 0,30.39063 -2.63672,0 -0.42969,-2.8711 z m -6.48437,0.54688 q 3.32031,0 4.80469,-1.79688 1.5039,-1.8164 1.5039,-5.83984 l 0,-0.68359 q 0,-4.55078 -1.52344,-6.48438 -1.5039,-1.95312 -4.82421,-1.95312 -2.85157,0 -4.375,2.22656 -1.50391,2.20703 -1.50391,6.25 0,4.10156 1.50391,6.19141 1.5039,2.08984 4.41406,2.08984 z" />
        <path
           inkscape:connector-curvature="0"
           id="path8232"
           style="font-style:normal;font-variant:normal;font-weight:normal;font-stretch:normal;font-family:'Open Sans';-inkscape-font-specification:'Open Sans';text-align:center;letter-spacing:0px;text-anchor:middle;fill:#ffffff;fill-opacity:1"
           d="m 257.75586,223.64263 q -4.74609,0 -7.5,-2.89062 -2.73438,-2.89063 -2.73438,-8.02735 0,-5.17578 2.53907,-8.22265 2.55859,-3.04688 6.85547,-3.04688 4.02343,0 6.36718,2.65625 2.34375,2.63672 2.34375,6.97266 l 0,2.05078 -14.74609,0 q 0.0977,3.76953 1.89453,5.72266 1.81641,1.95312 5.09766,1.95312 3.45703,0 6.83593,-1.44531 l 0,2.89062 q -1.71875,0.74219 -3.26171,1.05469 -1.52344,0.33203 -3.69141,0.33203 z m -0.87891,-19.47265 q -2.57812,0 -4.12109,1.67968 -1.52344,1.67969 -1.79688,4.64844 l 11.19141,0 q 0,-3.0664 -1.36719,-4.6875 -1.36718,-1.64062 -3.90625,-1.64062 z" />
      </g>
      <rect
         rx="10"
         ry="10"
         y="382.2226"
         x="336.33615"
         height="77.413971"
         width="140.14598"
         id="rect5657"
         style="opacity:1;fill:none;fill-opacity:0.99215686;stroke:#ffffff;stroke-width:2;stroke-linecap:round;stroke-linejoin:round;stroke-miterlimit:4;stroke-dasharray:none;stroke-dashoffset:200;stroke-opacity:1" />
      <g
         id="flowRoot5659"
         style="font-style:normal;font-weight:normal;font-size:40px;line-height:224.00000095%;font-family:sans-serif;letter-spacing:11.77000046px;word-spacing:0px;fill:#ffffff;fill-opacity:1;stroke:none;stroke-width:1px;stroke-linecap:butt;stroke-linejoin:miter;stroke-opacity:1"
         transform="translate(188.40913,212.67756)">
        <path
           inkscape:connector-curvature="0"
           id="path8282"
           style="font-style:normal;font-variant:normal;font-weight:normal;font-stretch:normal;font-family:'Open Sans';-inkscape-font-specification:'Open Sans';text-align:center;letter-spacing:0px;text-anchor:middle;fill:#ffffff;fill-opacity:1"
           d="m 192.67773,223.25201 -3.78906,0 -15.60547,-23.96485 -0.15625,0 q 0.3125,4.21875 0.3125,7.73438 l 0,16.23047 -3.0664,0 0,-28.55469 3.75,0 15.5664,23.86719 0.15625,0 q -0.0391,-0.52735 -0.17578,-3.37891 -0.13672,-2.87109 -0.0976,-4.10156 l 0,-16.38672 3.10546,0 0,28.55469 z" />
        <path
           inkscape:connector-curvature="0"
           id="path8284"
           style="font-style:normal;font-variant:normal;font-weight:normal;font-stretch:normal;font-family:'Open Sans';-inkscape-font-specification:'Open Sans';text-align:center;letter-spacing:0px;text-anchor:middle;fill:#ffffff;fill-opacity:1"
           d="m 218.51758,212.52935 q 0,5.23438 -2.63672,8.1836 -2.63672,2.92968 -7.28516,2.92968 -2.87109,0 -5.09765,-1.34765 -2.22657,-1.34766 -3.4375,-3.86719 -1.21094,-2.51953 -1.21094,-5.89844 0,-5.23437 2.61719,-8.14453 2.61718,-2.92969 7.26562,-2.92969 4.49219,0 7.12891,2.98828 2.65625,2.98829 2.65625,8.08594 z m -16.3086,0 q 0,4.10156 1.64063,6.25 1.64062,2.14844 4.82422,2.14844 3.18359,0 4.82422,-2.12891 1.66015,-2.14843 1.66015,-6.26953 0,-4.08203 -1.66015,-6.1914 -1.64063,-2.12891 -4.86328,-2.12891 -3.1836,0 -4.80469,2.08984 -1.6211,2.08985 -1.6211,6.23047 z" />
        <path
           inkscape:connector-curvature="0"
           id="path8286"
           style="font-style:normal;font-variant:normal;font-weight:normal;font-stretch:normal;font-family:'Open Sans';-inkscape-font-specification:'Open Sans';text-align:center;letter-spacing:0px;text-anchor:middle;fill:#ffffff;fill-opacity:1"
           d="m 238.75195,220.38091 -0.17578,0 q -2.24609,3.26172 -6.71875,3.26172 -4.19922,0 -6.54297,-2.87109 -2.32422,-2.87109 -2.32422,-8.16406 0,-5.29297 2.34375,-8.22266 2.34375,-2.92969 6.52344,-2.92969 4.35547,0 6.67969,3.16407 l 0.25391,0 -0.13672,-1.54297 -0.0781,-1.50391 0,-8.71094 3.24219,0 0,30.39063 -2.63672,0 -0.42969,-2.8711 z m -6.48437,0.54688 q 3.32031,0 4.80469,-1.79688 1.5039,-1.8164 1.5039,-5.83984 l 0,-0.68359 q 0,-4.55078 -1.52344,-6.48438 -1.5039,-1.95312 -4.82421,-1.95312 -2.85157,0 -4.375,2.22656 -1.50391,2.20703 -1.50391,6.25 0,4.10156 1.50391,6.19141 1.5039,2.08984 4.41406,2.08984 z" />
        <path
           inkscape:connector-curvature="0"
           id="path8288"
           style="font-style:normal;font-variant:normal;font-weight:normal;font-stretch:normal;font-family:'Open Sans';-inkscape-font-specification:'Open Sans';text-align:center;letter-spacing:0px;text-anchor:middle;fill:#ffffff;fill-opacity:1"
           d="m 257.75586,223.64263 q -4.74609,0 -7.5,-2.89062 -2.73438,-2.89063 -2.73438,-8.02735 0,-5.17578 2.53907,-8.22265 2.55859,-3.04688 6.85547,-3.04688 4.02343,0 6.36718,2.65625 2.34375,2.63672 2.34375,6.97266 l 0,2.05078 -14.74609,0 q 0.0977,3.76953 1.89453,5.72266 1.81641,1.95312 5.09766,1.95312 3.45703,0 6.83593,-1.44531 l 0,2.89062 q -1.71875,0.74219 -3.26171,1.05469 -1.52344,0.33203 -3.69141,0.33203 z m -0.87891,-19.47265 q -2.57812,0 -4.12109,1.67968 -1.52344,1.67969 -1.79688,4.64844 l 11.19141,0 q 0,-3.0664 -1.36719,-4.6875 -1.36718,-1.64062 -3.90625,-1.64062 z" />
      </g>
      <rect
         style="opacity:1;fill:none;fill-opacity:0.99215686;stroke:#ffffff;stroke-width:2;stroke-linecap:round;stroke-linejoin:round;stroke-miterlimit:4;stroke-dasharray:none;stroke-dashoffset:200;stroke-opacity:1"
         id="rect5669"
         width="140.14598"
         height="77.413971"
         x="531.70117"
         y="385.05396"
         ry="10"
         rx="10" />
      <g
         id="flowRoot5671"
         style="font-style:normal;font-weight:normal;font-size:40px;line-height:224.00000095%;font-family:sans-serif;letter-spacing:11.77000046px;word-spacing:0px;fill:#ffffff;fill-opacity:1;stroke:none;stroke-width:1px;stroke-linecap:butt;stroke-linejoin:miter;stroke-opacity:1"
         transform="translate(383.77413,215.50894)">
        <path
           inkscape:connector-curvature="0"
           id="path8303"
           style="font-style:normal;font-variant:normal;font-weight:normal;font-stretch:normal;font-family:'Open Sans';-inkscape-font-specification:'Open Sans';text-align:center;letter-spacing:0px;text-anchor:middle;fill:#ffffff;fill-opacity:1"
           d="m 192.67773,223.25201 -3.78906,0 -15.60547,-23.96485 -0.15625,0 q 0.3125,4.21875 0.3125,7.73438 l 0,16.23047 -3.0664,0 0,-28.55469 3.75,0 15.5664,23.86719 0.15625,0 q -0.0391,-0.52735 -0.17578,-3.37891 -0.13672,-2.87109 -0.0976,-4.10156 l 0,-16.38672 3.10546,0 0,28.55469 z" />
        <path
           inkscape:connector-curvature="0"
           id="path8305"
           style="font-style:normal;font-variant:normal;font-weight:normal;font-stretch:normal;font-family:'Open Sans';-inkscape-font-specification:'Open Sans';text-align:center;letter-spacing:0px;text-anchor:middle;fill:#ffffff;fill-opacity:1"
           d="m 218.51758,212.52935 q 0,5.23438 -2.63672,8.1836 -2.63672,2.92968 -7.28516,2.92968 -2.87109,0 -5.09765,-1.34765 -2.22657,-1.34766 -3.4375,-3.86719 -1.21094,-2.51953 -1.21094,-5.89844 0,-5.23437 2.61719,-8.14453 2.61718,-2.92969 7.26562,-2.92969 4.49219,0 7.12891,2.98828 2.65625,2.98829 2.65625,8.08594 z m -16.3086,0 q 0,4.10156 1.64063,6.25 1.64062,2.14844 4.82422,2.14844 3.18359,0 4.82422,-2.12891 1.66015,-2.14843 1.66015,-6.26953 0,-4.08203 -1.66015,-6.1914 -1.64063,-2.12891 -4.86328,-2.12891 -3.1836,0 -4.80469,2.08984 -1.6211,2.08985 -1.6211,6.23047 z" />
        <path
           inkscape:connector-curvature="0"
           id="path8307"
           style="font-style:normal;font-variant:normal;font-weight:normal;font-stretch:normal;font-family:'Open Sans';-inkscape-font-specification:'Open Sans';text-align:center;letter-spacing:0px;text-anchor:middle;fill:#ffffff;fill-opacity:1"
           d="m 238.75195,220.38091 -0.17578,0 q -2.24609,3.26172 -6.71875,3.26172 -4.19922,0 -6.54297,-2.87109 -2.32422,-2.87109 -2.32422,-8.16406 0,-5.29297 2.34375,-8.22266 2.34375,-2.92969 6.52344,-2.92969 4.35547,0 6.67969,3.16407 l 0.25391,0 -0.13672,-1.54297 -0.0781,-1.50391 0,-8.71094 3.24219,0 0,30.39063 -2.63672,0 -0.42969,-2.8711 z m -6.48437,0.54688 q 3.32031,0 4.80469,-1.79688 1.5039,-1.8164 1.5039,-5.83984 l 0,-0.68359 q 0,-4.55078 -1.52344,-6.48438 -1.5039,-1.95312 -4.82421,-1.95312 -2.85157,0 -4.375,2.22656 -1.50391,2.20703 -1.50391,6.25 0,4.10156 1.50391,6.19141 1.5039,2.08984 4.41406,2.08984 z" />
        <path
           inkscape:connector-curvature="0"
           id="path8309"
           style="font-style:normal;font-variant:normal;font-weight:normal;font-stretch:normal;font-family:'Open Sans';-inkscape-font-specification:'Open Sans';text-align:center;letter-spacing:0px;text-anchor:middle;fill:#ffffff;fill-opacity:1"
           d="m 257.75586,223.64263 q -4.74609,0 -7.5,-2.89062 -2.73438,-2.89063 -2.73438,-8.02735 0,-5.17578 2.53907,-8.22265 2.55859,-3.04688 6.85547,-3.04688 4.02343,0 6.36718,2.65625 2.34375,2.63672 2.34375,6.97266 l 0,2.05078 -14.74609,0 q 0.0977,3.76953 1.89453,5.72266 1.81641,1.95312 5.09766,1.95312 3.45703,0 6.83593,-1.44531 l 0,2.89062 q -1.71875,0.74219 -3.26171,1.05469 -1.52344,0.33203 -3.69141,0.33203 z m -0.87891,-19.47265 q -2.57812,0 -4.12109,1.67968 -1.52344,1.67969 -1.79688,4.64844 l 11.19141,0 q 0,-3.0664 -1.36719,-4.6875 -1.36718,-1.64062 -3.90625,-1.64062 z" />
      </g>
      <path
         sodipodi:nodetypes="cc"
         inkscape:connector-curvature="0"
         id="path5713"
         d="m 211.04418,204.81267 0,40.80988"
         style="fill:none;fill-rule:evenodd;stroke:#ffffff;stroke-width:2;stroke-linecap:butt;stroke-linejoin:miter;stroke-miterlimit:4;stroke-dasharray:none;stroke-opacity:1;marker-end:url(#Arrow2Mend)" />
      <path
         style="fill:none;fill-rule:evenodd;stroke:#ffffff;stroke-width:2;stroke-linecap:butt;stroke-linejoin:miter;stroke-miterlimit:4;stroke-dasharray:none;stroke-opacity:1;marker-end:url(#marker6215)"
         d="m 211.04418,331.04486 0,40.80988"
         id="path6213"
         inkscape:connector-curvature="0"
         sodipodi:nodetypes="cc" />
      <path
         sodipodi:nodetypes="cc"
         inkscape:connector-curvature="0"
         id="path5713-7"
         d="m 211.04418,204.81267 193.92705,50.7058"
         style="fill:none;fill-rule:evenodd;stroke:#ffffff;stroke-width:2;stroke-linecap:butt;stroke-linejoin:miter;stroke-miterlimit:4;stroke-dasharray:none;stroke-opacity:1;marker-end:url(#Arrow2Mend-3)" />
      <path
         sodipodi:nodetypes="cc"
         inkscape:connector-curvature="0"
         id="path5713-5"
         d="m 406.40913,333.41271 0,40.80988"
         style="fill:none;fill-rule:evenodd;stroke:#ffffff;stroke-width:2;stroke-linecap:butt;stroke-linejoin:miter;stroke-miterlimit:4;stroke-dasharray:none;stroke-opacity:1;marker-end:url(#Arrow2Mend-5)" />
      <path
         sodipodi:nodetypes="cc"
         inkscape:connector-curvature="0"
         id="path5713-9"
         d="m 406.40913,332.93244 212.71641,52.12153"
         style="fill:none;fill-rule:evenodd;stroke:#ffffff;stroke-width:2;stroke-linecap:butt;stroke-linejoin:miter;stroke-miterlimit:4;stroke-dasharray:none;stroke-opacity:1;marker-end:url(#Arrow2Mend-6)" />
      <g
         id="flowRoot8120"
         style="font-style:normal;font-weight:normal;font-size:23.97908783px;line-height:224.00000095%;font-family:sans-serif;letter-spacing:7.05584669px;word-spacing:0px;fill:#000000;fill-opacity:1;stroke:none;stroke-width:1px;stroke-linecap:butt;stroke-linejoin:miter;stroke-opacity:1"
         transform="translate(-189.42349,-47.672077)">
        <path
           inkscape:connector-curvature="0"
           id="path8213"
           style="letter-spacing:0px;fill:#ffffff"
           d="m 365.87479,146.19399 0,6.5685 2.97397,0 q 1.6509,0 2.55246,-0.85473 0.90156,-0.85472 0.90156,-2.43537 0,-1.56895 -0.90156,-2.42367 -0.90156,-0.85473 -2.55246,-0.85473 l -2.97397,0 z m -2.36512,-1.94361 5.33909,0 q 2.93884,0 4.43754,1.33477 1.5104,1.32307 1.5104,3.88724 0,2.58758 -1.5104,3.91065 -1.4987,1.32306 -4.43754,1.32306 l -2.97397,0 0,7.02513 -2.36512,0 0,-17.48085 z" />
        <path
           inkscape:connector-curvature="0"
           id="path8215"
           style="letter-spacing:0px;fill:#ffffff"
           d="m 382.77021,155.13932 q -2.611,0 -3.61794,0.59713 -1.00693,0.59714 -1.00693,2.03729 0,1.14744 0.74935,1.82653 0.76105,0.66739 2.0607,0.66739 1.79141,0 2.86859,-1.26452 1.0889,-1.27623 1.0889,-3.38377 l 0,-0.48005 -2.14267,0 z m 4.29704,-0.88985 0,7.48176 -2.15437,0 0,-1.99046 q -0.73764,1.19428 -1.83825,1.76799 -1.1006,0.56201 -2.69296,0.56201 -2.01387,0 -3.20814,-1.12402 -1.18256,-1.13572 -1.18256,-3.03251 0,-2.21291 1.47527,-3.33693 1.48699,-1.12402 4.42583,-1.12402 l 3.02081,0 0,-0.21075 q 0,-1.48699 -0.98352,-2.29488 -0.97181,-0.8196 -2.7398,-0.8196 -1.12402,0 -2.1895,0.2693 -1.06547,0.2693 -2.04899,0.80789 l 0,-1.99045 q 1.18256,-0.45664 2.29487,-0.6791 1.11231,-0.23417 2.16608,-0.23417 2.84518,0 4.2502,1.47528 1.40503,1.47527 1.40503,4.47266 z" />
        <path
           inkscape:connector-curvature="0"
           id="path8217"
           style="letter-spacing:0px;fill:#ffffff"
           d="m 399.11533,150.63153 q -0.36296,-0.21075 -0.79618,-0.30442 -0.4215,-0.10538 -0.93668,-0.10538 -1.82653,0 -2.81005,1.19427 -0.97181,1.18257 -0.97181,3.40719 l 0,6.90804 -2.16608,0 0,-13.11357 2.16608,0 0,2.03729 q 0.6791,-1.19427 1.76799,-1.76799 1.0889,-0.58543 2.64613,-0.58543 0.22246,0 0.49176,0.0351 0.2693,0.0234 0.59714,0.082 l 0.0117,2.21291 z" />
        <path
           inkscape:connector-curvature="0"
           id="path8219"
           style="letter-spacing:0px;fill:#ffffff"
           d="m 412.1001,154.63585 0,1.05377 -9.90542,0 q 0.1405,2.22462 1.33477,3.39548 1.20598,1.15914 3.34864,1.15914 1.24111,0 2.40025,-0.30442 1.17086,-0.30442 2.31829,-0.91327 l 0,2.03729 q -1.15914,0.49176 -2.37683,0.74935 -1.21769,0.25758 -2.4705,0.25758 -3.13789,0 -4.97613,-1.82653 -1.82653,-1.82653 -1.82653,-4.941 0,-3.21985 1.73286,-5.10492 1.74457,-1.89679 4.69513,-1.89679 2.64613,0 4.17994,1.70945 1.54553,1.69774 1.54553,4.62487 z m -2.15437,-0.63226 q -0.0234,-1.76799 -0.99523,-2.82176 -0.9601,-1.05377 -2.55246,-1.05377 -1.80311,0 -2.89201,1.01865 -1.07718,1.01864 -1.2411,2.86859 l 7.6808,-0.0117 z" />
        <path
           inkscape:connector-curvature="0"
           id="path8221"
           style="letter-spacing:0px;fill:#ffffff"
           d="m 426.53673,153.81625 0,7.91498 -2.15437,0 0,-7.84473 q 0,-1.86165 -0.72593,-2.78663 -0.72593,-0.92497 -2.17779,-0.92497 -1.74457,0 -2.7515,1.11231 -1.00694,1.11231 -1.00694,3.03251 l 0,7.41151 -2.16608,0 0,-13.11357 2.16608,0 0,2.03729 q 0.77277,-1.18256 1.81483,-1.76799 1.05377,-0.58543 2.42366,-0.58543 2.25975,0 3.4189,1.40503 1.15914,1.39331 1.15914,4.10969 z" />
        <path
           inkscape:connector-curvature="0"
           id="path8223"
           style="letter-spacing:0px;fill:#ffffff"
           d="m 432.98814,144.89435 0,3.72331 4.43753,0 0,1.67432 -4.43753,0 0,7.1188 q 0,1.60406 0.43321,2.0607 0.44493,0.45663 1.79141,0.45663 l 2.21291,0 0,1.80312 -2.21291,0 q -2.49392,0 -3.44231,-0.92498 -0.94839,-0.93668 -0.94839,-3.39547 l 0,-7.1188 -1.58066,0 0,-1.67432 1.58066,0 0,-3.72331 2.16608,0 z" />
      </g>
      <g
         id="flowRoot8120-1"
         style="font-style:normal;font-weight:normal;font-size:23.97908783px;line-height:224.00000095%;font-family:sans-serif;letter-spacing:7.05584669px;word-spacing:0px;fill:#000000;fill-opacity:1;stroke:none;stroke-width:1px;stroke-linecap:butt;stroke-linejoin:miter;stroke-opacity:1"
         transform="translate(-2.8107272,76.79819)">
        <path
           inkscape:connector-curvature="0"
           id="path8265"
           style="letter-spacing:0px;fill:#ffffff"
           d="m 376.59981,145.59686 0,2.49392 q -1.19427,-1.11231 -2.55246,-1.66261 -1.34648,-0.55031 -2.86859,-0.55031 -2.99739,0 -4.58975,1.83824 -1.59236,1.82654 -1.59236,5.29226 0,3.45402 1.59236,5.29226 1.59236,1.82654 4.58975,1.82654 1.52211,0 2.86859,-0.55031 1.35819,-0.5503 2.55246,-1.66261 l 0,2.4705 q -1.2411,0.84302 -2.63442,1.26453 -1.38161,0.4215 -2.92713,0.4215 -3.9692,0 -6.25236,-2.42366 -2.28317,-2.43538 -2.28317,-6.63875 0,-4.21507 2.28317,-6.63874 2.28316,-2.43537 6.25236,-2.43537 1.56894,0 2.95055,0.4215 1.39331,0.4098 2.611,1.24111 z" />
        <path
           inkscape:connector-curvature="0"
           id="path8267"
           style="letter-spacing:0px;fill:#ffffff"
           d="m 391.08328,153.81625 0,7.91498 -2.15438,0 0,-7.84473 q 0,-1.86165 -0.72592,-2.78663 -0.72593,-0.92497 -2.17779,-0.92497 -1.74458,0 -2.75151,1.11231 -1.00693,1.11231 -1.00693,3.03251 l 0,7.41151 -2.16608,0 0,-18.21849 2.16608,0 0,7.14221 q 0.77276,-1.18256 1.81482,-1.76799 1.05377,-0.58543 2.42367,-0.58543 2.25975,0 3.41889,1.40503 1.15915,1.39331 1.15915,4.10969 z" />
        <path
           inkscape:connector-curvature="0"
           id="path8269"
           style="letter-spacing:0px;fill:#ffffff"
           d="m 395.40373,148.61766 2.15437,0 0,13.11357 -2.15437,0 0,-13.11357 z m 0,-5.10492 2.15437,0 0,2.72809 -2.15437,0 0,-2.72809 z" />
        <path
           inkscape:connector-curvature="0"
           id="path8271"
           style="letter-spacing:0px;fill:#ffffff"
           d="m 402.05418,143.51274 2.15437,0 0,18.21849 -2.15437,0 0,-18.21849 z" />
        <path
           inkscape:connector-curvature="0"
           id="path8273"
           style="letter-spacing:0px;fill:#ffffff"
           d="m 417.33382,150.60811 0,-7.09537 2.15437,0 0,18.21849 -2.15437,0 0,-1.96704 q -0.6791,1.17086 -1.72116,1.74457 -1.03035,0.56201 -2.48221,0.56201 -2.37683,0 -3.87552,-1.89678 -1.48699,-1.89678 -1.48699,-4.98784 0,-3.09105 1.48699,-4.98783 1.49869,-1.89679 3.87552,-1.89679 1.45186,0 2.48221,0.57372 1.04206,0.56201 1.72116,1.73286 z m -7.34126,4.57804 q 0,2.37684 0.97181,3.73503 0.98352,1.34648 2.69297,1.34648 1.70944,0 2.69296,-1.34648 0.98352,-1.35819 0.98352,-3.73503 0,-2.37683 -0.98352,-3.72331 -0.98352,-1.35819 -2.69296,-1.35819 -1.70945,0 -2.69297,1.35819 -0.97181,1.34648 -0.97181,3.72331 z" />
        <path
           inkscape:connector-curvature="0"
           id="path8275"
           style="letter-spacing:0px;fill:#ffffff"
           d="m 431.52457,150.63153 q -0.36296,-0.21075 -0.79618,-0.30442 -0.42151,-0.10538 -0.93668,-0.10538 -1.82653,0 -2.81005,1.19427 -0.97181,1.18257 -0.97181,3.40719 l 0,6.90804 -2.16608,0 0,-13.11357 2.16608,0 0,2.03729 q 0.67909,-1.19427 1.76799,-1.76799 1.08889,-0.58543 2.64613,-0.58543 0.22246,0 0.49176,0.0351 0.26929,0.0234 0.59713,0.082 l 0.0117,2.21291 z" />
        <path
           inkscape:connector-curvature="0"
           id="path8277"
           style="letter-spacing:0px;fill:#ffffff"
           d="m 444.50934,154.63585 0,1.05377 -9.90542,0 q 0.1405,2.22462 1.33477,3.39548 1.20598,1.15914 3.34864,1.15914 1.24111,0 2.40025,-0.30442 1.17086,-0.30442 2.3183,-0.91327 l 0,2.03729 q -1.15915,0.49176 -2.37684,0.74935 -1.21769,0.25758 -2.4705,0.25758 -3.13789,0 -4.97613,-1.82653 -1.82653,-1.82653 -1.82653,-4.941 0,-3.21985 1.73286,-5.10492 1.74458,-1.89679 4.69513,-1.89679 2.64613,0 4.17995,1.70945 1.54552,1.69774 1.54552,4.62487 z m -2.15437,-0.63226 q -0.0234,-1.76799 -0.99522,-2.82176 -0.9601,-1.05377 -2.55247,-1.05377 -1.80311,0 -2.89201,1.01865 -1.07718,1.01864 -1.2411,2.86859 l 7.6808,-0.0117 z" />
        <path
           inkscape:connector-curvature="0"
           id="path8279"
           style="letter-spacing:0px;fill:#ffffff"
           d="m 458.94597,153.81625 0,7.91498 -2.15438,0 0,-7.84473 q 0,-1.86165 -0.72592,-2.78663 -0.72593,-0.92497 -2.17779,-0.92497 -1.74458,0 -2.75151,1.11231 -1.00693,1.11231 -1.00693,3.03251 l 0,7.41151 -2.16608,0 0,-13.11357 2.16608,0 0,2.03729 q 0.77276,-1.18256 1.81482,-1.76799 1.05377,-0.58543 2.42367,-0.58543 2.25975,0 3.41889,1.40503 1.15915,1.39331 1.15915,4.10969 z" />
      </g>
    </g>
  </g>
</svg>
