<?xml version="1.0" encoding="UTF-8" standalone="no"?>
<!-- Created with Inkscape (http://www.inkscape.org/) -->

<svg
   xmlns:dc="http://purl.org/dc/elements/1.1/"
   xmlns:cc="http://creativecommons.org/ns#"
   xmlns:rdf="http://www.w3.org/1999/02/22-rdf-syntax-ns#"
   xmlns:svg="http://www.w3.org/2000/svg"
   xmlns="http://www.w3.org/2000/svg"
   xmlns:sodipodi="http://sodipodi.sourceforge.net/DTD/sodipodi-0.dtd"
   xmlns:inkscape="http://www.inkscape.org/namespaces/inkscape"
   width="157.6067mm"
   height="113.2721mm"
   viewBox="0 0 558.44895 401.35785"
   id="svg9282"
   version="1.1"
   inkscape:version="0.91 r13725"
   sodipodi:docname="scenes-02.svg">
  <defs
     id="defs9284">
    <marker
       inkscape:isstock="true"
       style="overflow:visible"
       id="marker6215-0"
       refX="0"
       refY="0"
       orient="auto"
       inkscape:stockid="Arrow2Mend">
      <path
         transform="scale(-0.6,-0.6)"
         d="M 8.7185878,4.0337352 -2.2072895,0.01601326 8.7185884,-4.0017078 c -1.7454984,2.3720609 -1.7354408,5.6174519 -6e-7,8.035443 z"
         style="fill:#ffffff;fill-opacity:1;fill-rule:evenodd;stroke:#ffffff;stroke-width:0.625;stroke-linejoin:round;stroke-opacity:1"
         id="path6217-6"
         inkscape:connector-curvature="0" />
    </marker>
  </defs>
  <sodipodi:namedview
     id="base"
     pagecolor="#ffffff"
     bordercolor="#666666"
     borderopacity="1.0"
     inkscape:pageopacity="0.0"
     inkscape:pageshadow="2"
     inkscape:zoom="0.52977766"
     inkscape:cx="477.92088"
     inkscape:cy="-60.332234"
     inkscape:document-units="px"
     inkscape:current-layer="layer1"
     showgrid="false"
     fit-margin-top="0"
     fit-margin-left="0"
     fit-margin-right="0"
     fit-margin-bottom="0"
     inkscape:window-width="1366"
     inkscape:window-height="713"
     inkscape:window-x="0"
     inkscape:window-y="27"
     inkscape:window-maximized="1" />
  <metadata
     id="metadata9287">
    <rdf:RDF>
      <cc:Work
         rdf:about="">
        <dc:format>image/svg+xml</dc:format>
        <dc:type
           rdf:resource="http://purl.org/dc/dcmitype/StillImage" />
        <dc:title></dc:title>
      </cc:Work>
    </rdf:RDF>
  </metadata>
  <g
     inkscape:label="Layer 1"
     inkscape:groupmode="layer"
     id="layer1"
     transform="translate(22.76982,-280.16043)">
    <path
       style="opacity:1;fill:none;fill-opacity:0.99215686;stroke:#ff4f00;stroke-width:2;stroke-linecap:round;stroke-linejoin:round;stroke-miterlimit:4;stroke-dasharray:none;stroke-dashoffset:200;stroke-opacity:1"
       d="m -1.2245542,343.68124 120.1459742,0 c 5.54,0 10,4.46 10,10.00001 l 0,57.41397 c 0,5.54 -4.46,10 -10,10 l -120.1459742,0 c -5.5399997,0 -9.9999998,-4.46 -9.9999998,-10 l 0,-57.41397 c 0,-5.54001 4.4600001,-10.00001 9.9999998,-10.00001 z"
       id="rect5600-0"
       inkscape:connector-curvature="0" />
    <path
       inkscape:connector-curvature="0"
       id="path8244-3"
       style="font-style:normal;font-variant:normal;font-weight:normal;font-stretch:normal;font-size:medium;line-height:224.00000095%;font-family:'Open Sans';-inkscape-font-specification:'Open Sans';text-align:center;letter-spacing:0px;word-spacing:0px;text-anchor:middle;fill:#ff4f00;fill-opacity:1;stroke:none;stroke-width:1px;stroke-linecap:butt;stroke-linejoin:miter;stroke-opacity:1"
       d="m 33.526116,397.38823 -3.789,0 -15.60548,-23.96484 -0.15625,0 q 0.3125,4.21875 0.3125,7.73437 l 0,16.23047 -3.0664,0 0,-28.55469 3.75,0 15.56643,23.86719 0.1562,0 q -0.039,-0.52735 -0.1758,-3.3789 -0.1367,-2.8711 -0.098,-4.10157 l 0,-16.38672 3.1055,0 0,28.55469 z" />
    <path
       inkscape:connector-curvature="0"
       id="path8246-7"
       style="font-style:normal;font-variant:normal;font-weight:normal;font-stretch:normal;font-size:medium;line-height:224.00000095%;font-family:'Open Sans';-inkscape-font-specification:'Open Sans';text-align:center;letter-spacing:0px;word-spacing:0px;text-anchor:middle;fill:#ff4f00;fill-opacity:1;stroke:none;stroke-width:1px;stroke-linecap:butt;stroke-linejoin:miter;stroke-opacity:1"
       d="m 59.366016,386.66557 q 0,5.23438 -2.6367,8.1836 -2.6367,2.92968 -7.2852,2.92968 -2.8711,0 -5.0976,-1.34765 -2.2266,-1.34766 -3.4375,-3.86719 -1.211,-2.51953 -1.211,-5.89843 0,-5.23438 2.6172,-8.14454 2.6172,-2.92968 7.2656,-2.92968 4.4922,0 7.129,2.98828 2.6562,2.98829 2.6562,8.08594 z m -16.3086,0 q 0,4.10156 1.6406,6.25 1.6406,2.14844 4.8242,2.14844 3.1836,0 4.8243,-2.12891 1.6601,-2.14843 1.6601,-6.26953 0,-4.08203 -1.6601,-6.1914 -1.6407,-2.12891 -4.8633,-2.12891 -3.1836,0 -4.8047,2.08985 -1.6211,2.08985 -1.6211,6.23047 z" />
    <path
       inkscape:connector-curvature="0"
       id="path8248-5"
       style="font-style:normal;font-variant:normal;font-weight:normal;font-stretch:normal;font-size:medium;line-height:224.00000095%;font-family:'Open Sans';-inkscape-font-specification:'Open Sans';text-align:center;letter-spacing:0px;word-spacing:0px;text-anchor:middle;fill:#ff4f00;fill-opacity:1;stroke:none;stroke-width:1px;stroke-linecap:butt;stroke-linejoin:miter;stroke-opacity:1"
       d="m 79.600416,394.51713 -0.1758,0 q -2.2461,3.26172 -6.7188,3.26172 -4.1992,0 -6.5429,-2.87109 -2.3242,-2.87109 -2.3242,-8.16406 0,-5.29297 2.3437,-8.22266 2.3438,-2.92969 6.5234,-2.92969 4.3555,0 6.6797,3.16407 l 0.2539,0 -0.1367,-1.54297 -0.078,-1.50391 0,-8.71093 3.2422,0 0,30.39063 -2.6367,0 -0.4297,-2.8711 z m -6.4844,0.54688 q 3.3203,0 4.8047,-1.79688 1.5039,-1.8164 1.5039,-5.83984 l 0,-0.68359 q 0,-4.55078 -1.5234,-6.48438 -1.5039,-1.95312 -4.8243,-1.95312 -2.8515,0 -4.375,2.22656 -1.5039,2.20703 -1.5039,6.25 0,4.10156 1.5039,6.19141 1.5039,2.08984 4.4141,2.08984 z" />
    <path
       inkscape:connector-curvature="0"
       id="path8250-9"
       style="font-style:normal;font-variant:normal;font-weight:normal;font-stretch:normal;font-size:medium;line-height:224.00000095%;font-family:'Open Sans';-inkscape-font-specification:'Open Sans';text-align:center;letter-spacing:0px;word-spacing:0px;text-anchor:middle;fill:#ff4f00;fill-opacity:1;stroke:none;stroke-width:1px;stroke-linecap:butt;stroke-linejoin:miter;stroke-opacity:1"
       d="m 98.60432,397.77885 q -4.7461,0 -7.5,-2.89062 -2.7344,-2.89063 -2.7344,-8.02735 0,-5.17578 2.5391,-8.22265 2.5586,-3.04688 6.8554,-3.04688 4.0235,0 6.3672,2.65625 2.3438,2.63672 2.3438,6.97266 l 0,2.05078 -14.7461,0 q 0.098,3.76953 1.8945,5.72266 1.8164,1.95312 5.0977,1.95312 3.457,0 6.8359,-1.44531 l 0,2.89062 q -1.7187,0.74219 -3.2617,1.05469 -1.5234,0.33203 -3.6914,0.33203 z m -0.8789,-19.47265 q -2.5781,0 -4.1211,1.67968 -1.5235,1.67969 -1.7969,4.64844 l 11.1914,0 q 0,-3.0664 -1.3672,-4.6875 -1.3672,-1.64062 -3.9062,-1.64062 z" />
    <path
       style="opacity:1;fill:none;fill-opacity:0.99215686;stroke:#ff4f00;stroke-width:2;stroke-linecap:round;stroke-linejoin:round;stroke-miterlimit:4;stroke-dasharray:none;stroke-dashoffset:200;stroke-opacity:1"
       d="m -1.2245542,469.91344 120.1459742,0 c 5.54,0 10,4.46 10,10 l 0,57.41397 c 0,5.54 -4.46,10 -10,10 l -120.1459742,0 c -5.5399997,0 -9.9999998,-4.46 -9.9999998,-10 l 0,-57.41397 c 0,-5.54 4.4600001,-10 9.9999998,-10 z"
       id="rect5633-6"
       inkscape:connector-curvature="0" />
    <path
       inkscape:connector-curvature="0"
       id="path8235-2"
       style="font-style:normal;font-variant:normal;font-weight:normal;font-stretch:normal;font-size:medium;line-height:224.00000095%;font-family:'Open Sans';-inkscape-font-specification:'Open Sans';text-align:center;letter-spacing:0px;word-spacing:0px;text-anchor:middle;fill:#ff4f00;fill-opacity:1;stroke:none;stroke-width:1px;stroke-linecap:butt;stroke-linejoin:miter;stroke-opacity:1"
       d="m 33.526116,523.62042 -3.789,0 -15.60548,-23.96485 -0.15625,0 q 0.3125,4.21875 0.3125,7.73438 l 0,16.23047 -3.0664,0 0,-28.55469 3.75,0 15.56643,23.86719 0.1562,0 q -0.039,-0.52735 -0.1758,-3.37891 -0.1367,-2.87109 -0.098,-4.10156 l 0,-16.38672 3.1055,0 0,28.55469 z" />
    <path
       inkscape:connector-curvature="0"
       id="path8237-9"
       style="font-style:normal;font-variant:normal;font-weight:normal;font-stretch:normal;font-size:medium;line-height:224.00000095%;font-family:'Open Sans';-inkscape-font-specification:'Open Sans';text-align:center;letter-spacing:0px;word-spacing:0px;text-anchor:middle;fill:#ff4f00;fill-opacity:1;stroke:none;stroke-width:1px;stroke-linecap:butt;stroke-linejoin:miter;stroke-opacity:1"
       d="m 59.366016,512.89776 q 0,5.23438 -2.6367,8.1836 -2.6367,2.92968 -7.2852,2.92968 -2.8711,0 -5.0976,-1.34765 -2.2266,-1.34766 -3.4375,-3.86719 -1.211,-2.51953 -1.211,-5.89844 0,-5.23437 2.6172,-8.14453 2.6172,-2.92969 7.2656,-2.92969 4.4922,0 7.129,2.98828 2.6562,2.98829 2.6562,8.08594 z m -16.3086,0 q 0,4.10156 1.6406,6.25 1.6406,2.14844 4.8242,2.14844 3.1836,0 4.8243,-2.12891 1.6601,-2.14843 1.6601,-6.26953 0,-4.08203 -1.6601,-6.1914 -1.6407,-2.12891 -4.8633,-2.12891 -3.1836,0 -4.8047,2.08984 -1.6211,2.08985 -1.6211,6.23047 z" />
    <path
       inkscape:connector-curvature="0"
       id="path8239-3"
       style="font-style:normal;font-variant:normal;font-weight:normal;font-stretch:normal;font-size:medium;line-height:224.00000095%;font-family:'Open Sans';-inkscape-font-specification:'Open Sans';text-align:center;letter-spacing:0px;word-spacing:0px;text-anchor:middle;fill:#ff4f00;fill-opacity:1;stroke:none;stroke-width:1px;stroke-linecap:butt;stroke-linejoin:miter;stroke-opacity:1"
       d="m 79.600416,520.74932 -0.1758,0 q -2.2461,3.26172 -6.7188,3.26172 -4.1992,0 -6.5429,-2.87109 -2.3242,-2.87109 -2.3242,-8.16406 0,-5.29297 2.3437,-8.22266 2.3438,-2.92969 6.5234,-2.92969 4.3555,0 6.6797,3.16407 l 0.2539,0 -0.1367,-1.54297 -0.078,-1.50391 0,-8.71094 3.2422,0 0,30.39063 -2.6367,0 -0.4297,-2.8711 z m -6.4844,0.54688 q 3.3203,0 4.8047,-1.79688 1.5039,-1.8164 1.5039,-5.83984 l 0,-0.68359 q 0,-4.55078 -1.5234,-6.48438 -1.5039,-1.95312 -4.8243,-1.95312 -2.8515,0 -4.375,2.22656 -1.5039,2.20703 -1.5039,6.25 0,4.10156 1.5039,6.19141 1.5039,2.08984 4.4141,2.08984 z" />
    <path
       inkscape:connector-curvature="0"
       id="path8241-1"
       style="font-style:normal;font-variant:normal;font-weight:normal;font-stretch:normal;font-size:medium;line-height:224.00000095%;font-family:'Open Sans';-inkscape-font-specification:'Open Sans';text-align:center;letter-spacing:0px;word-spacing:0px;text-anchor:middle;fill:#ff4f00;fill-opacity:1;stroke:none;stroke-width:1px;stroke-linecap:butt;stroke-linejoin:miter;stroke-opacity:1"
       d="m 98.60432,524.01104 q -4.7461,0 -7.5,-2.89062 -2.7344,-2.89063 -2.7344,-8.02735 0,-5.17578 2.5391,-8.22265 2.5586,-3.04688 6.8554,-3.04688 4.0235,0 6.3672,2.65625 2.3438,2.63672 2.3438,6.97266 l 0,2.05078 -14.7461,0 q 0.098,3.76953 1.8945,5.72266 1.8164,1.95312 5.0977,1.95312 3.457,0 6.8359,-1.44531 l 0,2.89062 q -1.7187,0.74219 -3.2617,1.05469 -1.5234,0.33203 -3.6914,0.33203 z m -0.8789,-19.47265 q -2.5781,0 -4.1211,1.67968 -1.5235,1.67969 -1.7969,4.64844 l 11.1914,0 q 0,-3.0664 -1.3672,-4.6875 -1.3672,-1.64062 -3.9062,-1.64062 z" />
    <path
       style="opacity:1;fill:none;fill-opacity:0.99215686;stroke:#ff4f00;stroke-width:2;stroke-linecap:round;stroke-linejoin:round;stroke-miterlimit:4;stroke-dasharray:none;stroke-dashoffset:200;stroke-opacity:1"
       d="m -1.2245542,594.72997 120.1459742,0 c 5.54,0 10,4.46 10,10 l 0,57.41397 c 0,5.54 -4.46,10 -10,10 l -120.1459742,0 c -5.5399997,0 -9.9999998,-4.46 -9.9999998,-10 l 0,-57.41397 c 0,-5.54 4.4600001,-10 9.9999998,-10 z"
       id="rect5645-9"
       inkscape:connector-curvature="0" />
    <path
       inkscape:connector-curvature="0"
       id="path8226-7"
       style="font-style:normal;font-variant:normal;font-weight:normal;font-stretch:normal;font-size:medium;line-height:224.00000095%;font-family:'Open Sans';-inkscape-font-specification:'Open Sans';text-align:center;letter-spacing:0px;word-spacing:0px;text-anchor:middle;fill:#ff4f00;fill-opacity:1;stroke:none;stroke-width:1px;stroke-linecap:butt;stroke-linejoin:miter;stroke-opacity:1"
       d="m 33.526116,648.43695 -3.789,0 -15.60548,-23.96485 -0.15625,0 q 0.3125,4.21875 0.3125,7.73438 l 0,16.23047 -3.0664,0 0,-28.55469 3.75,0 15.56643,23.86719 0.1562,0 q -0.039,-0.52735 -0.1758,-3.37891 -0.1367,-2.87109 -0.098,-4.10156 l 0,-16.38672 3.1055,0 0,28.55469 z" />
    <path
       inkscape:connector-curvature="0"
       id="path8228-8"
       style="font-style:normal;font-variant:normal;font-weight:normal;font-stretch:normal;font-size:medium;line-height:224.00000095%;font-family:'Open Sans';-inkscape-font-specification:'Open Sans';text-align:center;letter-spacing:0px;word-spacing:0px;text-anchor:middle;fill:#ff4f00;fill-opacity:1;stroke:none;stroke-width:1px;stroke-linecap:butt;stroke-linejoin:miter;stroke-opacity:1"
       d="m 59.366016,637.71429 q 0,5.23438 -2.6367,8.1836 -2.6367,2.92968 -7.2852,2.92968 -2.8711,0 -5.0976,-1.34765 -2.2266,-1.34766 -3.4375,-3.86719 -1.211,-2.51953 -1.211,-5.89844 0,-5.23437 2.6172,-8.14453 2.6172,-2.92969 7.2656,-2.92969 4.4922,0 7.129,2.98828 2.6562,2.98829 2.6562,8.08594 z m -16.3086,0 q 0,4.10156 1.6406,6.25 1.6406,2.14844 4.8242,2.14844 3.1836,0 4.8243,-2.12891 1.6601,-2.14843 1.6601,-6.26953 0,-4.08203 -1.6601,-6.1914 -1.6407,-2.12891 -4.8633,-2.12891 -3.1836,0 -4.8047,2.08984 -1.6211,2.08985 -1.6211,6.23047 z" />
    <path
       inkscape:connector-curvature="0"
       id="path8230-4"
       style="font-style:normal;font-variant:normal;font-weight:normal;font-stretch:normal;font-size:medium;line-height:224.00000095%;font-family:'Open Sans';-inkscape-font-specification:'Open Sans';text-align:center;letter-spacing:0px;word-spacing:0px;text-anchor:middle;fill:#ff4f00;fill-opacity:1;stroke:none;stroke-width:1px;stroke-linecap:butt;stroke-linejoin:miter;stroke-opacity:1"
       d="m 79.600416,645.56585 -0.1758,0 q -2.2461,3.26172 -6.7188,3.26172 -4.1992,0 -6.5429,-2.87109 -2.3242,-2.87109 -2.3242,-8.16406 0,-5.29297 2.3437,-8.22266 2.3438,-2.92969 6.5234,-2.92969 4.3555,0 6.6797,3.16407 l 0.2539,0 -0.1367,-1.54297 -0.078,-1.50391 0,-8.71094 3.2422,0 0,30.39063 -2.6367,0 -0.4297,-2.8711 z m -6.4844,0.54688 q 3.3203,0 4.8047,-1.79688 1.5039,-1.8164 1.5039,-5.83984 l 0,-0.68359 q 0,-4.55078 -1.5234,-6.48438 -1.5039,-1.95312 -4.8243,-1.95312 -2.8515,0 -4.375,2.22656 -1.5039,2.20703 -1.5039,6.25 0,4.10156 1.5039,6.19141 1.5039,2.08984 4.4141,2.08984 z" />
    <path
       inkscape:connector-curvature="0"
       id="path8232-5"
       style="font-style:normal;font-variant:normal;font-weight:normal;font-stretch:normal;font-size:medium;line-height:224.00000095%;font-family:'Open Sans';-inkscape-font-specification:'Open Sans';text-align:center;letter-spacing:0px;word-spacing:0px;text-anchor:middle;fill:#ff4f00;fill-opacity:1;stroke:none;stroke-width:1px;stroke-linecap:butt;stroke-linejoin:miter;stroke-opacity:1"
       d="m 98.60432,648.82757 q -4.7461,0 -7.5,-2.89062 -2.7344,-2.89063 -2.7344,-8.02735 0,-5.17578 2.5391,-8.22265 2.5586,-3.04688 6.8554,-3.04688 4.0235,0 6.3672,2.65625 2.3438,2.63672 2.3438,6.97266 l 0,2.05078 -14.7461,0 q 0.098,3.76953 1.8945,5.72266 1.8164,1.95312 5.0977,1.95312 3.457,0 6.8359,-1.44531 l 0,2.89062 q -1.7187,0.74219 -3.2617,1.05469 -1.5234,0.33203 -3.6914,0.33203 z m -0.8789,-19.47265 q -2.5781,0 -4.1211,1.67968 -1.5235,1.67969 -1.7969,4.64844 l 11.1914,0 q 0,-3.0664 -1.3672,-4.6875 -1.3672,-1.64062 -3.9062,-1.64062 z" />
    <path
       style="fill:none;fill-rule:evenodd;stroke:#ffffff;stroke-width:2;stroke-linecap:butt;stroke-linejoin:miter;stroke-miterlimit:4;stroke-dasharray:none;stroke-opacity:1"
       d="m 58.848416,421.09522 0,40.80988"
       id="path5713-54"
       inkscape:connector-curvature="0"
       sodipodi:nodetypes="cc" />
    <path
       sodipodi:nodetypes="cc"
       inkscape:connector-curvature="0"
       id="path6213-7"
       d="m 58.848416,547.32741 0,40.80988"
       style="fill:none;fill-rule:evenodd;stroke:#ffffff;stroke-width:2;stroke-linecap:butt;stroke-linejoin:miter;stroke-miterlimit:4;stroke-dasharray:none;stroke-opacity:1" />
    <g
       transform="translate(-866.70341,259.81077)"
       style="font-style:normal;font-weight:normal;font-size:40px;line-height:224.00000095%;font-family:sans-serif;letter-spacing:11.77000046px;word-spacing:0px;fill:#000000;fill-opacity:1;stroke:none;stroke-width:1px;stroke-linecap:butt;stroke-linejoin:miter;stroke-opacity:1"
       id="flowRoot8936">
      <path
         d="m 861.90234,41.716852 q 0,3.769532 -2.73437,5.878907 -2.73438,2.109375 -7.42188,2.109375 -5.07812,0 -7.8125,-1.308594 l 0,-3.203125 q 1.75782,0.742187 3.82813,1.171875 2.07031,0.429687 4.10156,0.429687 3.32031,0 5,-1.25 1.67969,-1.269531 1.67969,-3.515625 0,-1.484375 -0.60547,-2.421875 -0.58594,-0.957031 -1.99219,-1.757812 -1.38672,-0.800781 -4.23828,-1.816406 -3.98437,-1.425782 -5.70312,-3.378907 -1.69922,-1.953125 -1.69922,-5.097656 0,-3.300781 2.48047,-5.253906 2.48046,-1.953125 6.5625,-1.953125 4.25781,0 7.83203,1.5625 l -1.03516,2.890625 q -3.53516,-1.484375 -6.875,-1.484375 -2.63672,0 -4.12109,1.132812 -1.48438,1.132813 -1.48438,3.144532 0,1.484375 0.54688,2.441406 0.54687,0.9375 1.83593,1.738281 1.3086,0.78125 3.98438,1.738281 4.49219,1.601563 6.17187,3.4375 1.69922,1.835938 1.69922,4.765625 z"
         style="font-style:normal;font-variant:normal;font-weight:normal;font-stretch:normal;font-family:'Open Sans';-inkscape-font-specification:'Open Sans';letter-spacing:1px;fill:#ffffff;fill-opacity:1"
         id="path9998"
         inkscape:connector-curvature="0" />
      <path
         d="m 876.80859,49.705134 q -4.64843,0 -7.20703,-2.851563 -2.53906,-2.871094 -2.53906,-8.105469 0,-5.371093 2.57812,-8.300781 2.59766,-2.929687 7.38282,-2.929687 1.54297,0 3.08593,0.332031 1.54297,0.332031 2.42188,0.78125 l -0.99609,2.753906 q -1.07422,-0.429687 -2.34375,-0.703125 -1.26954,-0.292969 -2.2461,-0.292969 -6.52344,0 -6.52344,8.320313 0,3.945312 1.58204,6.054687 1.60156,2.109375 4.72656,2.109375 2.67578,0 5.48828,-1.152343 l 0,2.871093 q -2.14844,1.113282 -5.41016,1.113282 z"
         style="font-style:normal;font-variant:normal;font-weight:normal;font-stretch:normal;font-family:'Open Sans';-inkscape-font-specification:'Open Sans';letter-spacing:1px;fill:#ffffff;fill-opacity:1"
         id="path10000"
         inkscape:connector-curvature="0" />
      <path
         d="m 897.35937,49.705134 q -4.74609,0 -7.5,-2.890625 -2.73437,-2.890625 -2.73437,-8.027344 0,-5.175781 2.53906,-8.222656 2.5586,-3.046875 6.85547,-3.046875 4.02344,0 6.36719,2.65625 2.34375,2.636718 2.34375,6.972656 l 0,2.050781 -14.7461,0 q 0.0977,3.769531 1.89454,5.722656 1.8164,1.953125 5.09765,1.953125 3.45703,0 6.83594,-1.445312 l 0,2.890625 q -1.71875,0.742187 -3.26172,1.054687 -1.52344,0.332032 -3.69141,0.332032 z m -0.8789,-19.472657 q -2.57813,0 -4.1211,1.679688 -1.52343,1.679687 -1.79687,4.648437 l 11.19141,0 q 0,-3.066406 -1.36719,-4.6875 -1.36719,-1.640625 -3.90625,-1.640625 z"
         style="font-style:normal;font-variant:normal;font-weight:normal;font-stretch:normal;font-family:'Open Sans';-inkscape-font-specification:'Open Sans';letter-spacing:1px;fill:#ffffff;fill-opacity:1"
         id="path10002"
         inkscape:connector-curvature="0" />
      <path
         d="m 926.38672,49.314509 0,-13.847657 q 0,-2.617187 -1.19141,-3.90625 -1.1914,-1.289062 -3.73047,-1.289062 -3.35937,0 -4.92187,1.816406 -1.5625,1.816406 -1.5625,5.996094 l 0,11.230469 -3.24219,0 0,-21.40625 2.63672,0 0.52734,2.929687 0.15625,0 q 0.9961,-1.582031 2.79297,-2.441406 1.79688,-0.878906 4.00391,-0.878906 3.86719,0 5.82031,1.875 1.95313,1.855468 1.95313,5.957031 l 0,13.964844 -3.24219,0 z"
         style="font-style:normal;font-variant:normal;font-weight:normal;font-stretch:normal;font-family:'Open Sans';-inkscape-font-specification:'Open Sans';letter-spacing:1px;fill:#ffffff;fill-opacity:1"
         id="path10004"
         inkscape:connector-curvature="0" />
      <path
         d="m 946.3125,49.705134 q -4.74609,0 -7.5,-2.890625 -2.73438,-2.890625 -2.73438,-8.027344 0,-5.175781 2.53907,-8.222656 2.55859,-3.046875 6.85547,-3.046875 4.02343,0 6.36718,2.65625 2.34375,2.636718 2.34375,6.972656 l 0,2.050781 -14.74609,0 q 0.0977,3.769531 1.89453,5.722656 1.81641,1.953125 5.09766,1.953125 3.45703,0 6.83593,-1.445312 l 0,2.890625 q -1.71875,0.742187 -3.26171,1.054687 -1.52344,0.332032 -3.69141,0.332032 z m -0.87891,-19.472657 q -2.57812,0 -4.12109,1.679688 -1.52344,1.679687 -1.79688,4.648437 l 11.19141,0 q 0,-3.066406 -1.36719,-4.6875 -1.36718,-1.640625 -3.90625,-1.640625 z"
         style="font-style:normal;font-variant:normal;font-weight:normal;font-stretch:normal;font-family:'Open Sans';-inkscape-font-specification:'Open Sans';letter-spacing:1px;fill:#ffffff;fill-opacity:1"
         id="path10006"
         inkscape:connector-curvature="0" />
      <path
         d="m 990.51953,49.314509 -3.55469,-9.082032 -11.44531,0 -3.51562,9.082032 -3.35938,0 11.28906,-28.671875 2.79297,0 11.23047,28.671875 -3.4375,0 z m -4.58984,-12.070313 -3.32032,-8.847656 q -0.64453,-1.679688 -1.32812,-4.121094 -0.42969,1.875 -1.23047,4.121094 l -3.35937,8.847656 9.23828,0 z"
         style="font-style:normal;font-variant:normal;font-weight:normal;font-stretch:normal;font-family:'Open Sans';-inkscape-font-specification:'Open Sans';letter-spacing:1px;fill:#ffffff;fill-opacity:1"
         id="path10008"
         inkscape:connector-curvature="0" />
    </g>
    <rect
       rx="10"
       ry="10"
       y="473.56882"
       x="197.73029"
       height="77.413971"
       width="140.14598"
       id="rect5621-2"
       style="opacity:1;fill:none;fill-opacity:0.99215686;stroke:#00fffc;stroke-width:2;stroke-linecap:round;stroke-linejoin:round;stroke-miterlimit:4;stroke-dasharray:none;stroke-dashoffset:200;stroke-opacity:1" />
    <path
       inkscape:connector-curvature="0"
       d="m 242.48087,527.27581 -3.789,0 -15.6055,-23.96485 -0.1562,0 q 0.3125,4.21875 0.3125,7.73438 l 0,16.23047 -3.0664,0 0,-28.55469 3.75,0 15.5664,23.86719 0.1562,0 q -0.039,-0.52735 -0.1758,-3.37891 -0.1367,-2.87109 -0.098,-4.10156 l 0,-16.38672 3.1055,0 0,28.55469 z"
       style="font-style:normal;font-variant:normal;font-weight:normal;font-stretch:normal;font-size:medium;line-height:224.00000095%;font-family:'Open Sans';-inkscape-font-specification:'Open Sans';text-align:center;letter-spacing:0px;word-spacing:0px;text-anchor:middle;fill:#00fffc;fill-opacity:1;stroke:none;stroke-width:1px;stroke-linecap:butt;stroke-linejoin:miter;stroke-opacity:1"
       id="path8413-8" />
    <path
       inkscape:connector-curvature="0"
       d="m 268.32077,516.55315 q 0,5.23438 -2.6367,8.1836 -2.6368,2.92968 -7.2852,2.92968 -2.8711,0 -5.0976,-1.34765 -2.2266,-1.34766 -3.4375,-3.86719 -1.211,-2.51953 -1.211,-5.89844 0,-5.23437 2.6172,-8.14453 2.6172,-2.92969 7.2656,-2.92969 4.4922,0 7.1289,2.98828 2.6563,2.98829 2.6563,8.08594 z m -16.3086,0 q 0,4.10156 1.6406,6.25 1.6406,2.14844 4.8242,2.14844 3.1836,0 4.8243,-2.12891 1.6601,-2.14843 1.6601,-6.26953 0,-4.08203 -1.6601,-6.1914 -1.6407,-2.12891 -4.8633,-2.12891 -3.1836,0 -4.8047,2.08984 -1.6211,2.08985 -1.6211,6.23047 z"
       style="font-style:normal;font-variant:normal;font-weight:normal;font-stretch:normal;font-size:medium;line-height:224.00000095%;font-family:'Open Sans';-inkscape-font-specification:'Open Sans';text-align:center;letter-spacing:0px;word-spacing:0px;text-anchor:middle;fill:#00fffc;fill-opacity:1;stroke:none;stroke-width:1px;stroke-linecap:butt;stroke-linejoin:miter;stroke-opacity:1"
       id="path8415-9" />
    <path
       inkscape:connector-curvature="0"
       d="m 288.55517,524.40471 -0.1758,0 q -2.2461,3.26172 -6.7188,3.26172 -4.1992,0 -6.5429,-2.87109 -2.3243,-2.87109 -2.3243,-8.16406 0,-5.29297 2.3438,-8.22266 2.3437,-2.92969 6.5234,-2.92969 4.3555,0 6.6797,3.16407 l 0.2539,0 -0.1367,-1.54297 -0.078,-1.50391 0,-8.71094 3.2422,0 0,30.39063 -2.6367,0 -0.4297,-2.8711 z m -6.4844,0.54688 q 3.3203,0 4.8047,-1.79688 1.5039,-1.8164 1.5039,-5.83984 l 0,-0.68359 q 0,-4.55078 -1.5235,-6.48438 -1.5039,-1.95312 -4.8242,-1.95312 -2.8516,0 -4.375,2.22656 -1.5039,2.20703 -1.5039,6.25 0,4.10156 1.5039,6.19141 1.5039,2.08984 4.4141,2.08984 z"
       style="font-style:normal;font-variant:normal;font-weight:normal;font-stretch:normal;font-size:medium;line-height:224.00000095%;font-family:'Open Sans';-inkscape-font-specification:'Open Sans';text-align:center;letter-spacing:0px;word-spacing:0px;text-anchor:middle;fill:#00fffc;fill-opacity:1;stroke:none;stroke-width:1px;stroke-linecap:butt;stroke-linejoin:miter;stroke-opacity:1"
       id="path8417-7" />
    <path
       inkscape:connector-curvature="0"
       d="m 307.55907,527.66643 q -4.7461,0 -7.5,-2.89062 -2.7344,-2.89063 -2.7344,-8.02735 0,-5.17578 2.5391,-8.22265 2.5585,-3.04688 6.8554,-3.04688 4.0235,0 6.3672,2.65625 2.3438,2.63672 2.3438,6.97266 l 0,2.05078 -14.7461,0 q 0.098,3.76953 1.8945,5.72266 1.8164,1.95312 5.0977,1.95312 3.457,0 6.8359,-1.44531 l 0,2.89062 q -1.7188,0.74219 -3.2617,1.05469 -1.5235,0.33203 -3.6914,0.33203 z m -0.879,-19.47265 q -2.5781,0 -4.121,1.67968 -1.5235,1.67969 -1.7969,4.64844 l 11.1914,0 q 0,-3.0664 -1.3672,-4.6875 -1.3672,-1.64062 -3.9063,-1.64062 z"
       style="font-style:normal;font-variant:normal;font-weight:normal;font-stretch:normal;font-size:medium;line-height:224.00000095%;font-family:'Open Sans';-inkscape-font-specification:'Open Sans';text-align:center;letter-spacing:0px;word-spacing:0px;text-anchor:middle;fill:#00fffc;fill-opacity:1;stroke:none;stroke-width:1px;stroke-linecap:butt;stroke-linejoin:miter;stroke-opacity:1"
       id="path8419-3" />
    <rect
       style="opacity:1;fill:none;fill-opacity:0.99215686;stroke:#00fffc;stroke-width:2;stroke-linecap:round;stroke-linejoin:round;stroke-miterlimit:4;stroke-dasharray:none;stroke-dashoffset:200;stroke-opacity:1"
       id="rect5657-0"
       width="140.14598"
       height="77.413971"
       x="199.16815"
       y="600.27295"
       ry="10"
       rx="10" />
    <path
       inkscape:connector-curvature="0"
       id="path8282-6"
       style="font-style:normal;font-variant:normal;font-weight:normal;font-stretch:normal;font-size:medium;line-height:224.00000095%;font-family:'Open Sans';-inkscape-font-specification:'Open Sans';text-align:center;letter-spacing:0px;word-spacing:0px;text-anchor:middle;fill:#00fffc;fill-opacity:1;stroke:none;stroke-width:1px;stroke-linecap:butt;stroke-linejoin:miter;stroke-opacity:1"
       d="m 243.91877,653.97992 -3.789,0 -15.6055,-23.96485 -0.1562,0 q 0.3125,4.21875 0.3125,7.73438 l 0,16.23047 -3.0665,0 0,-28.55469 3.75,0 15.5665,23.86719 0.1562,0 q -0.039,-0.52735 -0.1758,-3.37891 -0.1367,-2.87109 -0.098,-4.10156 l 0,-16.38672 3.1055,0 0,28.55469 z" />
    <path
       inkscape:connector-curvature="0"
       id="path8284-1"
       style="font-style:normal;font-variant:normal;font-weight:normal;font-stretch:normal;font-size:medium;line-height:224.00000095%;font-family:'Open Sans';-inkscape-font-specification:'Open Sans';text-align:center;letter-spacing:0px;word-spacing:0px;text-anchor:middle;fill:#00fffc;fill-opacity:1;stroke:none;stroke-width:1px;stroke-linecap:butt;stroke-linejoin:miter;stroke-opacity:1"
       d="m 269.75867,643.25726 q 0,5.23438 -2.6367,8.1836 -2.6368,2.92968 -7.2852,2.92968 -2.8711,0 -5.0976,-1.34765 -2.2266,-1.34766 -3.4375,-3.86719 -1.211,-2.51953 -1.211,-5.89844 0,-5.23437 2.6172,-8.14453 2.6172,-2.92969 7.2656,-2.92969 4.4922,0 7.1289,2.98828 2.6563,2.98829 2.6563,8.08594 z m -16.3086,0 q 0,4.10156 1.6406,6.25 1.6406,2.14844 4.8242,2.14844 3.1836,0 4.8242,-2.12891 1.6602,-2.14843 1.6602,-6.26953 0,-4.08203 -1.6602,-6.1914 -1.6406,-2.12891 -4.8632,-2.12891 -3.1836,0 -4.8047,2.08984 -1.6211,2.08985 -1.6211,6.23047 z" />
    <path
       inkscape:connector-curvature="0"
       id="path8286-0"
       style="font-style:normal;font-variant:normal;font-weight:normal;font-stretch:normal;font-size:medium;line-height:224.00000095%;font-family:'Open Sans';-inkscape-font-specification:'Open Sans';text-align:center;letter-spacing:0px;word-spacing:0px;text-anchor:middle;fill:#00fffc;fill-opacity:1;stroke:none;stroke-width:1px;stroke-linecap:butt;stroke-linejoin:miter;stroke-opacity:1"
       d="m 289.99307,651.10882 -0.1758,0 q -2.2461,3.26172 -6.7188,3.26172 -4.1992,0 -6.5429,-2.87109 -2.3243,-2.87109 -2.3243,-8.16406 0,-5.29297 2.3438,-8.22266 2.3437,-2.92969 6.5234,-2.92969 4.3555,0 6.6797,3.16407 l 0.2539,0 -0.1367,-1.54297 -0.078,-1.50391 0,-8.71094 3.2422,0 0,30.39063 -2.6367,0 -0.4297,-2.8711 z m -6.4844,0.54688 q 3.3203,0 4.8047,-1.79688 1.5039,-1.8164 1.5039,-5.83984 l 0,-0.68359 q 0,-4.55078 -1.5235,-6.48438 -1.5039,-1.95312 -4.8242,-1.95312 -2.8516,0 -4.375,2.22656 -1.5039,2.20703 -1.5039,6.25 0,4.10156 1.5039,6.19141 1.5039,2.08984 4.4141,2.08984 z" />
    <path
       inkscape:connector-curvature="0"
       id="path8288-6"
       style="font-style:normal;font-variant:normal;font-weight:normal;font-stretch:normal;font-size:medium;line-height:224.00000095%;font-family:'Open Sans';-inkscape-font-specification:'Open Sans';text-align:center;letter-spacing:0px;word-spacing:0px;text-anchor:middle;fill:#00fffc;fill-opacity:1;stroke:none;stroke-width:1px;stroke-linecap:butt;stroke-linejoin:miter;stroke-opacity:1"
       d="m 308.99697,654.37054 q -4.7461,0 -7.5,-2.89062 -2.7344,-2.89063 -2.7344,-8.02735 0,-5.17578 2.539,-8.22265 2.5586,-3.04688 6.8555,-3.04688 4.0235,0 6.3672,2.65625 2.3438,2.63672 2.3438,6.97266 l 0,2.05078 -14.7461,0 q 0.098,3.76953 1.8945,5.72266 1.8164,1.95312 5.0977,1.95312 3.457,0 6.8359,-1.44531 l 0,2.89062 q -1.7188,0.74219 -3.2617,1.05469 -1.5235,0.33203 -3.6914,0.33203 z m -0.879,-19.47265 q -2.5781,0 -4.121,1.67968 -1.5235,1.67969 -1.7969,4.64844 l 11.1914,0 q 0,-3.0664 -1.3672,-4.6875 -1.3672,-1.64062 -3.9063,-1.64062 z" />
    <rect
       rx="10"
       ry="10"
       y="603.10431"
       x="394.53317"
       height="77.413971"
       width="140.14598"
       id="rect5669-3"
       style="opacity:1;fill:none;fill-opacity:0.99215686;stroke:#00fffc;stroke-width:2;stroke-linecap:round;stroke-linejoin:round;stroke-miterlimit:4;stroke-dasharray:none;stroke-dashoffset:200;stroke-opacity:1" />
    <path
       inkscape:connector-curvature="0"
       id="path8303-0"
       style="font-style:normal;font-variant:normal;font-weight:normal;font-stretch:normal;font-size:medium;line-height:224.00000095%;font-family:'Open Sans';-inkscape-font-specification:'Open Sans';text-align:center;letter-spacing:0px;word-spacing:0px;text-anchor:middle;fill:#00fffc;fill-opacity:1;stroke:none;stroke-width:1px;stroke-linecap:butt;stroke-linejoin:miter;stroke-opacity:1"
       d="m 439.28377,656.8113 -3.789,0 -15.6055,-23.96485 -0.1562,0 q 0.3125,4.21875 0.3125,7.73438 l 0,16.23047 -3.0665,0 0,-28.55469 3.75,0 15.5665,23.86719 0.1562,0 q -0.039,-0.52735 -0.1758,-3.37891 -0.1367,-2.87109 -0.098,-4.10156 l 0,-16.38672 3.1055,0 0,28.55469 z" />
    <path
       inkscape:connector-curvature="0"
       id="path8305-6"
       style="font-style:normal;font-variant:normal;font-weight:normal;font-stretch:normal;font-size:medium;line-height:224.00000095%;font-family:'Open Sans';-inkscape-font-specification:'Open Sans';text-align:center;letter-spacing:0px;word-spacing:0px;text-anchor:middle;fill:#00fffc;fill-opacity:1;stroke:none;stroke-width:1px;stroke-linecap:butt;stroke-linejoin:miter;stroke-opacity:1"
       d="m 465.12367,646.08864 q 0,5.23438 -2.6367,8.1836 -2.6368,2.92968 -7.2852,2.92968 -2.8711,0 -5.0977,-1.34765 -2.2265,-1.34766 -3.4375,-3.86719 -1.2109,-2.51953 -1.2109,-5.89844 0,-5.23437 2.6172,-8.14453 2.6172,-2.92969 7.2656,-2.92969 4.4922,0 7.1289,2.98828 2.6563,2.98829 2.6563,8.08594 z m -16.3086,0 q 0,4.10156 1.6406,6.25 1.6406,2.14844 4.8242,2.14844 3.1836,0 4.8242,-2.12891 1.6602,-2.14843 1.6602,-6.26953 0,-4.08203 -1.6602,-6.1914 -1.6406,-2.12891 -4.8632,-2.12891 -3.1836,0 -4.8047,2.08984 -1.6211,2.08985 -1.6211,6.23047 z" />
    <path
       inkscape:connector-curvature="0"
       id="path8307-1"
       style="font-style:normal;font-variant:normal;font-weight:normal;font-stretch:normal;font-size:medium;line-height:224.00000095%;font-family:'Open Sans';-inkscape-font-specification:'Open Sans';text-align:center;letter-spacing:0px;word-spacing:0px;text-anchor:middle;fill:#00fffc;fill-opacity:1;stroke:none;stroke-width:1px;stroke-linecap:butt;stroke-linejoin:miter;stroke-opacity:1"
       d="m 485.35807,653.9402 -0.1758,0 q -2.2461,3.26172 -6.7188,3.26172 -4.1992,0 -6.5429,-2.87109 -2.3243,-2.87109 -2.3243,-8.16406 0,-5.29297 2.3438,-8.22266 2.3437,-2.92969 6.5234,-2.92969 4.3555,0 6.6797,3.16407 l 0.2539,0 -0.1367,-1.54297 -0.078,-1.50391 0,-8.71094 3.2422,0 0,30.39063 -2.6367,0 -0.4297,-2.8711 z m -6.4844,0.54688 q 3.3203,0 4.8047,-1.79688 1.5039,-1.8164 1.5039,-5.83984 l 0,-0.68359 q 0,-4.55078 -1.5235,-6.48438 -1.5039,-1.95312 -4.8242,-1.95312 -2.8515,0 -4.375,2.22656 -1.5039,2.20703 -1.5039,6.25 0,4.10156 1.5039,6.19141 1.5039,2.08984 4.4141,2.08984 z" />
    <path
       inkscape:connector-curvature="0"
       id="path8309-5"
       style="font-style:normal;font-variant:normal;font-weight:normal;font-stretch:normal;font-size:medium;line-height:224.00000095%;font-family:'Open Sans';-inkscape-font-specification:'Open Sans';text-align:center;letter-spacing:0px;word-spacing:0px;text-anchor:middle;fill:#00fffc;fill-opacity:1;stroke:none;stroke-width:1px;stroke-linecap:butt;stroke-linejoin:miter;stroke-opacity:1"
       d="m 504.36197,657.20192 q -4.7461,0 -7.5,-2.89062 -2.7344,-2.89063 -2.7344,-8.02735 0,-5.17578 2.539,-8.22265 2.5586,-3.04688 6.8555,-3.04688 4.0235,0 6.3672,2.65625 2.3438,2.63672 2.3438,6.97266 l 0,2.05078 -14.7461,0 q 0.098,3.76953 1.8945,5.72266 1.8164,1.95312 5.0976,1.95312 3.4571,0 6.836,-1.44531 l 0,2.89062 q -1.7188,0.74219 -3.2617,1.05469 -1.5235,0.33203 -3.6914,0.33203 z m -0.8789,-19.47265 q -2.5782,0 -4.1211,1.67968 -1.5235,1.67969 -1.7969,4.64844 l 11.1914,0 q 0,-3.0664 -1.3672,-4.6875 -1.3672,-1.64062 -3.9062,-1.64062 z" />
    <path
       style="fill:none;fill-rule:evenodd;stroke:#ffffff;stroke-width:2;stroke-linecap:butt;stroke-linejoin:miter;stroke-miterlimit:4;stroke-dasharray:none;stroke-opacity:1"
       d="m 269.24107,551.46306 0,40.80988"
       id="path5713-5-5"
       inkscape:connector-curvature="0"
       sodipodi:nodetypes="cc" />
    <g
       transform="translate(-485.81959,474.05159)"
       style="font-style:normal;font-weight:normal;font-size:40px;line-height:224.00000095%;font-family:sans-serif;letter-spacing:11.77000046px;word-spacing:0px;fill:#000000;fill-opacity:1;stroke:none;stroke-width:1px;stroke-linecap:butt;stroke-linejoin:miter;stroke-opacity:1"
       id="flowRoot8936-8">
      <path
         d="m 861.90234,41.716852 q 0,3.769532 -2.73437,5.878907 -2.73438,2.109375 -7.42188,2.109375 -5.07812,0 -7.8125,-1.308594 l 0,-3.203125 q 1.75782,0.742187 3.82813,1.171875 2.07031,0.429687 4.10156,0.429687 3.32031,0 5,-1.25 1.67969,-1.269531 1.67969,-3.515625 0,-1.484375 -0.60547,-2.421875 -0.58594,-0.957031 -1.99219,-1.757812 -1.38672,-0.800781 -4.23828,-1.816406 -3.98437,-1.425782 -5.70312,-3.378907 -1.69922,-1.953125 -1.69922,-5.097656 0,-3.300781 2.48047,-5.253906 2.48046,-1.953125 6.5625,-1.953125 4.25781,0 7.83203,1.5625 l -1.03516,2.890625 q -3.53516,-1.484375 -6.875,-1.484375 -2.63672,0 -4.12109,1.132812 -1.48438,1.132813 -1.48438,3.144532 0,1.484375 0.54688,2.441406 0.54687,0.9375 1.83593,1.738281 1.3086,0.78125 3.98438,1.738281 4.49219,1.601563 6.17187,3.4375 1.69922,1.835938 1.69922,4.765625 z"
         style="font-style:normal;font-variant:normal;font-weight:normal;font-stretch:normal;font-family:'Open Sans';-inkscape-font-specification:'Open Sans';letter-spacing:1px;fill:#ffffff;fill-opacity:1"
         id="path9985"
         inkscape:connector-curvature="0" />
      <path
         d="m 876.80859,49.705134 q -4.64843,0 -7.20703,-2.851563 -2.53906,-2.871094 -2.53906,-8.105469 0,-5.371093 2.57812,-8.300781 2.59766,-2.929687 7.38282,-2.929687 1.54297,0 3.08593,0.332031 1.54297,0.332031 2.42188,0.78125 l -0.99609,2.753906 q -1.07422,-0.429687 -2.34375,-0.703125 -1.26954,-0.292969 -2.2461,-0.292969 -6.52344,0 -6.52344,8.320313 0,3.945312 1.58204,6.054687 1.60156,2.109375 4.72656,2.109375 2.67578,0 5.48828,-1.152343 l 0,2.871093 q -2.14844,1.113282 -5.41016,1.113282 z"
         style="font-style:normal;font-variant:normal;font-weight:normal;font-stretch:normal;font-family:'Open Sans';-inkscape-font-specification:'Open Sans';letter-spacing:1px;fill:#ffffff;fill-opacity:1"
         id="path9987"
         inkscape:connector-curvature="0" />
      <path
         d="m 897.35937,49.705134 q -4.74609,0 -7.5,-2.890625 -2.73437,-2.890625 -2.73437,-8.027344 0,-5.175781 2.53906,-8.222656 2.5586,-3.046875 6.85547,-3.046875 4.02344,0 6.36719,2.65625 2.34375,2.636718 2.34375,6.972656 l 0,2.050781 -14.7461,0 q 0.0977,3.769531 1.89454,5.722656 1.8164,1.953125 5.09765,1.953125 3.45703,0 6.83594,-1.445312 l 0,2.890625 q -1.71875,0.742187 -3.26172,1.054687 -1.52344,0.332032 -3.69141,0.332032 z m -0.8789,-19.472657 q -2.57813,0 -4.1211,1.679688 -1.52343,1.679687 -1.79687,4.648437 l 11.19141,0 q 0,-3.066406 -1.36719,-4.6875 -1.36719,-1.640625 -3.90625,-1.640625 z"
         style="font-style:normal;font-variant:normal;font-weight:normal;font-stretch:normal;font-family:'Open Sans';-inkscape-font-specification:'Open Sans';letter-spacing:1px;fill:#ffffff;fill-opacity:1"
         id="path9989"
         inkscape:connector-curvature="0" />
      <path
         d="m 926.38672,49.314509 0,-13.847657 q 0,-2.617187 -1.19141,-3.90625 -1.1914,-1.289062 -3.73047,-1.289062 -3.35937,0 -4.92187,1.816406 -1.5625,1.816406 -1.5625,5.996094 l 0,11.230469 -3.24219,0 0,-21.40625 2.63672,0 0.52734,2.929687 0.15625,0 q 0.9961,-1.582031 2.79297,-2.441406 1.79688,-0.878906 4.00391,-0.878906 3.86719,0 5.82031,1.875 1.95313,1.855468 1.95313,5.957031 l 0,13.964844 -3.24219,0 z"
         style="font-style:normal;font-variant:normal;font-weight:normal;font-stretch:normal;font-family:'Open Sans';-inkscape-font-specification:'Open Sans';letter-spacing:1px;fill:#ffffff;fill-opacity:1"
         id="path9991"
         inkscape:connector-curvature="0" />
      <path
         d="m 946.3125,49.705134 q -4.74609,0 -7.5,-2.890625 -2.73438,-2.890625 -2.73438,-8.027344 0,-5.175781 2.53907,-8.222656 2.55859,-3.046875 6.85547,-3.046875 4.02343,0 6.36718,2.65625 2.34375,2.636718 2.34375,6.972656 l 0,2.050781 -14.74609,0 q 0.0977,3.769531 1.89453,5.722656 1.81641,1.953125 5.09766,1.953125 3.45703,0 6.83593,-1.445312 l 0,2.890625 q -1.71875,0.742187 -3.26171,1.054687 -1.52344,0.332032 -3.69141,0.332032 z m -0.87891,-19.472657 q -2.57812,0 -4.12109,1.679688 -1.52344,1.679687 -1.79688,4.648437 l 11.19141,0 q 0,-3.066406 -1.36719,-4.6875 -1.36718,-1.640625 -3.90625,-1.640625 z"
         style="font-style:normal;font-variant:normal;font-weight:normal;font-stretch:normal;font-family:'Open Sans';-inkscape-font-specification:'Open Sans';letter-spacing:1px;fill:#ffffff;fill-opacity:1"
         id="path9993"
         inkscape:connector-curvature="0" />
      <path
         d="m 972.57031,20.759821 8.06641,0 q 5.68359,0 8.22265,1.699219 2.53907,1.699219 2.53907,5.371094 0,2.539062 -1.42578,4.199218 -1.40625,1.640625 -4.1211,2.128907 l 0,0.195312 q 6.50391,1.113281 6.50391,6.835938 0,3.828125 -2.59766,5.976562 -2.57812,2.148438 -7.22656,2.148438 l -9.96094,0 0,-28.554688 z m 3.32031,12.226563 5.46875,0 q 3.51563,0 5.0586,-1.09375 1.54297,-1.113282 1.54297,-3.730469 0,-2.402344 -1.71875,-3.457031 -1.71875,-1.074219 -5.46875,-1.074219 l -4.88282,0 0,9.355469 z m 0,2.8125 0,10.683593 5.95704,0 q 3.45703,0 5.19531,-1.328125 1.75781,-1.347656 1.75781,-4.199218 0,-2.65625 -1.79687,-3.90625 -1.77735,-1.25 -5.42969,-1.25 l -5.6836,0 z"
         style="font-style:normal;font-variant:normal;font-weight:normal;font-stretch:normal;font-family:'Open Sans';-inkscape-font-specification:'Open Sans';letter-spacing:1px;fill:#ffffff;fill-opacity:1"
         id="path9995"
         inkscape:connector-curvature="0" />
    </g>
    <path
       sodipodi:type="star"
       style="opacity:1;fill:#ffffff;fill-opacity:1;stroke:none;stroke-width:2;stroke-linecap:round;stroke-linejoin:round;stroke-miterlimit:4;stroke-dasharray:none;stroke-dashoffset:200;stroke-opacity:1"
       id="path10031"
       sodipodi:sides="3"
       sodipodi:cx="-58.704613"
       sodipodi:cy="-461.72922"
       sodipodi:r1="6.4789114"
       sodipodi:r2="3.2394557"
       sodipodi:arg1="0.52359878"
       sodipodi:arg2="1.5707963"
       inkscape:flatsided="true"
       inkscape:rounded="0"
       inkscape:randomized="0"
       d="m -53.093711,-458.48976 -11.221804,0 5.610902,-9.71837 z"
       inkscape:transform-center-y="1.6197187"
       transform="scale(-1,-1)" />
    <path
       sodipodi:type="star"
       style="opacity:1;fill:#ffffff;fill-opacity:1;stroke:none;stroke-width:2;stroke-linecap:round;stroke-linejoin:round;stroke-miterlimit:4;stroke-dasharray:none;stroke-dashoffset:200;stroke-opacity:1"
       id="path10031-1"
       sodipodi:sides="3"
       sodipodi:cx="-58.729996"
       sodipodi:cy="-586.9068"
       sodipodi:r1="6.4789114"
       sodipodi:r2="3.2394557"
       sodipodi:arg1="0.52359878"
       sodipodi:arg2="1.5707963"
       inkscape:flatsided="true"
       inkscape:rounded="0"
       inkscape:randomized="0"
       d="m -53.119094,-583.66734 -11.221804,0 5.610902,-9.71837 z"
       inkscape:transform-center-y="1.6197187"
       transform="scale(-1,-1)" />
    <path
       sodipodi:type="star"
       style="opacity:1;fill:#ffffff;fill-opacity:1;stroke:none;stroke-width:2;stroke-linecap:round;stroke-linejoin:round;stroke-miterlimit:4;stroke-dasharray:none;stroke-dashoffset:200;stroke-opacity:1"
       id="path10031-4"
       sodipodi:sides="3"
       sodipodi:cx="-269.10861"
       sodipodi:cy="-592.44415"
       sodipodi:r1="6.4789114"
       sodipodi:r2="3.2394557"
       sodipodi:arg1="0.52359878"
       sodipodi:arg2="1.5707963"
       inkscape:flatsided="true"
       inkscape:rounded="0"
       inkscape:randomized="0"
       d="m -263.49771,-589.2047 -11.2218,0 5.6109,-9.71836 z"
       inkscape:transform-center-y="1.6197187"
       transform="scale(-1,-1)" />
    <g
       id="g10064"
       transform="translate(-17.043054,1.8875843)">
      <path
         sodipodi:nodetypes="ccc"
         inkscape:connector-curvature="0"
         id="path5713-9-6"
         d="m 286.28412,549.09521 212.63557,31.81676 -0.25285,9.79382"
         style="fill:none;fill-rule:evenodd;stroke:#ffffff;stroke-width:2;stroke-linecap:butt;stroke-linejoin:miter;stroke-miterlimit:4;stroke-dasharray:none;stroke-opacity:1" />
      <path
         transform="scale(-1,-1)"
         inkscape:transform-center-y="1.6197187"
         d="m -493.07699,-590.57048 -11.22181,0 5.6109,-9.71837 z"
         inkscape:randomized="0"
         inkscape:rounded="0"
         inkscape:flatsided="true"
         sodipodi:arg2="1.5707963"
         sodipodi:arg1="0.52359878"
         sodipodi:r2="3.2394557"
         sodipodi:r1="6.4789114"
         sodipodi:cy="-593.80994"
         sodipodi:cx="-498.6879"
         sodipodi:sides="3"
         id="path10031-9"
         style="opacity:1;fill:#ffffff;fill-opacity:1;stroke:none;stroke-width:2;stroke-linecap:round;stroke-linejoin:round;stroke-miterlimit:4;stroke-dasharray:none;stroke-dashoffset:200;stroke-opacity:1"
         sodipodi:type="star" />
    </g>
    <g
       id="g10068"
       transform="translate(-228.26307,-127.91429)">
      <path
         style="fill:none;fill-rule:evenodd;stroke:#ffffff;stroke-width:2;stroke-linecap:butt;stroke-linejoin:miter;stroke-miterlimit:4;stroke-dasharray:none;stroke-opacity:1"
         d="m 286.28412,549.09521 212.63557,31.81676 -0.25285,9.79382"
         id="path10070"
         inkscape:connector-curvature="0"
         sodipodi:nodetypes="ccc" />
      <path
         sodipodi:type="star"
         style="opacity:1;fill:#ffffff;fill-opacity:1;stroke:none;stroke-width:2;stroke-linecap:round;stroke-linejoin:round;stroke-miterlimit:4;stroke-dasharray:none;stroke-dashoffset:200;stroke-opacity:1"
         id="path10072"
         sodipodi:sides="3"
         sodipodi:cx="-498.6879"
         sodipodi:cy="-593.80994"
         sodipodi:r1="6.4789114"
         sodipodi:r2="3.2394557"
         sodipodi:arg1="0.52359878"
         sodipodi:arg2="1.5707963"
         inkscape:flatsided="true"
         inkscape:rounded="0"
         inkscape:randomized="0"
         d="m -493.07699,-590.57048 -11.22181,0 5.6109,-9.71837 z"
         inkscape:transform-center-y="1.6197187"
         transform="scale(-1,-1)" />
    </g>
    <g
       transform="matrix(0.61156627,0,0,0.61156627,-2.3743668,366.83775)"
       style="font-style:normal;font-weight:normal;font-size:40px;line-height:224.00000095%;font-family:sans-serif;letter-spacing:11.77000046px;word-spacing:0px;fill:#ff7f2a;fill-opacity:1;stroke:none;stroke-width:1px;stroke-linecap:butt;stroke-linejoin:miter;stroke-opacity:1"
       id="flowRoot10093">
      <path
         d="m 264.41211,102.77935 0,-28.554685 3.32031,0 0,28.554685 -3.32031,0 z"
         style="font-style:normal;font-variant:normal;font-weight:normal;font-stretch:normal;font-family:'Open Sans';-inkscape-font-specification:'Open Sans';letter-spacing:0px;fill:#ff7f2a"
         id="path10102"
         inkscape:connector-curvature="0" />
      <path
         d="m 289.74414,102.77935 0,-13.847654 q 0,-2.617187 -1.19141,-3.90625 -1.1914,-1.289062 -3.73046,-1.289062 -3.35938,0 -4.92188,1.816406 -1.5625,1.816406 -1.5625,5.996094 l 0,11.230466 -3.24219,0 0,-21.406248 2.63672,0 0.52735,2.929688 0.15625,0 q 0.99609,-1.582031 2.79296,-2.441406 1.79688,-0.878907 4.00391,-0.878907 3.86719,0 5.82031,1.875 1.95313,1.855469 1.95313,5.957032 l 0,13.964841 -3.24219,0 z"
         style="font-style:normal;font-variant:normal;font-weight:normal;font-stretch:normal;font-family:'Open Sans';-inkscape-font-specification:'Open Sans';letter-spacing:0px;fill:#ff7f2a"
         id="path10104"
         inkscape:connector-curvature="0" />
      <path
         d="m 313.43555,96.939509 q 0,2.988281 -2.22657,4.609371 -2.22656,1.6211 -6.25,1.6211 -4.25781,0 -6.64062,-1.34766 l 0,-3.007811 q 1.54297,0.78125 3.30078,1.230471 1.77734,0.44922 3.41797,0.44922 2.53906,0 3.90625,-0.800785 1.36719,-0.820313 1.36719,-2.480469 0,-1.25 -1.09375,-2.128906 -1.07422,-0.898438 -4.21875,-2.109375 -2.98828,-1.113281 -4.25782,-1.933594 -1.25,-0.839844 -1.875,-1.894531 -0.60546,-1.054688 -0.60546,-2.519531 0,-2.617188 2.1289,-4.121094 2.12891,-1.523438 5.83985,-1.523438 3.45703,0 6.75781,1.40625 l -1.15235,2.636719 q -3.22265,-1.328125 -5.83984,-1.328125 -2.30469,0 -3.47656,0.722656 -1.17188,0.722657 -1.17188,1.992188 0,0.859375 0.42969,1.464844 0.44922,0.605468 1.42578,1.152343 0.97656,0.546875 3.75,1.582032 3.8086,1.386718 5.13672,2.792968 1.34766,1.40625 1.34766,3.535157 z"
         style="font-style:normal;font-variant:normal;font-weight:normal;font-stretch:normal;font-family:'Open Sans';-inkscape-font-specification:'Open Sans';letter-spacing:0px;fill:#ff7f2a"
         id="path10106"
         inkscape:connector-curvature="0" />
      <path
         d="m 325.60352,100.4942 q 0.85937,0 1.66015,-0.11719 0.80078,-0.13672 1.26953,-0.27344 l 0,2.48047 q -0.52734,0.25391 -1.5625,0.41016 -1.01562,0.17578 -1.83593,0.17578 -6.21094,0 -6.21094,-6.542971 l 0,-12.734375 -3.06641,0 0,-1.5625 3.06641,-1.347657 1.36719,-4.570312 1.875,0 0,4.960937 6.21093,0 0,2.519532 -6.21093,0 0,12.597656 q 0,1.933594 0.91796,2.96875 0.91797,1.03516 2.51954,1.03516 z"
         style="font-style:normal;font-variant:normal;font-weight:normal;font-stretch:normal;font-family:'Open Sans';-inkscape-font-specification:'Open Sans';letter-spacing:0px;fill:#ff7f2a"
         id="path10108"
         inkscape:connector-curvature="0" />
      <path
         d="m 345.99414,102.77935 -0.64453,-3.046873 -0.15625,0 q -1.60156,2.011723 -3.20313,2.734373 -1.58203,0.70313 -3.96484,0.70313 -3.18359,0 -5,-1.64063 -1.79687,-1.640623 -1.79687,-4.667966 0,-6.484375 10.37109,-6.796875 l 3.63281,-0.117188 0,-1.328125 q 0,-2.519531 -1.09375,-3.710937 -1.07422,-1.210938 -3.45703,-1.210938 -2.67578,0 -6.05469,1.640625 l -0.99609,-2.480469 q 1.58203,-0.859375 3.45703,-1.347656 1.89453,-0.488281 3.78906,-0.488281 3.82813,0 5.66407,1.699219 1.85546,1.699218 1.85546,5.449218 l 0,14.609373 -2.40234,0 z m -7.32422,-2.28515 q 3.02735,0 4.7461,-1.66016 1.73828,-1.660156 1.73828,-4.648438 l 0,-1.933593 -3.24219,0.136718 q -3.86719,0.136719 -5.58594,1.210938 -1.69922,1.054687 -1.69922,3.300781 0,1.757813 1.05469,2.675781 1.07422,0.917973 2.98828,0.917973 z"
         style="font-style:normal;font-variant:normal;font-weight:normal;font-stretch:normal;font-family:'Open Sans';-inkscape-font-specification:'Open Sans';letter-spacing:0px;fill:#ff7f2a"
         id="path10110"
         inkscape:connector-curvature="0" />
      <path
         d="m 369.74414,102.77935 0,-13.847654 q 0,-2.617187 -1.19141,-3.90625 -1.1914,-1.289062 -3.73046,-1.289062 -3.35938,0 -4.92188,1.816406 -1.5625,1.816406 -1.5625,5.996094 l 0,11.230466 -3.24219,0 0,-21.406248 2.63672,0 0.52735,2.929688 0.15625,0 q 0.99609,-1.582031 2.79296,-2.441406 1.79688,-0.878907 4.00391,-0.878907 3.86719,0 5.82031,1.875 1.95313,1.855469 1.95313,5.957032 l 0,13.964841 -3.24219,0 z"
         style="font-style:normal;font-variant:normal;font-weight:normal;font-stretch:normal;font-family:'Open Sans';-inkscape-font-specification:'Open Sans';letter-spacing:0px;fill:#ff7f2a"
         id="path10112"
         inkscape:connector-curvature="0" />
      <path
         d="m 388.18164,103.16998 q -4.64844,0 -7.20703,-2.85157 -2.53906,-2.871089 -2.53906,-8.105464 0,-5.371094 2.57812,-8.300781 2.59766,-2.929688 7.38281,-2.929688 1.54297,0 3.08594,0.332032 1.54297,0.332031 2.42188,0.78125 l -0.9961,2.753906 q -1.07422,-0.429688 -2.34375,-0.703125 -1.26953,-0.292969 -2.24609,-0.292969 -6.52344,0 -6.52344,8.320313 0,3.945312 1.58203,6.054687 1.60157,2.109379 4.72657,2.109379 2.67578,0 5.48828,-1.152348 l 0,2.871098 q -2.14844,1.11328 -5.41016,1.11328 z"
         style="font-style:normal;font-variant:normal;font-weight:normal;font-stretch:normal;font-family:'Open Sans';-inkscape-font-specification:'Open Sans';letter-spacing:0px;fill:#ff7f2a"
         id="path10114"
         inkscape:connector-curvature="0" />
      <path
         d="m 407.73242,103.16998 q -4.74609,0 -7.5,-2.89063 -2.73437,-2.890623 -2.73437,-8.027341 0,-5.175782 2.53906,-8.222657 2.55859,-3.046875 6.85547,-3.046875 4.02344,0 6.36719,2.65625 2.34375,2.636719 2.34375,6.972657 l 0,2.050781 -14.7461,0 q 0.0977,3.769531 1.89453,5.722656 1.81641,1.953129 5.09766,1.953129 3.45703,0 6.83594,-1.445316 l 0,2.890626 q -1.71875,0.74219 -3.26172,1.05469 -1.52344,0.33203 -3.69141,0.33203 z m -0.8789,-19.472659 q -2.57813,0 -4.1211,1.679688 -1.52344,1.679687 -1.79687,4.648437 l 11.1914,0 q 0,-3.066406 -1.36718,-4.6875 -1.36719,-1.640625 -3.90625,-1.640625 z"
         style="font-style:normal;font-variant:normal;font-weight:normal;font-stretch:normal;font-family:'Open Sans';-inkscape-font-specification:'Open Sans';letter-spacing:0px;fill:#ff7f2a"
         id="path10116"
         inkscape:connector-curvature="0" />
    </g>
  </g>
</svg>
