<?xml version="1.0" encoding="UTF-8" standalone="no"?>
<!-- Created with Inkscape (http://www.inkscape.org/) -->

<svg
   xmlns:dc="http://purl.org/dc/elements/1.1/"
   xmlns:cc="http://creativecommons.org/ns#"
   xmlns:rdf="http://www.w3.org/1999/02/22-rdf-syntax-ns#"
   xmlns:svg="http://www.w3.org/2000/svg"
   xmlns="http://www.w3.org/2000/svg"
   xmlns:sodipodi="http://sodipodi.sourceforge.net/DTD/sodipodi-0.dtd"
   xmlns:inkscape="http://www.inkscape.org/namespaces/inkscape"
   width="415.49988mm"
   height="172.55818mm"
   viewBox="0 0 1472.2436 611.42663"
   id="svg9282"
   version="1.1"
   inkscape:version="0.91 r13725"
   sodipodi:docname="scenes-03.svg">
  <defs
     id="defs9284">
    <marker
       inkscape:isstock="true"
       style="overflow:visible"
       id="marker6215-0"
       refX="0"
       refY="0"
       orient="auto"
       inkscape:stockid="Arrow2Mend">
      <path
         transform="scale(-0.6,-0.6)"
         d="M 8.7185878,4.0337352 -2.2072895,0.01601326 8.7185884,-4.0017078 c -1.7454984,2.3720609 -1.7354408,5.6174519 -6e-7,8.035443 z"
         style="fill:#ffffff;fill-opacity:1;fill-rule:evenodd;stroke:#ffffff;stroke-width:0.625;stroke-linejoin:round;stroke-opacity:1"
         id="path6217-6"
         inkscape:connector-curvature="0" />
    </marker>
  </defs>
  <sodipodi:namedview
     id="base"
     pagecolor="#ffffff"
     bordercolor="#666666"
     borderopacity="1.0"
     inkscape:pageopacity="0.0"
     inkscape:pageshadow="2"
     inkscape:zoom="3.2075928"
     inkscape:cx="725.88076"
     inkscape:cy="60.909301"
     inkscape:document-units="px"
     inkscape:current-layer="layer1"
     showgrid="false"
     fit-margin-top="0"
     fit-margin-left="0"
     fit-margin-right="0"
     fit-margin-bottom="0"
     inkscape:window-width="1366"
     inkscape:window-height="713"
     inkscape:window-x="0"
     inkscape:window-y="27"
     inkscape:window-maximized="1"
     inkscape:snap-bbox="true"
     inkscape:bbox-paths="true"
     inkscape:bbox-nodes="true"
     inkscape:snap-bbox-midpoints="true"
     inkscape:snap-bbox-edge-midpoints="true"
     inkscape:object-paths="true"
     inkscape:snap-intersection-paths="true"
     inkscape:object-nodes="true"
     inkscape:snap-smooth-nodes="true" />
  <metadata
     id="metadata9287">
    <rdf:RDF>
      <cc:Work
         rdf:about="">
        <dc:format>image/svg+xml</dc:format>
        <dc:type
           rdf:resource="http://purl.org/dc/dcmitype/StillImage" />
        <dc:title></dc:title>
      </cc:Work>
    </rdf:RDF>
  </metadata>
  <g
     inkscape:label="Layer 1"
     inkscape:groupmode="layer"
     id="layer1"
     transform="translate(620.02905,-240.66909)">
    <path
       style="opacity:1;fill:none;fill-opacity:0.99215686;stroke:#00a8ff;stroke-width:3.68440866;stroke-linecap:round;stroke-linejoin:round;stroke-miterlimit:4;stroke-dasharray:none;stroke-dashoffset:200;stroke-opacity:1"
       d="m -94.217663,707.64113 221.333423,0 c 10.20581,0 18.42204,8.21623 18.42204,18.42206 l 0,105.76826 c 0,10.20581 -8.21623,18.42204 -18.42204,18.42204 l -221.333423,0 c -10.205817,0 -18.422047,-8.21623 -18.422047,-18.42204 l 0,-105.76826 c 0,-10.20583 8.21623,-18.42206 18.422047,-18.42206 z"
       id="rect5600-0"
       inkscape:connector-curvature="0" />
    <g
       transform="matrix(1.8422043,0,0,1.8422043,-504.03484,-203.91853)"
       style="font-style:normal;font-weight:normal;font-size:40px;line-height:224.00000095%;font-family:sans-serif;letter-spacing:11.77000046px;word-spacing:0px;fill:#00a8ff;fill-opacity:1;stroke:none;stroke-width:1px;stroke-linecap:butt;stroke-linejoin:miter;stroke-opacity:1"
       id="flowRoot10755">
      <path
         d="m 245.87305,516.00753 0,3.84765 q -2.2461,-1.07422 -4.23828,-1.60156 -1.99219,-0.52734 -3.84766,-0.52734 -3.22266,0 -4.98047,1.25 -1.73828,1.25 -1.73828,3.55468 0,1.9336 1.15234,2.92969 1.17188,0.97656 4.41407,1.58203 l 2.38281,0.48828 q 4.41406,0.83985 6.5039,2.96875 2.10938,2.10938 2.10938,5.66407 0,4.23828 -2.85156,6.42578 -2.83203,2.1875 -8.32032,2.1875 -2.07031,0 -4.41406,-0.46875 -2.32422,-0.46875 -4.82422,-1.38672 l 0,-4.0625 q 2.40235,1.34766 4.70703,2.03125 2.30469,0.68359 4.53125,0.68359 3.37891,0 5.21485,-1.32812 1.83594,-1.32813 1.83594,-3.78906 0,-2.14844 -1.32813,-3.35938 -1.30859,-1.21094 -4.31641,-1.81641 l -2.40234,-0.46875 q -4.41406,-0.8789 -6.38672,-2.7539 -1.97265,-1.875 -1.97265,-5.21485 0,-3.86718 2.71484,-6.09375 2.73437,-2.22656 7.51953,-2.22656 2.05078,0 4.17969,0.3711 2.1289,0.37109 4.35547,1.11328 z"
         style="line-height:224.00000095%;letter-spacing:0px;fill:#00a8ff;fill-opacity:1"
         id="path11401" />
      <path
         d="m 257.18164,516.12471 0,6.21094 7.40234,0 0,2.79297 -7.40234,0 0,11.875 q 0,2.67578 0.72266,3.4375 0.74218,0.76172 2.98828,0.76172 l 3.6914,0 0,3.00781 -3.6914,0 q -4.16016,0 -5.74219,-1.54297 -1.58203,-1.5625 -1.58203,-5.66406 l 0,-11.875 -2.63672,0 0,-2.79297 2.63672,0 0,-6.21094 3.61328,0 z"
         style="line-height:224.00000095%;letter-spacing:0px;fill:#00a8ff;fill-opacity:1"
         id="path11403" />
      <path
         d="m 279.27148,533.21456 q -4.35546,0 -6.03515,0.99609 -1.67969,0.9961 -1.67969,3.39844 0,1.91406 1.25,3.04687 1.26953,1.11329 3.4375,1.11329 2.98828,0 4.78516,-2.10938 1.8164,-2.12891 1.8164,-5.64453 l 0,-0.80078 -3.57422,0 z m 7.16797,-1.48438 0,12.48047 -3.59375,0 0,-3.32031 q -1.23047,1.99219 -3.0664,2.94922 -1.83594,0.9375 -4.49219,0.9375 -3.35938,0 -5.35156,-1.875 -1.97266,-1.89453 -1.97266,-5.0586 0,-3.6914 2.46094,-5.5664 2.48047,-1.875 7.38281,-1.875 l 5.03906,0 0,-0.35156 q 0,-2.48047 -1.64062,-3.82813 -1.6211,-1.36719 -4.57031,-1.36719 -1.875,0 -3.65235,0.44922 -1.77734,0.44922 -3.41797,1.34766 l 0,-3.32031 q 1.97266,-0.76172 3.82813,-1.13282 1.85547,-0.39062 3.61328,-0.39062 4.74609,0 7.08984,2.46094 2.34375,2.46093 2.34375,7.46093 z"
         style="line-height:224.00000095%;letter-spacing:0px;fill:#00a8ff;fill-opacity:1"
         id="path11405" />
      <path
         d="m 308.25586,533.01925 q 0,-3.90625 -1.62109,-6.05469 -1.60157,-2.14844 -4.51172,-2.14844 -2.89063,0 -4.51172,2.14844 -1.60156,2.14844 -1.60156,6.05469 0,3.88671 1.60156,6.03515 1.62109,2.14844 4.51172,2.14844 2.91015,0 4.51172,-2.14844 1.62109,-2.14844 1.62109,-6.03515 z m 3.59375,8.47656 q 0,5.58594 -2.48047,8.30078 -2.48047,2.73437 -7.59766,2.73437 -1.89453,0 -3.57421,-0.29296 -1.67969,-0.27344 -3.26172,-0.85938 l 0,-3.49609 q 1.58203,0.85937 3.125,1.26953 1.54297,0.41015 3.14453,0.41015 3.53515,0 5.29297,-1.85546 1.75781,-1.83594 1.75781,-5.56641 l 0,-1.77734 q -1.11328,1.93359 -2.85156,2.89062 -1.73828,0.95703 -4.16016,0.95703 -4.02344,0 -6.48437,-3.0664 -2.46094,-3.06641 -2.46094,-8.125 0,-5.07813 2.46094,-8.14454 2.46093,-3.0664 6.48437,-3.0664 2.42188,0 4.16016,0.95703 1.73828,0.95703 2.85156,2.89062 l 0,-3.32031 3.59375,0 0,19.16016 z"
         style="line-height:224.00000095%;letter-spacing:0px;fill:#00a8ff;fill-opacity:1"
         id="path11407" />
      <path
         d="m 337.96289,532.37471 0,1.75782 -16.52344,0 q 0.23438,3.71093 2.22657,5.66406 2.01171,1.93359 5.58593,1.93359 2.07032,0 4.00391,-0.50781 1.95312,-0.50781 3.86719,-1.52344 l 0,3.39844 q -1.9336,0.82031 -3.96485,1.25 -2.03125,0.42969 -4.12109,0.42969 -5.23438,0 -8.30078,-3.04688 -3.04688,-3.04687 -3.04688,-8.24218 0,-5.3711 2.89063,-8.51563 2.91015,-3.16406 7.83203,-3.16406 4.41406,0 6.97266,2.85156 2.57812,2.83203 2.57812,7.71484 z m -3.59375,-1.05468 q -0.0391,-2.94922 -1.66016,-4.70703 -1.60156,-1.75782 -4.25781,-1.75782 -3.00781,0 -4.82422,1.69922 -1.79687,1.69922 -2.07031,4.78516 l 12.8125,-0.0195 z"
         style="line-height:224.00000095%;letter-spacing:0px;fill:#00a8ff;fill-opacity:1"
         id="path11409" />
    </g>
    <path
       sodipodi:nodetypes="sssssssss"
       style="opacity:1;fill:none;fill-opacity:0.99215686;stroke:#ff4f00;stroke-width:2;stroke-linecap:round;stroke-linejoin:round;stroke-miterlimit:4;stroke-dasharray:none;stroke-dashoffset:200;stroke-opacity:1"
       d="m 398.39492,527.4551 168.14597,0 c 5.54,0 10,4.46 10,10.00001 l 0,57.41397 c 0,5.54 -4.46,10 -10,10 l -168.14597,0 c -5.54,0 -10,-4.46 -10,-10 l 0,-57.41397 c 0,-5.54001 4.46,-10.00001 10,-10.00001 z"
       id="rect5600-0-2"
       inkscape:connector-curvature="0" />
    <g
       transform="translate(187.64954,32.371361)"
       style="font-style:normal;font-weight:normal;font-size:40px;line-height:224.00000095%;font-family:sans-serif;letter-spacing:11.77000046px;word-spacing:0px;fill:#ff4f00;fill-opacity:1;stroke:none;stroke-width:1px;stroke-linecap:butt;stroke-linejoin:miter;stroke-opacity:1"
       id="flowRoot10755-0">
      <path
         d="m 228.39258,515.0505 18.4375,0 0,3.32031 -14.49219,0 0,8.63281 13.88672,0 0,3.32031 -13.88672,0 0,10.56641 14.84375,0 0,3.32031 -18.78906,0 0,-29.16015 z"
         style="line-height:224.00000095%;letter-spacing:0px;fill:#ff4f00;fill-opacity:1"
         id="path11390" />
      <path
         d="m 271.73242,531.00753 0,13.20312 -3.59375,0 0,-13.08594 q 0,-3.10546 -1.21094,-4.64843 -1.21093,-1.54297 -3.63281,-1.54297 -2.91015,0 -4.58984,1.85547 -1.67969,1.85547 -1.67969,5.05859 l 0,12.36328 -3.61328,0 0,-21.875 3.61328,0 0,3.39844 q 1.28906,-1.97266 3.02734,-2.94922 1.75782,-0.97656 4.04297,-0.97656 3.76953,0 5.70313,2.34375 1.93359,2.32422 1.93359,6.85547 z"
         style="line-height:224.00000095%;letter-spacing:0px;fill:#ff4f00;fill-opacity:1"
         id="path11392" />
      <path
         d="m 297.65039,532.37471 0,1.75782 -16.52344,0 q 0.23438,3.71093 2.22657,5.66406 2.01171,1.93359 5.58593,1.93359 2.07032,0 4.00391,-0.50781 1.95312,-0.50781 3.86719,-1.52344 l 0,3.39844 q -1.9336,0.82031 -3.96485,1.25 -2.03125,0.42969 -4.12109,0.42969 -5.23438,0 -8.30078,-3.04688 -3.04688,-3.04687 -3.04688,-8.24218 0,-5.3711 2.89063,-8.51563 2.91015,-3.16406 7.83203,-3.16406 4.41406,0 6.97266,2.85156 2.57812,2.83203 2.57812,7.71484 z m -3.59375,-1.05468 q -0.0391,-2.94922 -1.66016,-4.70703 -1.60156,-1.75782 -4.25781,-1.75782 -3.00781,0 -4.82422,1.69922 -1.79687,1.69922 -2.07031,4.78516 l 12.8125,-0.0195 z"
         style="line-height:224.00000095%;letter-spacing:0px;fill:#ff4f00;fill-opacity:1"
         id="path11394" />
      <path
         d="m 320.58008,526.53487 q 1.34765,-2.42187 3.22265,-3.57422 1.875,-1.15234 4.41407,-1.15234 3.41797,0 5.27343,2.40234 1.85547,2.38281 1.85547,6.79688 l 0,13.20312 -3.61328,0 0,-13.08594 q 0,-3.14453 -1.11328,-4.66796 -1.11328,-1.52344 -3.39844,-1.52344 -2.79297,0 -4.41406,1.85547 -1.62109,1.85547 -1.62109,5.05859 l 0,12.36328 -3.61328,0 0,-13.08594 q 0,-3.16406 -1.11329,-4.66796 -1.11328,-1.52344 -3.4375,-1.52344 -2.7539,0 -4.375,1.875 -1.62109,1.85547 -1.62109,5.03906 l 0,12.36328 -3.61328,0 0,-21.875 3.61328,0 0,3.39844 q 1.23047,-2.01172 2.94922,-2.96875 1.71875,-0.95703 4.08203,-0.95703 2.38281,0 4.04297,1.21094 1.67969,1.21093 2.48047,3.51562 z"
         style="line-height:224.00000095%;letter-spacing:0px;fill:#ff4f00;fill-opacity:1"
         id="path11396" />
      <path
         d="m 351.63477,546.2419 q -1.52344,3.90625 -2.96875,5.09766 -1.44532,1.1914 -3.86719,1.1914 l -2.8711,0 0,-3.00781 2.10938,0 q 1.48437,0 2.30469,-0.70312 0.82031,-0.70313 1.8164,-3.32032 l 0.64453,-1.64062 -8.84765,-21.52344 3.80859,0 6.83594,17.10938 6.83594,-17.10938 3.80859,0 -9.60937,23.90625 z"
         style="line-height:224.00000095%;letter-spacing:0px;fill:#ff4f00;fill-opacity:1"
         id="path11398" />
    </g>
    <path
       sodipodi:nodetypes="sssssssss"
       style="opacity:1;fill:none;fill-opacity:0.99215686;stroke:#00fffc;stroke-width:2;stroke-linecap:round;stroke-linejoin:round;stroke-miterlimit:4;stroke-dasharray:none;stroke-dashoffset:200;stroke-opacity:1"
       d="m 483.37897,699.28309 168.14597,0 c 5.54,0 10,4.46 10,10.00001 l 0,57.41397 c 0,5.54 -4.46,10 -10,10 l -168.14597,0 c -5.54,0 -10,-4.46 -10,-10 l 0,-57.41397 c 0,-5.54001 4.46,-10.00001 10,-10.00001 z"
       id="rect5600-0-2-6"
       inkscape:connector-curvature="0" />
    <g
       transform="translate(272.63359,204.19935)"
       style="font-style:normal;font-weight:normal;font-size:40px;line-height:224.00000095%;font-family:sans-serif;letter-spacing:11.77000046px;word-spacing:0px;fill:#00fffc;fill-opacity:1;stroke:none;stroke-width:1px;stroke-linecap:butt;stroke-linejoin:miter;stroke-opacity:1"
       id="flowRoot10755-0-6">
      <path
         d="m 228.39258,515.0505 5.8789,0 7.44141,19.84375 7.48047,-19.84375 5.87891,0 0,29.16015 -3.84766,0 0,-25.60547 -7.51953,20 -3.96485,0 -7.51953,-20 0,25.60547 -3.82812,0 0,-29.16015 z"
         style="line-height:224.00000095%;letter-spacing:0px;fill:#00fffc;fill-opacity:1"
         id="path11341" />
      <path
         d="m 262.76758,522.33565 3.59375,0 0,21.875 -3.59375,0 0,-21.875 z m 0,-8.51562 3.59375,0 0,4.55078 -3.59375,0 0,-4.55078 z"
         style="line-height:224.00000095%;letter-spacing:0px;fill:#00fffc;fill-opacity:1"
         id="path11343" />
      <path
         d="m 287.80664,522.98018 0,3.39844 q -1.52344,-0.78125 -3.16406,-1.17187 -1.64063,-0.39063 -3.39844,-0.39063 -2.67578,0 -4.02344,0.82031 -1.32812,0.82032 -1.32812,2.46094 0,1.25 0.95703,1.97266 0.95703,0.70312 3.84766,1.34765 l 1.23046,0.27344 q 3.82813,0.82031 5.42969,2.32422 1.6211,1.48437 1.6211,4.16016 0,3.04687 -2.42188,4.82421 -2.40234,1.77735 -6.62109,1.77735 -1.75782,0 -3.67188,-0.35156 -1.89453,-0.33204 -4.0039,-1.01563 l 0,-3.71094 q 1.99218,1.03516 3.92578,1.5625 1.93359,0.50782 3.82812,0.50782 2.53906,0 3.90625,-0.85938 1.36719,-0.87891 1.36719,-2.46094 0,-1.46484 -0.99609,-2.24609 -0.97657,-0.78125 -4.31641,-1.50391 l -1.25,-0.29297 q -3.33984,-0.70312 -4.82422,-2.14843 -1.48437,-1.46485 -1.48437,-4.00391 0,-3.08594 2.1875,-4.76562 2.1875,-1.67969 6.21093,-1.67969 1.99219,0 3.75,0.29297 1.75782,0.29297 3.24219,0.8789 z"
         style="line-height:224.00000095%;letter-spacing:0px;fill:#00fffc;fill-opacity:1"
         id="path11345" />
      <path
         d="m 308.66602,522.98018 0,3.39844 q -1.52344,-0.78125 -3.16407,-1.17187 -1.64062,-0.39063 -3.39843,-0.39063 -2.67579,0 -4.02344,0.82031 -1.32813,0.82032 -1.32813,2.46094 0,1.25 0.95703,1.97266 0.95704,0.70312 3.84766,1.34765 l 1.23047,0.27344 q 3.82812,0.82031 5.42969,2.32422 1.62109,1.48437 1.62109,4.16016 0,3.04687 -2.42187,4.82421 -2.40235,1.77735 -6.6211,1.77735 -1.75781,0 -3.67187,-0.35156 -1.89453,-0.33204 -4.00391,-1.01563 l 0,-3.71094 q 1.99219,1.03516 3.92578,1.5625 1.9336,0.50782 3.82813,0.50782 2.53906,0 3.90625,-0.85938 1.36718,-0.87891 1.36718,-2.46094 0,-1.46484 -0.99609,-2.24609 -0.97656,-0.78125 -4.31641,-1.50391 l -1.25,-0.29297 q -3.33984,-0.70312 -4.82421,-2.14843 -1.48438,-1.46485 -1.48438,-4.00391 0,-3.08594 2.1875,-4.76562 2.1875,-1.67969 6.21094,-1.67969 1.99219,0 3.75,0.29297 1.75781,0.29297 3.24219,0.8789 z"
         style="line-height:224.00000095%;letter-spacing:0px;fill:#00fffc;fill-opacity:1"
         id="path11347" />
      <path
         d="m 315.58008,522.33565 3.59375,0 0,21.875 -3.59375,0 0,-21.875 z m 0,-8.51562 3.59375,0 0,4.55078 -3.59375,0 0,-4.55078 z"
         style="line-height:224.00000095%;letter-spacing:0px;fill:#00fffc;fill-opacity:1"
         id="path11349" />
      <path
         d="m 326.67383,513.82003 3.59375,0 0,30.39062 -3.59375,0 0,-30.39062 z"
         style="line-height:224.00000095%;letter-spacing:0px;fill:#00fffc;fill-opacity:1"
         id="path11351" />
      <path
         d="m 356.47852,532.37471 0,1.75782 -16.52344,0 q 0.23437,3.71093 2.22656,5.66406 2.01172,1.93359 5.58594,1.93359 2.07031,0 4.0039,-0.50781 1.95313,-0.50781 3.86719,-1.52344 l 0,3.39844 q -1.93359,0.82031 -3.96484,1.25 -2.03125,0.42969 -4.1211,0.42969 -5.23437,0 -8.30078,-3.04688 -3.04687,-3.04687 -3.04687,-8.24218 0,-5.3711 2.89062,-8.51563 2.91016,-3.16406 7.83203,-3.16406 4.41407,0 6.97266,2.85156 2.57813,2.83203 2.57813,7.71484 z m -3.59375,-1.05468 q -0.0391,-2.94922 -1.66016,-4.70703 -1.60156,-1.75782 -4.25781,-1.75782 -3.00782,0 -4.82422,1.69922 -1.79688,1.69922 -2.07031,4.78516 l 12.8125,-0.0195 z"
         style="line-height:224.00000095%;letter-spacing:0px;fill:#00fffc;fill-opacity:1"
         id="path11353" />
    </g>
    <path
       sodipodi:nodetypes="sssssssss"
       style="opacity:1;fill:none;fill-opacity:0.99215686;stroke:#ff4f00;stroke-width:2;stroke-linecap:round;stroke-linejoin:round;stroke-miterlimit:4;stroke-dasharray:none;stroke-dashoffset:200;stroke-opacity:1"
       d="m 673.06867,244.62519 168.14597,0 c 5.54,0 10,4.46 10,10.00001 l 0,57.41397 c 0,5.54 -4.46,10 -10,10 l -168.14597,0 c -5.54,0 -10,-4.46 -10,-10 l 0,-57.41397 c 0,-5.54001 4.46,-10.00001 10,-10.00001 z"
       id="rect5600-0-2-4"
       inkscape:connector-curvature="0" />
    <g
       transform="translate(462.32329,-250.45855)"
       style="font-style:normal;font-weight:normal;font-size:40px;line-height:224.00000095%;font-family:sans-serif;letter-spacing:11.77000046px;word-spacing:0px;fill:#ff4f00;fill-opacity:1;stroke:none;stroke-width:1px;stroke-linecap:butt;stroke-linejoin:miter;stroke-opacity:1"
       id="flowRoot10755-0-8">
      <path
         d="m 228.39258,515.0505 5.8789,0 7.44141,19.84375 7.48047,-19.84375 5.87891,0 0,29.16015 -3.84766,0 0,-25.60547 -7.51953,20 -3.96485,0 -7.51953,-20 0,25.60547 -3.82812,0 0,-29.16015 z"
         style="line-height:224.00000095%;letter-spacing:0px;fill:#ff4f00;fill-opacity:1"
         id="path11280" />
      <path
         d="m 272.70898,533.21456 q -4.35546,0 -6.03515,0.99609 -1.67969,0.9961 -1.67969,3.39844 0,1.91406 1.25,3.04687 1.26953,1.11329 3.4375,1.11329 2.98828,0 4.78516,-2.10938 1.8164,-2.12891 1.8164,-5.64453 l 0,-0.80078 -3.57422,0 z m 7.16797,-1.48438 0,12.48047 -3.59375,0 0,-3.32031 q -1.23047,1.99219 -3.0664,2.94922 -1.83594,0.9375 -4.49219,0.9375 -3.35938,0 -5.35156,-1.875 -1.97266,-1.89453 -1.97266,-5.0586 0,-3.6914 2.46094,-5.5664 2.48047,-1.875 7.38281,-1.875 l 5.03906,0 0,-0.35156 q 0,-2.48047 -1.64062,-3.82813 -1.6211,-1.36719 -4.57031,-1.36719 -1.875,0 -3.65235,0.44922 -1.77734,0.44922 -3.41797,1.34766 l 0,-3.32031 q 1.97266,-0.76172 3.82813,-1.13282 1.85547,-0.39062 3.61328,-0.39062 4.74609,0 7.08984,2.46094 2.34375,2.46093 2.34375,7.46093 z"
         style="line-height:224.00000095%;letter-spacing:0px;fill:#ff4f00;fill-opacity:1"
         id="path11282" />
      <path
         d="m 299.97461,525.69503 q -0.60547,-0.35157 -1.32813,-0.50782 -0.70312,-0.17578 -1.5625,-0.17578 -3.04687,0 -4.6875,1.99219 -1.62109,1.97266 -1.62109,5.68359 l 0,11.52344 -3.61328,0 0,-21.875 3.61328,0 0,3.39844 q 1.13281,-1.99219 2.94922,-2.94922 1.81641,-0.97656 4.41406,-0.97656 0.3711,0 0.82031,0.0586 0.44922,0.0391 0.9961,0.13672 l 0.0195,3.69141 z"
         style="line-height:224.00000095%;letter-spacing:0px;fill:#ff4f00;fill-opacity:1"
         id="path11284" />
      <path
         d="m 303.64648,513.82003 3.61329,0 0,17.94922 10.72265,-9.4336 4.58985,0 -11.60157,10.23438 12.08985,11.64062 -4.6875,0 -11.11328,-10.68359 0,10.68359 -3.61329,0 0,-30.39062 z"
         style="line-height:224.00000095%;letter-spacing:0px;fill:#ff4f00;fill-opacity:1"
         id="path11286" />
      <path
         d="m 344.29102,532.37471 0,1.75782 -16.52344,0 q 0.23437,3.71093 2.22656,5.66406 2.01172,1.93359 5.58594,1.93359 2.07031,0 4.0039,-0.50781 1.95313,-0.50781 3.86719,-1.52344 l 0,3.39844 q -1.93359,0.82031 -3.96484,1.25 -2.03125,0.42969 -4.1211,0.42969 -5.23437,0 -8.30078,-3.04688 -3.04687,-3.04687 -3.04687,-8.24218 0,-5.3711 2.89062,-8.51563 2.91016,-3.16406 7.83203,-3.16406 4.41407,0 6.97266,2.85156 2.57813,2.83203 2.57813,7.71484 z m -3.59375,-1.05468 q -0.0391,-2.94922 -1.66016,-4.70703 -1.60156,-1.75782 -4.25781,-1.75782 -3.00782,0 -4.82422,1.69922 -1.79688,1.69922 -2.07031,4.78516 l 12.8125,-0.0195 z"
         style="line-height:224.00000095%;letter-spacing:0px;fill:#ff4f00;fill-opacity:1"
         id="path11288" />
      <path
         d="m 353.74414,516.12471 0,6.21094 7.40234,0 0,2.79297 -7.40234,0 0,11.875 q 0,2.67578 0.72266,3.4375 0.74218,0.76172 2.98828,0.76172 l 3.6914,0 0,3.00781 -3.6914,0 q -4.16016,0 -5.74219,-1.54297 -1.58203,-1.5625 -1.58203,-5.66406 l 0,-11.875 -2.63672,0 0,-2.79297 2.63672,0 0,-6.21094 3.61328,0 z"
         style="line-height:224.00000095%;letter-spacing:0px;fill:#ff4f00;fill-opacity:1"
         id="path11290" />
    </g>
    <path
       sodipodi:nodetypes="sssssssss"
       style="opacity:1;fill:none;fill-opacity:0.99215686;stroke:#ff4f00;stroke-width:2;stroke-linecap:round;stroke-linejoin:round;stroke-miterlimit:4;stroke-dasharray:none;stroke-dashoffset:200;stroke-opacity:1"
       d="m 379.71501,244.62519 168.14597,0 c 5.54,0 10,4.46 10,10.00001 l 0,57.41397 c 0,5.54 -4.46,10 -10,10 l -168.14597,0 c -5.54,0 -10,-4.46 -10,-10 l 0,-57.41397 c 0,-5.54001 4.46,-10.00001 10,-10.00001 z"
       id="rect5600-0-2-2"
       inkscape:connector-curvature="0" />
    <g
       transform="translate(193.45206,-250.45855)"
       style="font-style:normal;font-weight:normal;font-size:40px;line-height:224.00000095%;font-family:sans-serif;letter-spacing:11.77000046px;word-spacing:0px;fill:#ff4f00;fill-opacity:1;stroke:none;stroke-width:1px;stroke-linecap:butt;stroke-linejoin:miter;stroke-opacity:1"
       id="flowRoot10755-0-2">
      <path
         d="m 228.39258,515.0505 3.94531,0 0,11.95312 14.33594,0 0,-11.95312 3.94531,0 0,29.16015 -3.94531,0 0,-13.88672 -14.33594,0 0,13.88672 -3.94531,0 0,-29.16015 z"
         style="line-height:224.00000095%;letter-spacing:0px;fill:#ff4f00;fill-opacity:1"
         id="path11293" />
      <path
         d="m 258.02148,515.0505 3.96485,0 0,17.71484 q 0,4.6875 1.69922,6.75781 1.69922,2.05078 5.50781,2.05078 3.78906,0 5.48828,-2.05078 1.69922,-2.07031 1.69922,-6.75781 l 0,-17.71484 3.96484,0 0,18.20312 q 0,5.70313 -2.83203,8.61328 -2.8125,2.91016 -8.32031,2.91016 -5.52734,0 -8.35938,-2.91016 -2.8125,-2.91015 -2.8125,-8.61328 l 0,-18.20312 z"
         style="line-height:224.00000095%;letter-spacing:0px;fill:#ff4f00;fill-opacity:1"
         id="path11295" />
      <path
         d="m 291.71289,518.29268 0,22.67578 4.76563,0 q 6.03515,0 8.82812,-2.73437 2.8125,-2.73438 2.8125,-8.63281 0,-5.85938 -2.8125,-8.57422 -2.79297,-2.73438 -8.82812,-2.73438 l -4.76563,0 z m -3.94531,-3.24218 8.10547,0 q 8.47656,0 12.4414,3.53515 3.96485,3.51563 3.96485,11.01563 0,7.53906 -3.98438,11.07422 -3.98437,3.53515 -12.42187,3.53515 l -8.10547,0 0,-29.16015 z"
         style="line-height:224.00000095%;letter-spacing:0px;fill:#ff4f00;fill-opacity:1"
         id="path11297" />
    </g>
    <path
       sodipodi:nodetypes="sssssssss"
       style="opacity:1;fill:none;fill-opacity:0.99215686;stroke:#ff4f00;stroke-width:2;stroke-linecap:round;stroke-linejoin:round;stroke-miterlimit:4;stroke-dasharray:none;stroke-dashoffset:200;stroke-opacity:1"
       d="m 101.36133,241.66909 202.14597,0 c 5.54,0 10,4.46 10,10.00001 l 0,57.41397 c 0,5.54 -4.46,10 -10,10 l -202.14597,0 c -5.54,0 -10,-4.46 -10,-10 l 0,-57.41397 c 0,-5.54001 4.46,-10.00001 10,-10.00001 z"
       id="rect5600-0-2-5"
       inkscape:connector-curvature="0" />
    <g
       transform="translate(-109.38405,-253.41465)"
       style="font-style:normal;font-weight:normal;font-size:40px;line-height:224.00000095%;font-family:sans-serif;letter-spacing:11.77000046px;word-spacing:0px;fill:#ff4f00;fill-opacity:1;stroke:none;stroke-width:1px;stroke-linecap:butt;stroke-linejoin:miter;stroke-opacity:1"
       id="flowRoot10755-0-9">
      <path
         d="m 240.22852,517.72628 q -4.29688,0 -6.83594,3.20312 -2.51953,3.20313 -2.51953,8.73047 0,5.50781 2.51953,8.71094 2.53906,3.20312 6.83594,3.20312 4.29687,0 6.79687,-3.20312 2.51953,-3.20313 2.51953,-8.71094 0,-5.52734 -2.51953,-8.73047 -2.5,-3.20312 -6.79687,-3.20312 z m 0,-3.20313 q 6.13281,0 9.80468,4.1211 3.67188,4.10156 3.67188,11.01562 0,6.89453 -3.67188,11.01563 -3.67187,4.10156 -9.80468,4.10156 -6.15235,0 -9.84375,-4.10156 -3.67188,-4.10157 -3.67188,-11.01563 0,-6.91406 3.67188,-11.01562 3.6914,-4.1211 9.84375,-4.1211 z"
         style="line-height:224.00000095%;letter-spacing:0px;fill:#ff4f00;fill-opacity:1"
         id="path11300" />
      <path
         d="m 275.42383,533.29268 q 0,-3.96484 -1.64063,-6.21093 -1.62109,-2.26563 -4.47265,-2.26563 -2.85157,0 -4.49219,2.26563 -1.62109,2.24609 -1.62109,6.21093 0,3.96485 1.62109,6.23047 1.64062,2.2461 4.49219,2.2461 2.85156,0 4.47265,-2.2461 1.64063,-2.26562 1.64063,-6.23047 z m -12.22656,-7.63672 q 1.13281,-1.95312 2.85156,-2.89062 1.73828,-0.95703 4.14062,-0.95703 3.98438,0 6.46485,3.16406 2.5,3.16406 2.5,8.32031 0,5.15625 -2.5,8.32032 -2.48047,3.16406 -6.46485,3.16406 -2.40234,0 -4.14062,-0.9375 -1.71875,-0.95703 -2.85156,-2.91016 l 0,3.28125 -3.61329,0 0,-30.39062 3.61329,0 0,11.83593 z"
         style="line-height:224.00000095%;letter-spacing:0px;fill:#ff4f00;fill-opacity:1"
         id="path11302" />
      <path
         d="m 299.05664,522.98018 0,3.39844 q -1.52344,-0.78125 -3.16406,-1.17187 -1.64063,-0.39063 -3.39844,-0.39063 -2.67578,0 -4.02344,0.82031 -1.32812,0.82032 -1.32812,2.46094 0,1.25 0.95703,1.97266 0.95703,0.70312 3.84766,1.34765 l 1.23046,0.27344 q 3.82813,0.82031 5.42969,2.32422 1.6211,1.48437 1.6211,4.16016 0,3.04687 -2.42188,4.82421 -2.40234,1.77735 -6.62109,1.77735 -1.75782,0 -3.67188,-0.35156 -1.89453,-0.33204 -4.0039,-1.01563 l 0,-3.71094 q 1.99218,1.03516 3.92578,1.5625 1.93359,0.50782 3.82812,0.50782 2.53906,0 3.90625,-0.85938 1.36719,-0.87891 1.36719,-2.46094 0,-1.46484 -0.99609,-2.24609 -0.97657,-0.78125 -4.31641,-1.50391 l -1.25,-0.29297 q -3.33984,-0.70312 -4.82422,-2.14843 -1.48437,-1.46485 -1.48437,-4.00391 0,-3.08594 2.1875,-4.76562 2.1875,-1.67969 6.21093,-1.67969 1.99219,0 3.75,0.29297 1.75782,0.29297 3.24219,0.8789 z"
         style="line-height:224.00000095%;letter-spacing:0px;fill:#ff4f00;fill-opacity:1"
         id="path11304" />
      <path
         d="m 309.52539,516.12471 0,6.21094 7.40234,0 0,2.79297 -7.40234,0 0,11.875 q 0,2.67578 0.72266,3.4375 0.74218,0.76172 2.98828,0.76172 l 3.6914,0 0,3.00781 -3.6914,0 q -4.16016,0 -5.74219,-1.54297 -1.58203,-1.5625 -1.58203,-5.66406 l 0,-11.875 -2.63672,0 0,-2.79297 2.63672,0 0,-6.21094 3.61328,0 z"
         style="line-height:224.00000095%;letter-spacing:0px;fill:#ff4f00;fill-opacity:1"
         id="path11306" />
      <path
         d="m 331.61523,533.21456 q -4.35546,0 -6.03515,0.99609 -1.67969,0.9961 -1.67969,3.39844 0,1.91406 1.25,3.04687 1.26953,1.11329 3.4375,1.11329 2.98828,0 4.78516,-2.10938 1.8164,-2.12891 1.8164,-5.64453 l 0,-0.80078 -3.57422,0 z m 7.16797,-1.48438 0,12.48047 -3.59375,0 0,-3.32031 q -1.23047,1.99219 -3.0664,2.94922 -1.83594,0.9375 -4.49219,0.9375 -3.35938,0 -5.35156,-1.875 -1.97266,-1.89453 -1.97266,-5.0586 0,-3.6914 2.46094,-5.5664 2.48047,-1.875 7.38281,-1.875 l 5.03906,0 0,-0.35156 q 0,-2.48047 -1.64062,-3.82813 -1.6211,-1.36719 -4.57031,-1.36719 -1.875,0 -3.65235,0.44922 -1.77734,0.44922 -3.41797,1.34766 l 0,-3.32031 q 1.97266,-0.76172 3.82813,-1.13282 1.85547,-0.39062 3.61328,-0.39062 4.74609,0 7.08984,2.46094 2.34375,2.46093 2.34375,7.46093 z"
         style="line-height:224.00000095%;letter-spacing:0px;fill:#ff4f00;fill-opacity:1"
         id="path11308" />
      <path
         d="m 361.94727,523.1755 0,3.35937 q -1.52344,-0.83984 -3.06641,-1.25 -1.52344,-0.42969 -3.08594,-0.42969 -3.49609,0 -5.42969,2.22657 -1.93359,2.20703 -1.93359,6.21093 0,4.00391 1.93359,6.23047 1.9336,2.20703 5.42969,2.20703 1.5625,0 3.08594,-0.41015 1.54297,-0.42969 3.06641,-1.26953 l 0,3.32031 q -1.50391,0.70312 -3.125,1.05469 -1.60157,0.35156 -3.41797,0.35156 -4.94141,0 -7.85157,-3.10547 -2.91015,-3.10547 -2.91015,-8.37891 0,-5.35156 2.92969,-8.41797 2.94921,-3.0664 8.0664,-3.0664 1.66016,0 3.24219,0.35156 1.58203,0.33203 3.06641,1.01563 z"
         style="line-height:224.00000095%;letter-spacing:0px;fill:#ff4f00;fill-opacity:1"
         id="path11310" />
      <path
         d="m 368.23633,513.82003 3.59375,0 0,30.39062 -3.59375,0 0,-30.39062 z"
         style="line-height:224.00000095%;letter-spacing:0px;fill:#ff4f00;fill-opacity:1"
         id="path11312" />
      <path
         d="m 398.04102,532.37471 0,1.75782 -16.52344,0 q 0.23437,3.71093 2.22656,5.66406 2.01172,1.93359 5.58594,1.93359 2.07031,0 4.0039,-0.50781 1.95313,-0.50781 3.86719,-1.52344 l 0,3.39844 q -1.93359,0.82031 -3.96484,1.25 -2.03125,0.42969 -4.1211,0.42969 -5.23437,0 -8.30078,-3.04688 -3.04687,-3.04687 -3.04687,-8.24218 0,-5.3711 2.89062,-8.51563 2.91016,-3.16406 7.83203,-3.16406 4.41407,0 6.97266,2.85156 2.57813,2.83203 2.57813,7.71484 z m -3.59375,-1.05468 q -0.0391,-2.94922 -1.66016,-4.70703 -1.60156,-1.75782 -4.25781,-1.75782 -3.00782,0 -4.82422,1.69922 -1.79688,1.69922 -2.07031,4.78516 l 12.8125,-0.0195 z"
         style="line-height:224.00000095%;letter-spacing:0px;fill:#ff4f00;fill-opacity:1"
         id="path11314" />
    </g>
    <path
       inkscape:connector-curvature="0"
       id="path10927"
       d="m -396.46618,325.45185 186.14597,0 c 5.54,0 10,4.46 10,10.00001 l 0,57.41397 c 0,5.54 -4.46,10 -10,10 l -186.14597,0 c -5.54,0 -10,-4.46 -10,-10 l 0,-57.41397 c 0,-5.54001 4.46,-10.00001 10,-10.00001 z"
       style="opacity:1;fill:none;fill-opacity:0.99215686;stroke:#ff4f00;stroke-width:2;stroke-linecap:round;stroke-linejoin:round;stroke-miterlimit:4;stroke-dasharray:none;stroke-dashoffset:200;stroke-opacity:1"
       sodipodi:nodetypes="sssssssss" />
    <g
       transform="translate(-607.21156,-169.63189)"
       style="font-style:normal;font-weight:normal;font-size:40px;line-height:224.00000095%;font-family:sans-serif;letter-spacing:11.77000046px;word-spacing:0px;fill:#ff4f00;fill-opacity:1;stroke:none;stroke-width:1px;stroke-linecap:butt;stroke-linejoin:miter;stroke-opacity:1"
       id="flowRoot10929">
      <path
         d="m 225.79492,515.0505 3.98438,0 6.13281,24.64843 6.11328,-24.64843 4.43359,0 6.13282,24.64843 6.11328,-24.64843 4.0039,0 -7.32421,29.16015 -4.96094,0 -6.15235,-25.3125 -6.21093,25.3125 -4.96094,0 -7.30469,-29.16015 z"
         style="line-height:224.00000095%;letter-spacing:0px;fill:#ff4f00;fill-opacity:1"
         id="path11317" />
      <path
         d="m 284.13477,532.37471 0,1.75782 -16.52344,0 q 0.23437,3.71093 2.22656,5.66406 2.01172,1.93359 5.58594,1.93359 2.07031,0 4.0039,-0.50781 1.95313,-0.50781 3.86719,-1.52344 l 0,3.39844 q -1.93359,0.82031 -3.96484,1.25 -2.03125,0.42969 -4.1211,0.42969 -5.23437,0 -8.30078,-3.04688 -3.04687,-3.04687 -3.04687,-8.24218 0,-5.3711 2.89062,-8.51563 2.91016,-3.16406 7.83203,-3.16406 4.41407,0 6.97266,2.85156 2.57813,2.83203 2.57813,7.71484 z m -3.59375,-1.05468 q -0.0391,-2.94922 -1.66016,-4.70703 -1.60156,-1.75782 -4.25781,-1.75782 -3.00782,0 -4.82422,1.69922 -1.79688,1.69922 -2.07031,4.78516 l 12.8125,-0.0195 z"
         style="line-height:224.00000095%;letter-spacing:0px;fill:#ff4f00;fill-opacity:1"
         id="path11319" />
      <path
         d="m 299.97461,533.21456 q -4.35547,0 -6.03516,0.99609 -1.67968,0.9961 -1.67968,3.39844 0,1.91406 1.25,3.04687 1.26953,1.11329 3.4375,1.11329 2.98828,0 4.78515,-2.10938 1.81641,-2.12891 1.81641,-5.64453 l 0,-0.80078 -3.57422,0 z m 7.16797,-1.48438 0,12.48047 -3.59375,0 0,-3.32031 q -1.23047,1.99219 -3.06641,2.94922 -1.83594,0.9375 -4.49219,0.9375 -3.35937,0 -5.35156,-1.875 -1.97265,-1.89453 -1.97265,-5.0586 0,-3.6914 2.46093,-5.5664 2.48047,-1.875 7.38282,-1.875 l 5.03906,0 0,-0.35156 q 0,-2.48047 -1.64063,-3.82813 -1.62109,-1.36719 -4.57031,-1.36719 -1.875,0 -3.65234,0.44922 -1.77735,0.44922 -3.41797,1.34766 l 0,-3.32031 q 1.97265,-0.76172 3.82812,-1.13282 1.85547,-0.39062 3.61328,-0.39062 4.7461,0 7.08985,2.46094 2.34375,2.46093 2.34375,7.46093 z"
         style="line-height:224.00000095%;letter-spacing:0px;fill:#ff4f00;fill-opacity:1"
         id="path11321" />
      <path
         d="m 318.04102,540.9294 0,11.60156 -3.61329,0 0,-30.19531 3.61329,0 0,3.32031 q 1.13281,-1.95312 2.85156,-2.89062 1.73828,-0.95703 4.14062,-0.95703 3.98438,0 6.46485,3.16406 2.5,3.16406 2.5,8.32031 0,5.15625 -2.5,8.32032 -2.48047,3.16406 -6.46485,3.16406 -2.40234,0 -4.14062,-0.9375 -1.71875,-0.95703 -2.85156,-2.91016 z m 12.22656,-7.63672 q 0,-3.96484 -1.64063,-6.21093 -1.62109,-2.26563 -4.47265,-2.26563 -2.85157,0 -4.49219,2.26563 -1.62109,2.24609 -1.62109,6.21093 0,3.96485 1.62109,6.23047 1.64062,2.2461 4.49219,2.2461 2.85156,0 4.47265,-2.2461 1.64063,-2.26562 1.64063,-6.23047 z"
         style="line-height:224.00000095%;letter-spacing:0px;fill:#ff4f00;fill-opacity:1"
         id="path11323" />
      <path
         d="m 348.43164,524.85518 q -2.89062,0 -4.57031,2.26563 -1.67969,2.24609 -1.67969,6.17187 0,3.92578 1.66016,6.19141 1.67968,2.24609 4.58984,2.24609 2.87109,0 4.55078,-2.26562 1.67969,-2.26563 1.67969,-6.17188 0,-3.88672 -1.67969,-6.15234 -1.67969,-2.28516 -4.55078,-2.28516 z m 0,-3.04687 q 4.6875,0 7.36328,3.04687 2.67578,3.04688 2.67578,8.4375 0,5.3711 -2.67578,8.4375 -2.67578,3.04688 -7.36328,3.04688 -4.70703,0 -7.38281,-3.04688 -2.65625,-3.0664 -2.65625,-8.4375 0,-5.39062 2.65625,-8.4375 2.67578,-3.04687 7.38281,-3.04687 z"
         style="line-height:224.00000095%;letter-spacing:0px;fill:#ff4f00;fill-opacity:1"
         id="path11325" />
      <path
         d="m 382.5918,531.00753 0,13.20312 -3.59375,0 0,-13.08594 q 0,-3.10546 -1.21094,-4.64843 -1.21094,-1.54297 -3.63281,-1.54297 -2.91016,0 -4.58985,1.85547 -1.67968,1.85547 -1.67968,5.05859 l 0,12.36328 -3.61329,0 0,-21.875 3.61329,0 0,3.39844 q 1.28906,-1.97266 3.02734,-2.94922 1.75781,-0.97656 4.04297,-0.97656 3.76953,0 5.70312,2.34375 1.9336,2.32422 1.9336,6.85547 z"
         style="line-height:224.00000095%;letter-spacing:0px;fill:#ff4f00;fill-opacity:1"
         id="path11327" />
    </g>
    <path
       inkscape:connector-curvature="0"
       id="path10939"
       d="m -609.02905,714.24758 168.14597,0 c 5.54,0 10,4.46 10,10.00001 l 0,57.41397 c 0,5.54 -4.46,10 -10,10 l -168.14597,0 c -5.54,0 -10,-4.46 -10,-10 l 0,-57.41397 c 0,-5.54001 4.46,-10.00001 10,-10.00001 z"
       style="opacity:1;fill:none;fill-opacity:0.99215686;stroke:#00fffc;stroke-width:2;stroke-linecap:round;stroke-linejoin:round;stroke-miterlimit:4;stroke-dasharray:none;stroke-dashoffset:200;stroke-opacity:1"
       sodipodi:nodetypes="sssssssss" />
    <g
       transform="translate(-808.55372,223.65603)"
       style="font-style:normal;font-weight:normal;font-size:40px;line-height:224.00000095%;font-family:sans-serif;letter-spacing:11.77000046px;word-spacing:0px;fill:#00fffc;fill-opacity:1;stroke:none;stroke-width:1px;stroke-linecap:butt;stroke-linejoin:miter;stroke-opacity:1"
       id="flowRoot10941">
      <path
         d="m 232.33789,530.28487 0,10.68359 6.32813,0 q 3.18359,0 4.70703,-1.30859 1.54297,-1.32812 1.54297,-4.04297 0,-2.73437 -1.54297,-4.02344 -1.52344,-1.30859 -4.70703,-1.30859 l -6.32813,0 z m 0,-11.99219 0,8.78907 5.83984,0 q 2.89063,0 4.29688,-1.07422 1.42578,-1.09375 1.42578,-3.32032 0,-2.20703 -1.42578,-3.30078 -1.40625,-1.09375 -4.29688,-1.09375 l -5.83984,0 z m -3.94531,-3.24218 10.07812,0 q 4.51172,0 6.95313,1.875 2.4414,1.875 2.4414,5.33203 0,2.67578 -1.25,4.25781 -1.25,1.58203 -3.67187,1.97266 2.91016,0.625 4.51172,2.61718 1.62109,1.97266 1.62109,4.94141 0,3.90625 -2.65625,6.03516 -2.65625,2.1289 -7.55859,2.1289 l -10.46875,0 0,-29.16015 z"
         style="line-height:224.00000095%;letter-spacing:0px;fill:#00fffc;fill-opacity:1"
         id="path11356" />
      <path
         d="m 255.28711,535.57784 0,-13.24219 3.59375,0 0,13.10547 q 0,3.10547 1.21094,4.66797 1.21093,1.54297 3.63281,1.54297 2.91016,0 4.58984,-1.85547 1.69922,-1.85547 1.69922,-5.05859 l 0,-12.40235 3.59375,0 0,21.875 -3.59375,0 0,-3.35937 q -1.30859,1.99218 -3.04687,2.96875 -1.71875,0.95703 -4.00391,0.95703 -3.76953,0 -5.72266,-2.34375 -1.95312,-2.34375 -1.95312,-6.85547 z m 9.04297,-13.76953 0,0 z"
         style="line-height:224.00000095%;letter-spacing:0px;fill:#00fffc;fill-opacity:1"
         id="path11358" />
      <path
         d="m 281.04883,513.82003 3.59375,0 0,30.39062 -3.59375,0 0,-30.39062 z"
         style="line-height:224.00000095%;letter-spacing:0px;fill:#00fffc;fill-opacity:1"
         id="path11360" />
      <path
         d="m 292.14258,513.82003 3.59375,0 0,30.39062 -3.59375,0 0,-30.39062 z"
         style="line-height:224.00000095%;letter-spacing:0px;fill:#00fffc;fill-opacity:1"
         id="path11362" />
      <path
         d="m 321.94727,532.37471 0,1.75782 -16.52344,0 q 0.23437,3.71093 2.22656,5.66406 2.01172,1.93359 5.58594,1.93359 2.07031,0 4.0039,-0.50781 1.95313,-0.50781 3.86719,-1.52344 l 0,3.39844 q -1.93359,0.82031 -3.96484,1.25 -2.03125,0.42969 -4.1211,0.42969 -5.23437,0 -8.30078,-3.04688 -3.04687,-3.04687 -3.04687,-8.24218 0,-5.3711 2.89062,-8.51563 2.91016,-3.16406 7.83203,-3.16406 4.41407,0 6.97266,2.85156 2.57813,2.83203 2.57813,7.71484 z m -3.59375,-1.05468 q -0.0391,-2.94922 -1.66016,-4.70703 -1.60156,-1.75782 -4.25781,-1.75782 -3.00782,0 -4.82422,1.69922 -1.79688,1.69922 -2.07031,4.78516 l 12.8125,-0.0195 z"
         style="line-height:224.00000095%;letter-spacing:0px;fill:#00fffc;fill-opacity:1"
         id="path11364" />
      <path
         d="m 331.40039,516.12471 0,6.21094 7.40234,0 0,2.79297 -7.40234,0 0,11.875 q 0,2.67578 0.72266,3.4375 0.74218,0.76172 2.98828,0.76172 l 3.6914,0 0,3.00781 -3.6914,0 q -4.16016,0 -5.74219,-1.54297 -1.58203,-1.5625 -1.58203,-5.66406 l 0,-11.875 -2.63672,0 0,-2.79297 2.63672,0 0,-6.21094 3.61328,0 z"
         style="line-height:224.00000095%;letter-spacing:0px;fill:#00fffc;fill-opacity:1"
         id="path11366" />
    </g>
    <path
       sodipodi:nodetypes="sssssssss"
       style="opacity:1;fill:none;fill-opacity:0.99215686;stroke:#ff4f00;stroke-width:2;stroke-linecap:round;stroke-linejoin:round;stroke-miterlimit:4;stroke-dasharray:none;stroke-dashoffset:200;stroke-opacity:1"
       d="m -141.57984,386.60142 202.14597,0 c 5.54,0 10,4.46 10,10.00001 l 0,57.41397 c 0,5.54 -4.46,10 -10,10 l -202.14597,0 c -5.54,0 -10,-4.46 -10,-10 l 0,-57.41397 c 0,-5.54001 4.46,-10.00001 10,-10.00001 z"
       id="rect5600-0-2-5-7"
       inkscape:connector-curvature="0" />
    <g
       transform="translate(-335.32521,-108.48232)"
       style="font-style:normal;font-weight:normal;font-size:40px;line-height:224.00000095%;font-family:sans-serif;letter-spacing:11.77000046px;word-spacing:0px;fill:#ff4f00;fill-opacity:1;stroke:none;stroke-width:1px;stroke-linecap:butt;stroke-linejoin:miter;stroke-opacity:1"
       id="flowRoot10755-0-9-7">
      <path
         d="m 228.39258,515.0505 18.4375,0 0,3.32031 -14.49219,0 0,8.63281 13.88672,0 0,3.32031 -13.88672,0 0,10.56641 14.84375,0 0,3.32031 -18.78906,0 0,-29.16015 z"
         style="line-height:224.00000095%;letter-spacing:0px;fill:#ff4f00;fill-opacity:1"
         id="path11330" />
      <path
         d="m 271.73242,531.00753 0,13.20312 -3.59375,0 0,-13.08594 q 0,-3.10546 -1.21094,-4.64843 -1.21093,-1.54297 -3.63281,-1.54297 -2.91015,0 -4.58984,1.85547 -1.67969,1.85547 -1.67969,5.05859 l 0,12.36328 -3.61328,0 0,-21.875 3.61328,0 0,3.39844 q 1.28906,-1.97266 3.02734,-2.94922 1.75782,-0.97656 4.04297,-0.97656 3.76953,0 5.70313,2.34375 1.93359,2.32422 1.93359,6.85547 z"
         style="line-height:224.00000095%;letter-spacing:0px;fill:#ff4f00;fill-opacity:1"
         id="path11332" />
      <path
         d="m 297.65039,532.37471 0,1.75782 -16.52344,0 q 0.23438,3.71093 2.22657,5.66406 2.01171,1.93359 5.58593,1.93359 2.07032,0 4.00391,-0.50781 1.95312,-0.50781 3.86719,-1.52344 l 0,3.39844 q -1.9336,0.82031 -3.96485,1.25 -2.03125,0.42969 -4.12109,0.42969 -5.23438,0 -8.30078,-3.04688 -3.04688,-3.04687 -3.04688,-8.24218 0,-5.3711 2.89063,-8.51563 2.91015,-3.16406 7.83203,-3.16406 4.41406,0 6.97266,2.85156 2.57812,2.83203 2.57812,7.71484 z m -3.59375,-1.05468 q -0.0391,-2.94922 -1.66016,-4.70703 -1.60156,-1.75782 -4.25781,-1.75782 -3.00781,0 -4.82422,1.69922 -1.79687,1.69922 -2.07031,4.78516 l 12.8125,-0.0195 z"
         style="line-height:224.00000095%;letter-spacing:0px;fill:#ff4f00;fill-opacity:1"
         id="path11334" />
      <path
         d="m 320.58008,526.53487 q 1.34765,-2.42187 3.22265,-3.57422 1.875,-1.15234 4.41407,-1.15234 3.41797,0 5.27343,2.40234 1.85547,2.38281 1.85547,6.79688 l 0,13.20312 -3.61328,0 0,-13.08594 q 0,-3.14453 -1.11328,-4.66796 -1.11328,-1.52344 -3.39844,-1.52344 -2.79297,0 -4.41406,1.85547 -1.62109,1.85547 -1.62109,5.05859 l 0,12.36328 -3.61328,0 0,-13.08594 q 0,-3.16406 -1.11329,-4.66796 -1.11328,-1.52344 -3.4375,-1.52344 -2.7539,0 -4.375,1.875 -1.62109,1.85547 -1.62109,5.03906 l 0,12.36328 -3.61328,0 0,-21.875 3.61328,0 0,3.39844 q 1.23047,-2.01172 2.94922,-2.96875 1.71875,-0.95703 4.08203,-0.95703 2.38281,0 4.04297,1.21094 1.67969,1.21093 2.48047,3.51562 z"
         style="line-height:224.00000095%;letter-spacing:0px;fill:#ff4f00;fill-opacity:1"
         id="path11336" />
      <path
         d="m 351.63477,546.2419 q -1.52344,3.90625 -2.96875,5.09766 -1.44532,1.1914 -3.86719,1.1914 l -2.8711,0 0,-3.00781 2.10938,0 q 1.48437,0 2.30469,-0.70312 0.82031,-0.70313 1.8164,-3.32032 l 0.64453,-1.64062 -8.84765,-21.52344 3.80859,0 6.83594,17.10938 6.83594,-17.10938 3.80859,0 -9.60937,23.90625 z"
         style="line-height:224.00000095%;letter-spacing:0px;fill:#ff4f00;fill-opacity:1"
         id="path11338" />
    </g>
    <path
       inkscape:connector-curvature="0"
       id="path10927-7"
       d="m -429.72581,496.0154 266.14597,0 c 5.54,0 10,4.46 10,10.00001 l 0,57.41397 c 0,5.54 -4.46,10 -10,10 l -266.14597,0 c -5.54,0 -10,-4.46 -10,-10 l 0,-57.41397 c 0,-5.54001 4.46,-10.00001 10,-10.00001 z"
       style="opacity:1;fill:none;fill-opacity:0.99215686;stroke:#ff4f00;stroke-width:2;stroke-linecap:round;stroke-linejoin:round;stroke-miterlimit:4;stroke-dasharray:none;stroke-dashoffset:200;stroke-opacity:1"
       sodipodi:nodetypes="sssssssss" />
    <g
       transform="translate(-634.25439,1.54689)"
       style="font-style:normal;font-weight:normal;font-size:40px;line-height:224.00000095%;font-family:sans-serif;letter-spacing:11.77000046px;word-spacing:0px;fill:#ff4f00;fill-opacity:1;stroke:none;stroke-width:1px;stroke-linecap:butt;stroke-linejoin:miter;stroke-opacity:1"
       id="flowRoot10929-7">
      <path
         d="m 232.33789,518.29268 0,10.95703 4.96094,0 q 2.7539,0 4.25781,-1.42578 1.50391,-1.42578 1.50391,-4.0625 0,-2.61718 -1.50391,-4.04297 -1.50391,-1.42578 -4.25781,-1.42578 l -4.96094,0 z m -3.94531,-3.24218 8.90625,0 q 4.90234,0 7.40234,2.22656 2.51953,2.20703 2.51953,6.48437 0,4.31641 -2.51953,6.52344 -2.5,2.20703 -7.40234,2.20703 l -4.96094,0 0,11.71875 -3.94531,0 0,-29.16015 z"
         style="line-height:224.00000095%;letter-spacing:0px;fill:#ff4f00;fill-opacity:1"
         id="path11369" />
      <path
         d="m 252.37695,513.82003 3.59375,0 0,30.39062 -3.59375,0 0,-30.39062 z"
         style="line-height:224.00000095%;letter-spacing:0px;fill:#ff4f00;fill-opacity:1"
         id="path11371" />
      <path
         d="m 273.41211,533.21456 q -4.35547,0 -6.03516,0.99609 -1.67968,0.9961 -1.67968,3.39844 0,1.91406 1.25,3.04687 1.26953,1.11329 3.4375,1.11329 2.98828,0 4.78515,-2.10938 1.81641,-2.12891 1.81641,-5.64453 l 0,-0.80078 -3.57422,0 z m 7.16797,-1.48438 0,12.48047 -3.59375,0 0,-3.32031 q -1.23047,1.99219 -3.06641,2.94922 -1.83594,0.9375 -4.49219,0.9375 -3.35937,0 -5.35156,-1.875 -1.97265,-1.89453 -1.97265,-5.0586 0,-3.6914 2.46093,-5.5664 2.48047,-1.875 7.38282,-1.875 l 5.03906,0 0,-0.35156 q 0,-2.48047 -1.64063,-3.82813 -1.62109,-1.36719 -4.57031,-1.36719 -1.875,0 -3.65234,0.44922 -1.77735,0.44922 -3.41797,1.34766 l 0,-3.32031 q 1.97265,-0.76172 3.82812,-1.13282 1.85547,-0.39062 3.61328,-0.39062 4.7461,0 7.08985,2.46094 2.34375,2.46093 2.34375,7.46093 z"
         style="line-height:224.00000095%;letter-spacing:0px;fill:#ff4f00;fill-opacity:1"
         id="path11373" />
      <path
         d="m 297.10352,546.2419 q -1.52344,3.90625 -2.96875,5.09766 -1.44532,1.1914 -3.86719,1.1914 l -2.8711,0 0,-3.00781 2.10938,0 q 1.48437,0 2.30469,-0.70312 0.82031,-0.70313 1.8164,-3.32032 l 0.64453,-1.64062 -8.84765,-21.52344 3.80859,0 6.83594,17.10938 6.83594,-17.10938 3.80859,0 -9.60937,23.90625 z"
         style="line-height:224.00000095%;letter-spacing:0px;fill:#ff4f00;fill-opacity:1"
         id="path11375" />
      <path
         d="m 330.38477,532.37471 0,1.75782 -16.52344,0 q 0.23437,3.71093 2.22656,5.66406 2.01172,1.93359 5.58594,1.93359 2.07031,0 4.0039,-0.50781 1.95313,-0.50781 3.86719,-1.52344 l 0,3.39844 q -1.93359,0.82031 -3.96484,1.25 -2.03125,0.42969 -4.1211,0.42969 -5.23437,0 -8.30078,-3.04688 -3.04687,-3.04687 -3.04687,-8.24218 0,-5.3711 2.89062,-8.51563 2.91016,-3.16406 7.83203,-3.16406 4.41407,0 6.97266,2.85156 2.57813,2.83203 2.57813,7.71484 z m -3.59375,-1.05468 q -0.0391,-2.94922 -1.66016,-4.70703 -1.60156,-1.75782 -4.25781,-1.75782 -3.00782,0 -4.82422,1.69922 -1.79688,1.69922 -2.07031,4.78516 l 12.8125,-0.0195 z"
         style="line-height:224.00000095%;letter-spacing:0px;fill:#ff4f00;fill-opacity:1"
         id="path11377" />
      <path
         d="m 348.95898,525.69503 q -0.60546,-0.35157 -1.32812,-0.50782 -0.70313,-0.17578 -1.5625,-0.17578 -3.04688,0 -4.6875,1.99219 -1.62109,1.97266 -1.62109,5.68359 l 0,11.52344 -3.61329,0 0,-21.875 3.61329,0 0,3.39844 q 1.13281,-1.99219 2.94921,-2.94922 1.81641,-0.97656 4.41407,-0.97656 0.37109,0 0.82031,0.0586 0.44922,0.0391 0.99609,0.13672 l 0.0195,3.69141 z"
         style="line-height:224.00000095%;letter-spacing:0px;fill:#ff4f00;fill-opacity:1"
         id="path11379" />
      <path
         d="m 383.13867,516.00753 0,3.84765 q -2.24609,-1.07422 -4.23828,-1.60156 -1.99219,-0.52734 -3.84766,-0.52734 -3.22265,0 -4.98046,1.25 -1.73829,1.25 -1.73829,3.55468 0,1.9336 1.15235,2.92969 1.17187,0.97656 4.41406,1.58203 l 2.38281,0.48828 q 4.41407,0.83985 6.50391,2.96875 2.10937,2.10938 2.10937,5.66407 0,4.23828 -2.85156,6.42578 -2.83203,2.1875 -8.32031,2.1875 -2.07031,0 -4.41406,-0.46875 -2.32422,-0.46875 -4.82422,-1.38672 l 0,-4.0625 q 2.40234,1.34766 4.70703,2.03125 2.30469,0.68359 4.53125,0.68359 3.37891,0 5.21484,-1.32812 1.83594,-1.32813 1.83594,-3.78906 0,-2.14844 -1.32812,-3.35938 -1.3086,-1.21094 -4.31641,-1.81641 l -2.40234,-0.46875 q -4.41407,-0.8789 -6.38672,-2.7539 -1.97266,-1.875 -1.97266,-5.21485 0,-3.86718 2.71484,-6.09375 2.73438,-2.22656 7.51954,-2.22656 2.05078,0 4.17968,0.3711 2.12891,0.37109 4.35547,1.11328 z"
         style="line-height:224.00000095%;letter-spacing:0px;fill:#ff4f00;fill-opacity:1"
         id="path11381" />
      <path
         d="m 409.07617,531.00753 0,13.20312 -3.59375,0 0,-13.08594 q 0,-3.10546 -1.21094,-4.64843 -1.21093,-1.54297 -3.63281,-1.54297 -2.91015,0 -4.58984,1.85547 -1.67969,1.85547 -1.67969,5.05859 l 0,12.36328 -3.61328,0 0,-30.39062 3.61328,0 0,11.91406 q 1.28906,-1.97266 3.02734,-2.94922 1.75782,-0.97656 4.04297,-0.97656 3.76953,0 5.70313,2.34375 1.93359,2.32422 1.93359,6.85547 z"
         style="line-height:224.00000095%;letter-spacing:0px;fill:#ff4f00;fill-opacity:1"
         id="path11383" />
      <path
         d="m 416.2832,522.33565 3.59375,0 0,21.875 -3.59375,0 0,-21.875 z m 0,-8.51562 3.59375,0 0,4.55078 -3.59375,0 0,-4.55078 z"
         style="line-height:224.00000095%;letter-spacing:0px;fill:#ff4f00;fill-opacity:1"
         id="path11385" />
      <path
         d="m 430.85352,540.9294 0,11.60156 -3.61329,0 0,-30.19531 3.61329,0 0,3.32031 q 1.13281,-1.95312 2.85156,-2.89062 1.73828,-0.95703 4.14062,-0.95703 3.98438,0 6.46485,3.16406 2.5,3.16406 2.5,8.32031 0,5.15625 -2.5,8.32032 -2.48047,3.16406 -6.46485,3.16406 -2.40234,0 -4.14062,-0.9375 -1.71875,-0.95703 -2.85156,-2.91016 z m 12.22656,-7.63672 q 0,-3.96484 -1.64063,-6.21093 -1.62109,-2.26563 -4.47265,-2.26563 -2.85157,0 -4.49219,2.26563 -1.62109,2.24609 -1.62109,6.21093 0,3.96485 1.62109,6.23047 1.64062,2.2461 4.49219,2.2461 2.85156,0 4.47265,-2.2461 1.64063,-2.26562 1.64063,-6.23047 z"
         style="line-height:224.00000095%;letter-spacing:0px;fill:#ff4f00;fill-opacity:1"
         id="path11387" />
    </g>
    <path
       style="fill:none;fill-rule:evenodd;stroke:#00fffc;stroke-width:2;stroke-linecap:butt;stroke-linejoin:miter;stroke-miterlimit:4;stroke-dasharray:8,8;stroke-opacity:1;stroke-dashoffset:0"
       d="m 553.47385,687.28309 0.88179,-17.57118 -73.18867,-64.84283"
       id="path11029"
       inkscape:connector-curvature="0"
       sodipodi:nodetypes="ccc" />
    <path
       style="fill:none;fill-rule:evenodd;stroke:#ffffff;stroke-width:2;stroke-linecap:butt;stroke-linejoin:miter;stroke-miterlimit:4;stroke-dasharray:none;stroke-opacity:1;marker-end:"
       d="M -50.475251,464.0154 18.874571,692.13106"
       id="path11031"
       inkscape:connector-curvature="0"
       sodipodi:nodetypes="cc" />
    <path
       style="fill:none;fill-rule:evenodd;stroke:#00fffc;stroke-width:2;stroke-linecap:butt;stroke-linejoin:miter;stroke-miterlimit:4;stroke-dasharray:8,8;stroke-opacity:1;stroke-dashoffset:0"
       d="m -303.6272,573.42938 -220.58704,114.67906 0.13924,14.13914"
       id="path11033"
       inkscape:connector-curvature="0"
       sodipodi:nodetypes="ccc" />
    <path
       style="fill:none;fill-rule:evenodd;stroke:#ffffff;stroke-width:2;stroke-linecap:butt;stroke-linejoin:miter;stroke-miterlimit:4;stroke-dasharray:none;stroke-opacity:1;marker-end:"
       d="m -300.10004,402.86583 0,79.9227"
       id="path11035"
       inkscape:connector-curvature="0"
       sodipodi:nodetypes="cc" />
    <path
       style="fill:none;fill-rule:evenodd;stroke:#ffffff;stroke-width:2;stroke-linecap:butt;stroke-linejoin:miter;stroke-miterlimit:4;stroke-dasharray:none;stroke-opacity:1;marker-end:"
       d="M 188.35147,319.08307 20.788702,691.64179"
       id="path11037"
       inkscape:connector-curvature="0"
       sodipodi:nodetypes="cc" />
    <path
       style="fill:none;fill-rule:evenodd;stroke:#ffffff;stroke-width:2;stroke-linecap:butt;stroke-linejoin:miter;stroke-miterlimit:4;stroke-dasharray:none;stroke-opacity:1;marker-end:"
       d="M 460.20642,322.03917 20.788702,691.64179"
       id="path11039"
       inkscape:connector-curvature="0"
       sodipodi:nodetypes="cc" />
    <path
       style="fill:none;fill-rule:evenodd;stroke:#ffffff;stroke-width:2;stroke-linecap:butt;stroke-linejoin:miter;stroke-miterlimit:4;stroke-dasharray:none;stroke-opacity:1;marker-end:"
       d="m 663.06867,282.82009 -92.11376,-0.15588"
       id="path11059"
       inkscape:connector-curvature="0"
       sodipodi:nodetypes="cc" />
    <path
       style="fill:none;fill-rule:evenodd;stroke:#ffffff;stroke-width:2;stroke-linecap:butt;stroke-linejoin:miter;stroke-miterlimit:4;stroke-dasharray:none;stroke-opacity:1;marker-end:"
       d="M -126.4177,776.59813 -430.88308,749.18841"
       id="path11031-6"
       inkscape:connector-curvature="0"
       sodipodi:nodetypes="cc" />
    <path
       style="fill:none;fill-rule:evenodd;stroke:#ffffff;stroke-width:2;stroke-linecap:butt;stroke-linejoin:miter;stroke-miterlimit:4;stroke-dasharray:none;stroke-opacity:1;marker-end:"
       d="m 473.37897,740.36803 -317.3972,39.17136"
       id="path11031-6-5"
       inkscape:connector-curvature="0"
       sodipodi:nodetypes="cc" />
    <path
       sodipodi:type="star"
       style="opacity:1;fill:#00fffc;fill-opacity:1;stroke:none;stroke-width:2;stroke-linecap:round;stroke-linejoin:round;stroke-miterlimit:4;stroke-dasharray:none;stroke-dashoffset:200;stroke-opacity:1;marker-end:"
       id="path11110"
       sodipodi:sides="3"
       sodipodi:cx="524.95605"
       sodipodi:cy="-701.35828"
       sodipodi:r1="11.889323"
       sodipodi:r2="5.9446621"
       sodipodi:arg1="0.52359878"
       sodipodi:arg2="1.5707963"
       inkscape:flatsided="true"
       inkscape:rounded="0"
       inkscape:randomized="0"
       d="m 535.25251,-695.41361 -20.59291,0 10.29645,-17.83399 z"
       inkscape:transform-center-y="2.9723468"
       transform="scale(-1,-1)" />
    <path
       sodipodi:type="star"
       style="opacity:1;fill:#00fffc;fill-opacity:1;stroke:none;stroke-width:2;stroke-linecap:round;stroke-linejoin:round;stroke-miterlimit:4;stroke-dasharray:none;stroke-dashoffset:200;stroke-opacity:1;marker-end:"
       id="path11110-6"
       sodipodi:sides="3"
       sodipodi:cx="-553.47388"
       sodipodi:cy="-687.3938"
       sodipodi:r1="11.889323"
       sodipodi:r2="5.9446621"
       sodipodi:arg1="0.52359878"
       sodipodi:arg2="1.5707963"
       inkscape:flatsided="true"
       inkscape:rounded="0"
       inkscape:randomized="0"
       d="m -543.17742,-681.44914 -20.59291,0 10.29645,-17.83398 z"
       inkscape:transform-center-y="2.9723468"
       transform="scale(-1,-1)" />
    <path
       sodipodi:type="star"
       style="opacity:1;fill:#ffffff;fill-opacity:1;stroke:none;stroke-width:2;stroke-linecap:round;stroke-linejoin:round;stroke-miterlimit:4;stroke-dasharray:none;stroke-dashoffset:200;stroke-opacity:1;marker-end:"
       id="path11110-6-3"
       sodipodi:sides="3"
       sodipodi:cx="-584.91052"
       sodipodi:cy="-288.57706"
       sodipodi:r1="11.889323"
       sodipodi:r2="5.9446621"
       sodipodi:arg1="0.52359878"
       sodipodi:arg2="1.5707963"
       inkscape:flatsided="true"
       inkscape:rounded="0"
       inkscape:randomized="0"
       d="m -574.61407,-282.6324 -20.59291,0 10.29646,-17.83398 z"
       inkscape:transform-center-y="0.096806318"
       transform="matrix(0.0162849,-0.99986739,0.99986739,0.0162849,868.81272,-296.89814)"
       inkscape:transform-center-x="2.8881088" />
    <path
       sodipodi:type="star"
       style="opacity:1;fill:#ffffff;fill-opacity:1;stroke:none;stroke-width:2;stroke-linecap:round;stroke-linejoin:round;stroke-miterlimit:4;stroke-dasharray:none;stroke-dashoffset:200;stroke-opacity:1;marker-end:"
       id="path11110-6-3-9"
       sodipodi:sides="3"
       sodipodi:cx="-584.91052"
       sodipodi:cy="-288.57706"
       sodipodi:r1="11.889323"
       sodipodi:r2="5.9446621"
       sodipodi:arg1="0.52359878"
       sodipodi:arg2="1.5707963"
       inkscape:flatsided="true"
       inkscape:rounded="0"
       inkscape:randomized="0"
       d="m -574.61407,-282.6324 -20.59291,0 10.29646,-17.83398 z"
       inkscape:transform-center-y="2.9124507"
       transform="matrix(-0.99993276,0.011596,-0.011596,-0.99993276,-568.07866,414.25221)"
       inkscape:transform-center-x="0.06894214" />
    <path
       sodipodi:type="star"
       style="opacity:1;fill:#ffffff;fill-opacity:1;stroke:none;stroke-width:2;stroke-linecap:round;stroke-linejoin:round;stroke-miterlimit:4;stroke-dasharray:none;stroke-dashoffset:200;stroke-opacity:1;marker-end:"
       id="path11110-6-3-9-4"
       sodipodi:sides="3"
       sodipodi:cx="-584.91052"
       sodipodi:cy="-288.57706"
       sodipodi:r1="11.889323"
       sodipodi:r2="5.9446621"
       sodipodi:arg1="0.52359878"
       sodipodi:arg2="1.5707963"
       inkscape:flatsided="true"
       inkscape:rounded="0"
       inkscape:randomized="0"
       d="m -574.61407,-282.6324 -20.59291,0 10.29646,-17.83398 z"
       inkscape:transform-center-y="2.9124507"
       transform="matrix(-0.99993276,0.011596,-0.011596,-0.99993276,-888.24864,201.07716)"
       inkscape:transform-center-x="0.06894214" />
    <path
       sodipodi:type="star"
       style="opacity:1;fill:#ffffff;fill-opacity:1;stroke:none;stroke-width:2;stroke-linecap:round;stroke-linejoin:round;stroke-miterlimit:4;stroke-dasharray:none;stroke-dashoffset:200;stroke-opacity:1;marker-end:"
       id="path11110-6-3-9-8"
       sodipodi:sides="3"
       sodipodi:cx="-584.91052"
       sodipodi:cy="-288.57706"
       sodipodi:r1="11.889323"
       sodipodi:r2="5.9446621"
       sodipodi:arg1="0.52359878"
       sodipodi:arg2="1.5707963"
       inkscape:flatsided="true"
       inkscape:rounded="0"
       inkscape:randomized="0"
       d="m -574.61407,-282.6324 -20.59291,0 10.29646,-17.83398 z"
       inkscape:transform-center-y="-1.5595526"
       transform="matrix(-0.2623443,-0.96497433,0.96497433,-0.2623443,282.39841,138.80218)"
       inkscape:transform-center-x="1.5176357" />
    <path
       sodipodi:type="star"
       style="opacity:1;fill:#ffffff;fill-opacity:1;stroke:none;stroke-width:2;stroke-linecap:round;stroke-linejoin:round;stroke-miterlimit:4;stroke-dasharray:none;stroke-dashoffset:200;stroke-opacity:1;marker-end:"
       id="path11110-6-3-9-8-1"
       sodipodi:sides="3"
       sodipodi:cx="-584.91052"
       sodipodi:cy="-288.57706"
       sodipodi:r1="11.889323"
       sodipodi:r2="5.9446621"
       sodipodi:arg1="0.52359878"
       sodipodi:arg2="1.5707963"
       inkscape:flatsided="true"
       inkscape:rounded="0"
       inkscape:randomized="0"
       d="m -574.61407,-282.6324 -20.59291,0 10.29646,-17.83398 z"
       inkscape:transform-center-y="-1.9546799"
       transform="matrix(0.98227587,-0.18744096,0.18744096,0.98227587,504.76671,950.70341)"
       inkscape:transform-center-x="-1.1142777" />
    <path
       style="fill:none;fill-rule:evenodd;stroke:#ffffff;stroke-width:2;stroke-linecap:butt;stroke-linejoin:miter;stroke-miterlimit:4;stroke-dasharray:none;stroke-opacity:1;marker-end:"
       d="M 388.39492,563.18987 21.497241,690.06643"
       id="path11031-6-5-2"
       inkscape:connector-curvature="0"
       sodipodi:nodetypes="cc" />
    <path
       style="fill:none;fill-rule:evenodd;stroke:#ffffff;stroke-width:2;stroke-linecap:butt;stroke-linejoin:miter;stroke-miterlimit:4;stroke-dasharray:none;stroke-opacity:1;marker-end:"
       d="M 18.874571,692.13106 -153.57984,528.23886"
       id="path11031-6-5-9"
       inkscape:connector-curvature="0"
       sodipodi:nodetypes="cc" />
    <g
       transform="matrix(0.62200581,0,0,0.62200581,-79.231463,234.3417)"
       style="font-style:normal;font-weight:normal;font-size:40px;line-height:224.00000095%;font-family:sans-serif;letter-spacing:11.77000046px;word-spacing:0px;fill:#000000;fill-opacity:1;stroke:none;stroke-width:1px;stroke-linecap:butt;stroke-linejoin:miter;stroke-opacity:1"
       id="flowRoot11413">
      <path
         d="m 1020.2637,671.77545 0,-28.55469 3.3203,0 0,28.55469 -3.3203,0 z"
         style="font-style:normal;font-variant:normal;font-weight:normal;font-stretch:normal;font-family:'Open Sans';-inkscape-font-specification:'Open Sans';letter-spacing:0px;fill:#ffffff;fill-opacity:1"
         id="path11475" />
      <path
         d="m 1045.5957,671.77545 0,-13.84766 q 0,-2.61719 -1.1914,-3.90625 -1.1914,-1.28906 -3.7305,-1.28906 -3.3593,0 -4.9218,1.8164 -1.5625,1.81641 -1.5625,5.9961 l 0,11.23047 -3.2422,0 0,-21.40625 2.6367,0 0.5273,2.92968 0.1563,0 q 0.9961,-1.58203 2.7929,-2.4414 1.7969,-0.87891 4.004,-0.87891 3.8671,0 5.8203,1.875 1.9531,1.85547 1.9531,5.95703 l 0,13.96485 -3.2422,0 z"
         style="font-style:normal;font-variant:normal;font-weight:normal;font-stretch:normal;font-family:'Open Sans';-inkscape-font-specification:'Open Sans';letter-spacing:0px;fill:#ffffff;fill-opacity:1"
         id="path11477" />
      <path
         d="m 1069.2871,665.9356 q 0,2.98828 -2.2266,4.60938 -2.2265,1.62109 -6.25,1.62109 -4.2578,0 -6.6406,-1.34766 l 0,-3.00781 q 1.543,0.78125 3.3008,1.23047 1.7773,0.44922 3.418,0.44922 2.539,0 3.9062,-0.80078 1.3672,-0.82031 1.3672,-2.48047 0,-1.25 -1.0937,-2.12891 -1.0743,-0.89843 -4.2188,-2.10937 -2.9883,-1.11328 -4.2578,-1.9336 -1.25,-0.83984 -1.875,-1.89453 -0.6055,-1.05468 -0.6055,-2.51953 0,-2.61719 2.1289,-4.12109 2.1289,-1.52344 5.8399,-1.52344 3.457,0 6.7578,1.40625 l -1.1524,2.63672 q -3.2226,-1.32813 -5.8398,-1.32813 -2.3047,0 -3.4766,0.72266 -1.1718,0.72266 -1.1718,1.99219 0,0.85937 0.4297,1.46484 0.4492,0.60547 1.4257,1.15235 0.9766,0.54687 3.75,1.58203 3.8086,1.38672 5.1368,2.79297 1.3476,1.40625 1.3476,3.53515 z"
         style="font-style:normal;font-variant:normal;font-weight:normal;font-stretch:normal;font-family:'Open Sans';-inkscape-font-specification:'Open Sans';letter-spacing:0px;fill:#ffffff;fill-opacity:1"
         id="path11479" />
      <path
         d="m 1081.4551,669.49029 q 0.8594,0 1.6601,-0.11719 0.8008,-0.13672 1.2696,-0.27344 l 0,2.48047 q -0.5274,0.25391 -1.5625,0.41016 -1.0157,0.17578 -1.836,0.17578 -6.2109,0 -6.2109,-6.54297 l 0,-12.73437 -3.0664,0 0,-1.5625 3.0664,-1.34766 1.3672,-4.57031 1.875,0 0,4.96094 6.2109,0 0,2.51953 -6.2109,0 0,12.59765 q 0,1.9336 0.9179,2.96875 0.918,1.03516 2.5196,1.03516 z"
         style="font-style:normal;font-variant:normal;font-weight:normal;font-stretch:normal;font-family:'Open Sans';-inkscape-font-specification:'Open Sans';letter-spacing:0px;fill:#ffffff;fill-opacity:1"
         id="path11481" />
      <path
         d="m 1101.8457,671.77545 -0.6445,-3.04688 -0.1563,0 q -1.6015,2.01172 -3.2031,2.73438 -1.582,0.70312 -3.9648,0.70312 -3.1836,0 -5,-1.64062 -1.7969,-1.64063 -1.7969,-4.66797 0,-6.48438 10.3711,-6.79688 l 3.6328,-0.11719 0,-1.32812 q 0,-2.51953 -1.0938,-3.71094 -1.0742,-1.21094 -3.457,-1.21094 -2.6758,0 -6.0547,1.64063 l -0.9961,-2.48047 q 1.5821,-0.85937 3.4571,-1.34766 1.8945,-0.48828 3.789,-0.48828 3.8281,0 5.6641,1.69922 1.8554,1.69922 1.8554,5.44922 l 0,14.60938 -2.4023,0 z m -7.3242,-2.28516 q 3.0273,0 4.7461,-1.66016 1.7383,-1.66015 1.7383,-4.64843 l 0,-1.9336 -3.2422,0.13672 q -3.8672,0.13672 -5.586,1.21094 -1.6992,1.05469 -1.6992,3.30078 0,1.75781 1.0547,2.67578 1.0742,0.91797 2.9883,0.91797 z"
         style="font-style:normal;font-variant:normal;font-weight:normal;font-stretch:normal;font-family:'Open Sans';-inkscape-font-specification:'Open Sans';letter-spacing:0px;fill:#ffffff;fill-opacity:1"
         id="path11483" />
      <path
         d="m 1125.5957,671.77545 0,-13.84766 q 0,-2.61719 -1.1914,-3.90625 -1.1914,-1.28906 -3.7305,-1.28906 -3.3593,0 -4.9218,1.8164 -1.5625,1.81641 -1.5625,5.9961 l 0,11.23047 -3.2422,0 0,-21.40625 2.6367,0 0.5273,2.92968 0.1563,0 q 0.9961,-1.58203 2.7929,-2.4414 1.7969,-0.87891 4.004,-0.87891 3.8671,0 5.8203,1.875 1.9531,1.85547 1.9531,5.95703 l 0,13.96485 -3.2422,0 z"
         style="font-style:normal;font-variant:normal;font-weight:normal;font-stretch:normal;font-family:'Open Sans';-inkscape-font-specification:'Open Sans';letter-spacing:0px;fill:#ffffff;fill-opacity:1"
         id="path11485" />
      <path
         d="m 1144.0332,672.16607 q -4.6484,0 -7.207,-2.85156 -2.5391,-2.8711 -2.5391,-8.10547 0,-5.37109 2.5781,-8.30078 2.5977,-2.92969 7.3828,-2.92969 1.543,0 3.086,0.33203 1.543,0.33203 2.4219,0.78125 l -0.9961,2.75391 q -1.0743,-0.42969 -2.3438,-0.70313 -1.2695,-0.29297 -2.2461,-0.29297 -6.5234,0 -6.5234,8.32032 0,3.94531 1.582,6.05468 1.6016,2.10938 4.7266,2.10938 2.6758,0 5.4883,-1.15234 l 0,2.87109 q -2.1485,1.11328 -5.4102,1.11328 z"
         style="font-style:normal;font-variant:normal;font-weight:normal;font-stretch:normal;font-family:'Open Sans';-inkscape-font-specification:'Open Sans';letter-spacing:0px;fill:#ffffff;fill-opacity:1"
         id="path11487" />
      <path
         d="m 1163.584,672.16607 q -4.7461,0 -7.5,-2.89062 -2.7344,-2.89063 -2.7344,-8.02735 0,-5.17578 2.5391,-8.22265 2.5586,-3.04688 6.8554,-3.04688 4.0235,0 6.3672,2.65625 2.3438,2.63672 2.3438,6.97266 l 0,2.05078 -14.7461,0 q 0.098,3.76953 1.8945,5.72265 1.8164,1.95313 5.0977,1.95313 3.457,0 6.8359,-1.44531 l 0,2.89062 q -1.7187,0.74219 -3.2617,1.05469 -1.5234,0.33203 -3.6914,0.33203 z m -0.8789,-19.47266 q -2.5781,0 -4.1211,1.67969 -1.5235,1.67969 -1.7969,4.64844 l 11.1914,0 q 0,-3.06641 -1.3672,-4.6875 -1.3672,-1.64063 -3.9062,-1.64063 z"
         style="font-style:normal;font-variant:normal;font-weight:normal;font-stretch:normal;font-family:'Open Sans';-inkscape-font-specification:'Open Sans';letter-spacing:0px;fill:#ffffff;fill-opacity:1"
         id="path11489" />
      <path
         d="m 1197.3145,650.01763 q 4.2187,0 6.5429,2.89063 2.3438,2.87109 2.3438,8.14453 0,5.27344 -2.3633,8.20312 -2.3438,2.91016 -6.5234,2.91016 -2.0899,0 -3.8282,-0.76172 -1.7187,-0.78125 -2.8906,-2.38281 l -0.2344,0 -0.6836,2.75391 -2.3242,0 0,-30.39063 3.2422,0 0,7.38281 q 0,2.48047 -0.1562,4.45313 l 0.1562,0 q 2.2656,-3.20313 6.7188,-3.20313 z m -0.4688,2.71485 q -3.3203,0 -4.7852,1.91406 -1.4648,1.89453 -1.4648,6.40625 0,4.51172 1.5039,6.46484 1.5039,1.9336 4.8242,1.9336 2.9883,0 4.4532,-2.16797 1.4648,-2.1875 1.4648,-6.26953 0,-4.17969 -1.4648,-6.23047 -1.4649,-2.05078 -4.5313,-2.05078 z"
         style="font-style:normal;font-variant:normal;font-weight:normal;font-stretch:normal;font-family:'Open Sans';-inkscape-font-specification:'Open Sans';letter-spacing:0px;fill:#ffffff;fill-opacity:1"
         id="path11491" />
      <path
         d="m 1208.4863,650.3692 3.4766,0 4.6875,12.20703 q 1.543,4.17968 1.9141,6.03515 l 0.1562,0 q 0.2539,-0.99609 1.0547,-3.39843 0.8203,-2.42188 5.3125,-14.84375 l 3.4766,0 -9.1993,24.375 q -1.3672,3.61328 -3.2031,5.11718 -1.8164,1.52344 -4.4726,1.52344 -1.4844,0 -2.9297,-0.33203 l 0,-2.59766 q 1.0742,0.23438 2.4023,0.23438 3.3399,0 4.7656,-3.75 l 1.1914,-3.04688 -8.6328,-21.52343 z"
         style="font-style:normal;font-variant:normal;font-weight:normal;font-stretch:normal;font-family:'Open Sans';-inkscape-font-specification:'Open Sans';letter-spacing:0px;fill:#ffffff;fill-opacity:1"
         id="path11493" />
      <path
         d="m 1250.9863,672.16607 q -4.6484,0 -7.207,-2.85156 -2.5391,-2.8711 -2.5391,-8.10547 0,-5.37109 2.5782,-8.30078 2.5976,-2.92969 7.3828,-2.92969 1.5429,0 3.0859,0.33203 1.543,0.33203 2.4219,0.78125 l -0.9961,2.75391 q -1.0742,-0.42969 -2.3438,-0.70313 -1.2695,-0.29297 -2.2461,-0.29297 -6.5234,0 -6.5234,8.32032 0,3.94531 1.582,6.05468 1.6016,2.10938 4.7266,2.10938 2.6758,0 5.4883,-1.15234 l 0,2.87109 q -2.1485,1.11328 -5.4102,1.11328 z"
         style="font-style:normal;font-variant:normal;font-weight:normal;font-stretch:normal;font-family:'Open Sans';-inkscape-font-specification:'Open Sans';letter-spacing:0px;fill:#ffffff;fill-opacity:1"
         id="path11495" />
      <path
         d="m 1279.9707,661.05279 q 0,5.23437 -2.6367,8.18359 -2.6367,2.92969 -7.2852,2.92969 -2.8711,0 -5.0976,-1.34766 -2.2266,-1.34765 -3.4375,-3.86718 -1.211,-2.51953 -1.211,-5.89844 0,-5.23438 2.6172,-8.14453 2.6172,-2.92969 7.2656,-2.92969 4.4922,0 7.129,2.98828 2.6562,2.98828 2.6562,8.08594 z m -16.3086,0 q 0,4.10156 1.6406,6.25 1.6407,2.14844 4.8243,2.14844 3.1835,0 4.8242,-2.12891 1.6601,-2.14844 1.6601,-6.26953 0,-4.08203 -1.6601,-6.19141 -1.6407,-2.1289 -4.8633,-2.1289 -3.1836,0 -4.8047,2.08984 -1.6211,2.08984 -1.6211,6.23047 z"
         style="font-style:normal;font-variant:normal;font-weight:normal;font-stretch:normal;font-family:'Open Sans';-inkscape-font-specification:'Open Sans';letter-spacing:0px;fill:#ffffff;fill-opacity:1"
         id="path11497" />
      <path
         d="m 1300.2051,668.90435 -0.1758,0 q -2.2461,3.26172 -6.7188,3.26172 -4.1992,0 -6.5429,-2.87109 -2.3242,-2.8711 -2.3242,-8.16407 0,-5.29296 2.3437,-8.22265 2.3438,-2.92969 6.5234,-2.92969 4.3555,0 6.6797,3.16406 l 0.2539,0 -0.1367,-1.54297 -0.078,-1.5039 0,-8.71094 3.2422,0 0,30.39063 -2.6367,0 -0.4297,-2.8711 z m -6.4844,0.54688 q 3.3203,0 4.8047,-1.79688 1.5039,-1.8164 1.5039,-5.83984 l 0,-0.6836 q 0,-4.55078 -1.5234,-6.48437 -1.5039,-1.95313 -4.8243,-1.95313 -2.8515,0 -4.375,2.22657 -1.5039,2.20703 -1.5039,6.25 0,4.10156 1.5039,6.1914 1.5039,2.08985 4.4141,2.08985 z"
         style="font-style:normal;font-variant:normal;font-weight:normal;font-stretch:normal;font-family:'Open Sans';-inkscape-font-specification:'Open Sans';letter-spacing:0px;fill:#ffffff;fill-opacity:1"
         id="path11499" />
      <path
         d="m 1319.209,672.16607 q -4.7461,0 -7.5,-2.89062 -2.7344,-2.89063 -2.7344,-8.02735 0,-5.17578 2.5391,-8.22265 2.5586,-3.04688 6.8554,-3.04688 4.0235,0 6.3672,2.65625 2.3438,2.63672 2.3438,6.97266 l 0,2.05078 -14.7461,0 q 0.098,3.76953 1.8945,5.72265 1.8164,1.95313 5.0977,1.95313 3.457,0 6.8359,-1.44531 l 0,2.89062 q -1.7187,0.74219 -3.2617,1.05469 -1.5234,0.33203 -3.6914,0.33203 z m -0.8789,-19.47266 q -2.5781,0 -4.1211,1.67969 -1.5235,1.67969 -1.7969,4.64844 l 11.1914,0 q 0,-3.06641 -1.3672,-4.6875 -1.3672,-1.64063 -3.9062,-1.64063 z"
         style="font-style:normal;font-variant:normal;font-weight:normal;font-stretch:normal;font-family:'Open Sans';-inkscape-font-specification:'Open Sans';letter-spacing:0px;fill:#ffffff;fill-opacity:1"
         id="path11501" />
    </g>
    <g
       transform="translate(20.737134,354.80522)"
       style="font-style:normal;font-weight:normal;font-size:24.88023186px;line-height:224.00000095%;font-family:sans-serif;letter-spacing:7.32100868px;word-spacing:0px;fill:#000000;fill-opacity:1;stroke:none;stroke-width:1px;stroke-linecap:butt;stroke-linejoin:miter;stroke-opacity:1"
       id="flowRoot11413-3">
      <path
         d="m -620.02884,259.57218 0,-17.76118 2.06525,0 0,17.76118 -2.06525,0 z"
         style="font-style:normal;font-variant:normal;font-weight:normal;font-stretch:normal;font-family:'Open Sans';-inkscape-font-specification:'Open Sans';letter-spacing:0px;fill:#ffffff;fill-opacity:1"
         id="path11446"
         inkscape:connector-curvature="0" />
      <path
         d="m -604.27217,259.57218 0,-8.61332 q 0,-1.6279 -0.74107,-2.42971 -0.74106,-0.8018 -2.32037,-0.8018 -2.08955,0 -3.06143,1.12981 -0.97189,1.12982 -0.97189,3.72961 l 0,6.98541 -2.01666,0 0,-13.31481 1.64006,0 0.32801,1.82229 0.0972,0 q 0.61957,-0.98404 1.73724,-1.51857 1.11767,-0.54669 2.49045,-0.54669 2.40541,0 3.62027,1.16626 1.21486,1.15411 1.21486,3.70531 l 0,8.68621 -2.01666,0 z"
         style="font-style:normal;font-variant:normal;font-weight:normal;font-stretch:normal;font-family:'Open Sans';-inkscape-font-specification:'Open Sans';letter-spacing:0px;fill:#ffffff;fill-opacity:1"
         id="path11448"
         inkscape:connector-curvature="0" />
      <path
         d="m -589.53598,255.93977 q 0,1.85873 -1.38494,2.86706 -1.38493,1.00833 -3.88753,1.00833 -2.64839,0 -4.13051,-0.83825 l 0,-1.87088 q 0.95973,0.48594 2.0531,0.76536 1.10552,0.27941 2.126,0.27941 1.57931,0 2.42971,-0.49809 0.8504,-0.51024 0.8504,-1.54286 0,-0.77751 -0.68032,-1.32419 -0.66817,-0.55884 -2.62409,-1.31205 -1.85872,-0.69247 -2.64838,-1.2027 -0.77751,-0.52239 -1.16626,-1.17841 -0.37661,-0.65603 -0.37661,-1.56717 0,-1.6279 1.3242,-2.56334 1.32419,-0.94759 3.63241,-0.94759 2.1503,0 4.2034,0.8747 l -0.71676,1.64005 q -2.00451,-0.8261 -3.63242,-0.8261 -1.43353,0 -2.16244,0.4495 -0.72892,0.44949 -0.72892,1.23915 0,0.53454 0.26727,0.91114 0.27942,0.37661 0.88685,0.71676 0.60742,0.34016 2.33252,0.98404 2.36897,0.86254 3.19507,1.73724 0.83825,0.8747 0.83825,2.19889 z"
         style="font-style:normal;font-variant:normal;font-weight:normal;font-stretch:normal;font-family:'Open Sans';-inkscape-font-specification:'Open Sans';letter-spacing:0px;fill:#ffffff;fill-opacity:1"
         id="path11450"
         inkscape:connector-curvature="0" />
      <path
         d="m -581.96743,258.1508 q 0.53453,0 1.03262,-0.0729 0.49809,-0.085 0.78966,-0.17008 l 0,1.54287 q -0.32801,0.15793 -0.97189,0.25512 -0.63172,0.10934 -1.14196,0.10934 -3.86324,0 -3.86324,-4.06977 l 0,-7.92085 -1.90732,0 0,-0.97189 1.90732,-0.83825 0.8504,-2.84276 1.16626,0 0,3.08573 3.86324,0 0,1.56717 -3.86324,0 0,7.83581 q 0,1.20271 0.57098,1.84658 0.57098,0.64387 1.56717,0.64387 z"
         style="font-style:normal;font-variant:normal;font-weight:normal;font-stretch:normal;font-family:'Open Sans';-inkscape-font-specification:'Open Sans';letter-spacing:0px;fill:#ffffff;fill-opacity:1"
         id="path11452"
         inkscape:connector-curvature="0" />
      <path
         d="m -569.28435,259.57218 -0.4009,-1.89517 -0.0972,0 q -0.99618,1.2513 -1.99236,1.7008 -0.98404,0.43735 -2.46616,0.43735 -1.98021,0 -3.11003,-1.02048 -1.11766,-1.02048 -1.11766,-2.90351 0,-4.03332 6.45088,-4.22769 l 2.25963,-0.0729 0,-0.8261 q 0,-1.56717 -0.68032,-2.30823 -0.66817,-0.75321 -2.1503,-0.75321 -1.66435,0 -3.76605,1.02048 l -0.61957,-1.54287 q 0.98403,-0.53453 2.15029,-0.83825 1.17841,-0.30371 2.35682,-0.30371 2.38112,0 3.52308,1.05692 1.15411,1.05693 1.15411,3.38945 l 0,9.08711 -1.49427,0 z m -4.55571,-1.42138 q 1.88303,0 2.9521,-1.03262 1.08122,-1.03263 1.08122,-2.89136 l 0,-1.2027 -2.01666,0.085 q -2.40541,0.085 -3.47448,0.75321 -1.05693,0.65602 -1.05693,2.0531 0,1.09337 0.65602,1.66435 0.66818,0.57098 1.85873,0.57098 z"
         style="font-style:normal;font-variant:normal;font-weight:normal;font-stretch:normal;font-family:'Open Sans';-inkscape-font-specification:'Open Sans';letter-spacing:0px;fill:#ffffff;fill-opacity:1"
         id="path11454"
         inkscape:connector-curvature="0" />
      <path
         d="m -554.51171,259.57218 0,-8.61332 q 0,-1.6279 -0.74106,-2.42971 -0.74106,-0.8018 -2.32038,-0.8018 -2.08955,0 -3.06143,1.12981 -0.97188,1.12982 -0.97188,3.72961 l 0,6.98541 -2.01666,0 0,-13.31481 1.64005,0 0.32801,1.82229 0.0972,0 q 0.61958,-0.98404 1.73724,-1.51857 1.11767,-0.54669 2.49046,-0.54669 2.40541,0 3.62026,1.16626 1.21486,1.15411 1.21486,3.70531 l 0,8.68621 -2.01666,0 z"
         style="font-style:normal;font-variant:normal;font-weight:normal;font-stretch:normal;font-family:'Open Sans';-inkscape-font-specification:'Open Sans';letter-spacing:0px;fill:#ffffff;fill-opacity:1"
         id="path11456"
         inkscape:connector-curvature="0" />
      <path
         d="m -543.04348,259.81516 q -2.89136,0 -4.48282,-1.77369 -1.57931,-1.78584 -1.57931,-5.04165 0,-3.34085 1.60361,-5.16314 1.61576,-1.82228 4.59215,-1.82228 0.95974,0 1.91947,0.20653 0.95974,0.20652 1.50642,0.48594 l -0.61957,1.71294 q -0.66817,-0.26726 -1.45783,-0.43734 -0.78966,-0.18223 -1.39708,-0.18223 -4.05762,0 -4.05762,5.17528 0,2.45401 0.98403,3.76605 0.99618,1.31205 2.93995,1.31205 1.66435,0 3.41375,-0.71677 l 0,1.78584 q -1.33635,0.69247 -3.36515,0.69247 z"
         style="font-style:normal;font-variant:normal;font-weight:normal;font-stretch:normal;font-family:'Open Sans';-inkscape-font-specification:'Open Sans';letter-spacing:0px;fill:#ffffff;fill-opacity:1"
         id="path11458"
         inkscape:connector-curvature="0" />
      <path
         d="m -530.88278,259.81516 q -2.9521,0 -4.66505,-1.79799 -1.70079,-1.79799 -1.70079,-4.99305 0,-3.21937 1.57931,-5.11454 1.59146,-1.89518 4.26414,-1.89518 2.5026,0 3.96043,1.6522 1.45782,1.64006 1.45782,4.33704 l 0,1.2756 -9.17215,0 q 0.0607,2.34467 1.17841,3.55952 1.12981,1.21486 3.17077,1.21486 2.15029,0 4.25199,-0.899 l 0,1.79799 q -1.06907,0.46164 -2.02881,0.65602 -0.94758,0.20653 -2.29607,0.20653 z m -0.54669,-12.11211 q -1.60361,0 -2.56334,1.04478 -0.94759,1.04477 -1.11767,2.89135 l 6.96112,0 q 0,-1.90732 -0.8504,-2.91565 -0.8504,-1.02048 -2.42971,-1.02048 z"
         style="font-style:normal;font-variant:normal;font-weight:normal;font-stretch:normal;font-family:'Open Sans';-inkscape-font-specification:'Open Sans';letter-spacing:0px;fill:#ffffff;fill-opacity:1"
         id="path11460"
         inkscape:connector-curvature="0" />
      <path
         d="m -509.90223,246.0387 q 2.62409,0 4.06976,1.79798 1.45783,1.78584 1.45783,5.06595 0,3.28011 -1.46998,5.10239 -1.45782,1.81014 -4.05761,1.81014 -1.2999,0 -2.38112,-0.4738 -1.06907,-0.48594 -1.79798,-1.48212 l -0.14579,0 -0.42519,1.71294 -1.44568,0 0,-18.90314 2.01666,0 0,4.59215 q 0,1.54287 -0.0972,2.76987 l 0.0972,0 q 1.40923,-1.99236 4.1791,-1.99236 z m -0.29157,1.68865 q -2.06525,0 -2.97639,1.19056 -0.91114,1.1784 -0.91114,3.98472 0,2.80632 0.93544,4.02117 0.93543,1.20271 3.00069,1.20271 1.85873,0 2.76987,-1.34849 0.91114,-1.36064 0.91114,-3.89969 0,-2.59979 -0.91114,-3.87538 -0.91114,-1.2756 -2.81847,-1.2756 z"
         style="font-style:normal;font-variant:normal;font-weight:normal;font-stretch:normal;font-family:'Open Sans';-inkscape-font-specification:'Open Sans';letter-spacing:0px;fill:#ffffff;fill-opacity:1"
         id="path11462"
         inkscape:connector-curvature="0" />
      <path
         d="m -502.95326,246.25737 2.16244,0 2.91565,7.59285 q 0.95973,2.59979 1.19056,3.7539 l 0.0972,0 q 0.15793,-0.61958 0.65602,-2.11385 0.51024,-1.50642 3.3044,-9.2329 l 2.16245,0 -5.72197,15.16139 q -0.8504,2.24749 -1.99236,3.18292 -1.12982,0.94759 -2.78202,0.94759 -0.92329,0 -1.82229,-0.20652 l 0,-1.61576 q 0.66818,0.14578 1.49428,0.14578 2.0774,0 2.96424,-2.33252 l 0.74106,-1.89517 -5.36965,-13.38771 z"
         style="font-style:normal;font-variant:normal;font-weight:normal;font-stretch:normal;font-family:'Open Sans';-inkscape-font-specification:'Open Sans';letter-spacing:0px;fill:#ffffff;fill-opacity:1"
         id="path11464"
         inkscape:connector-curvature="0" />
      <path
         d="m -476.51802,259.81516 q -2.89136,0 -4.48282,-1.77369 -1.57931,-1.78584 -1.57931,-5.04165 0,-3.34085 1.60361,-5.16314 1.61576,-1.82228 4.59215,-1.82228 0.95974,0 1.91947,0.20653 0.95974,0.20652 1.50642,0.48594 l -0.61957,1.71294 q -0.66817,-0.26726 -1.45783,-0.43734 -0.78966,-0.18223 -1.39708,-0.18223 -4.05762,0 -4.05762,5.17528 0,2.45401 0.98403,3.76605 0.99618,1.31205 2.93995,1.31205 1.66435,0 3.41374,-0.71677 l 0,1.78584 q -1.33634,0.69247 -3.36514,0.69247 z"
         style="font-style:normal;font-variant:normal;font-weight:normal;font-stretch:normal;font-family:'Open Sans';-inkscape-font-specification:'Open Sans';letter-spacing:0px;fill:#ffffff;fill-opacity:1"
         id="path11466"
         inkscape:connector-curvature="0" />
      <path
         d="m -458.48957,252.90263 q 0,3.25581 -1.64005,5.09024 -1.64005,1.82229 -4.53141,1.82229 -1.78584,0 -3.17077,-0.83825 -1.38494,-0.83825 -2.13815,-2.40542 -0.75321,-1.56716 -0.75321,-3.66886 0,-3.25581 1.62791,-5.06595 1.62791,-1.82228 4.51926,-1.82228 2.79417,0 4.43422,1.85873 1.6522,1.85873 1.6522,5.0295 z m -10.14404,0 q 0,2.5512 1.02048,3.88754 1.02048,1.33634 3.0007,1.33634 1.98021,0 3.00069,-1.3242 1.03262,-1.33634 1.03262,-3.89968 0,-2.53905 -1.03262,-3.85109 -1.02048,-1.32419 -3.02499,-1.32419 -1.98022,0 -2.98855,1.29989 -1.00833,1.2999 -1.00833,3.87539 z"
         style="font-style:normal;font-variant:normal;font-weight:normal;font-stretch:normal;font-family:'Open Sans';-inkscape-font-specification:'Open Sans';letter-spacing:0px;fill:#ffffff;fill-opacity:1"
         id="path11468"
         inkscape:connector-curvature="0" />
      <path
         d="m -445.90367,257.78635 -0.10933,0 q -1.39709,2.02881 -4.1791,2.02881 -2.61194,0 -4.06977,-1.78584 -1.44568,-1.78584 -1.44568,-5.0781 0,-3.29225 1.45783,-5.11454 1.45783,-1.82228 4.05762,-1.82228 2.70912,0 4.1548,1.96807 l 0.15793,0 -0.085,-0.95974 -0.0486,-0.93544 0,-5.41825 2.01666,0 0,18.90314 -1.64006,0 -0.26727,-1.78583 z m -4.03331,0.34016 q 2.06525,0 2.98854,-1.11767 0.93544,-1.12982 0.93544,-3.63242 l 0,-0.4252 q 0,-2.83061 -0.94759,-4.03331 -0.93544,-1.21486 -3.00069,-1.21486 -1.77369,0 -2.72128,1.38494 -0.93544,1.37278 -0.93544,3.88753 0,2.5512 0.93544,3.85109 0.93544,1.2999 2.74558,1.2999 z"
         style="font-style:normal;font-variant:normal;font-weight:normal;font-stretch:normal;font-family:'Open Sans';-inkscape-font-specification:'Open Sans';letter-spacing:0px;fill:#ffffff;fill-opacity:1"
         id="path11470"
         inkscape:connector-curvature="0" />
      <path
         d="m -434.08313,259.81516 q -2.9521,0 -4.66504,-1.79799 -1.7008,-1.79799 -1.7008,-4.99305 0,-3.21937 1.57931,-5.11454 1.59146,-1.89518 4.26414,-1.89518 2.5026,0 3.96043,1.6522 1.45783,1.64006 1.45783,4.33704 l 0,1.2756 -9.17216,0 q 0.0607,2.34467 1.17841,3.55952 1.12981,1.21486 3.17077,1.21486 2.15029,0 4.25199,-0.899 l 0,1.79799 q -1.06907,0.46164 -2.0288,0.65602 -0.94759,0.20653 -2.29608,0.20653 z m -0.54668,-12.11211 q -1.60361,0 -2.56335,1.04478 -0.94759,1.04477 -1.11767,2.89135 l 6.96112,0 q 0,-1.90732 -0.85039,-2.91565 -0.8504,-1.02048 -2.42971,-1.02048 z"
         style="font-style:normal;font-variant:normal;font-weight:normal;font-stretch:normal;font-family:'Open Sans';-inkscape-font-specification:'Open Sans';letter-spacing:0px;fill:#ffffff;fill-opacity:1"
         id="path11472"
         inkscape:connector-curvature="0" />
    </g>
  </g>
</svg>
